<?xml version="1.0" encoding="utf-8"?>
<!-- Generator: Adobe Illustrator 16.0.0, SVG Export Plug-In . SVG Version: 6.00 Build 0)  -->
<!DOCTYPE svg PUBLIC "-//W3C//DTD SVG 1.1//EN" "http://www.w3.org/Graphics/SVG/1.1/DTD/svg11.dtd">
<svg version="1.1" id="Layer_1" xmlns="http://www.w3.org/2000/svg" xmlns:xlink="http://www.w3.org/1999/xlink" x="0px" y="0px"
	 width="291.304px" height="291.304px" viewBox="0 0 291.304 291.304" enable-background="new 0 0 291.304 291.304"
	 xml:space="preserve">
<g>
	<g>
		<defs>
			<rect id="SVGID_1_" x="-3.479" y="-3.783" width="300" height="300"/>
		</defs>
		<clipPath id="SVGID_2_">
			<use xlink:href="#SVGID_1_"  overflow="visible"/>
		</clipPath>
		<g clip-path="url(#SVGID_2_)">
			<defs>
				<rect id="SVGID_3_" x="-3.479" y="-3.783" width="300" height="300"/>
			</defs>
			<clipPath id="SVGID_4_">
				<use xlink:href="#SVGID_3_"  overflow="visible"/>
			</clipPath>
			<g clip-path="url(#SVGID_4_)">
				<defs>
					<rect id="SVGID_5_" x="-3.479" y="-3.783" width="300" height="300"/>
				</defs>
				<clipPath id="SVGID_6_">
					<use xlink:href="#SVGID_5_"  overflow="visible"/>
				</clipPath>
				<path clip-path="url(#SVGID_6_)" fill="#FFF27D" d="M235.584,250.01v13.395c0,5.548,10.492,10.043,23.438,10.043
					s23.438-4.495,23.438-10.043V250.01"/>
				<path clip-path="url(#SVGID_6_)" fill="#5A5A9B" d="M259.021,277.467c-2.586,0-4.688-2.097-4.688-4.688l0.86-0.485
					c-0.558-0.796-0.86-1.739-0.86-2.705v-20.247c0-2.591,2.102-4.688,4.688-4.688h23.438c2.586,0,4.688,2.097,4.688,4.688v13.385
					C287.146,272.405,272.992,277.467,259.021,277.467 M263.709,267.479v0.402c8.968-0.833,13.732-3.918,14.067-5.199l-0.005-8.652
					h-14.063V267.479z"/>
				<path clip-path="url(#SVGID_6_)" fill="#FFC661" d="M235.584,235.948v13.395c0,5.548,10.492,10.043,23.438,10.043
					s23.438-4.495,23.438-10.043v-13.395"/>
				<path clip-path="url(#SVGID_6_)" fill="#5A5A9B" d="M259.021,264.073c-2.586,0-4.688-2.096-4.688-4.688v-23.438
					c0-2.591,2.102-4.688,4.688-4.688h23.438c2.586,0,4.688,2.097,4.688,4.688v13.395
					C287.146,259.015,272.992,264.073,259.021,264.073 M263.709,240.635v13.853c8.968-0.833,13.732-3.919,14.067-5.2l-0.005-8.652
					H263.709z"/>
				<g opacity="0.5" clip-path="url(#SVGID_6_)" enable-background="new    ">
					<g>
						<defs>
							<rect id="SVGID_7_" x="235.584" y="250.01" width="23.438" height="23.438"/>
						</defs>
						<clipPath id="SVGID_8_">
							<use xlink:href="#SVGID_7_"  overflow="visible"/>
						</clipPath>
						<path clip-path="url(#SVGID_8_)" fill="#FFFFFF" d="M235.584,250.01v13.395c0,5.548,10.492,10.043,23.438,10.043V250.01
							H235.584z"/>
					</g>
				</g>
				<path clip-path="url(#SVGID_6_)" fill="#FFF27D" d="M235.584,235.948v13.395c0,5.548,10.492,10.043,23.438,10.043v-23.438
					H235.584z"/>
				<path clip-path="url(#SVGID_6_)" fill="#FFF27D" d="M212.146,259.385v13.395c0,5.548,10.492,10.043,23.438,10.043
					s23.438-4.495,23.438-10.043v-13.395"/>
				<g opacity="0.5" clip-path="url(#SVGID_6_)" enable-background="new    ">
					<g>
						<defs>
							<rect id="SVGID_9_" x="212.146" y="259.385" width="23.438" height="23.438"/>
						</defs>
						<clipPath id="SVGID_10_">
							<use xlink:href="#SVGID_9_"  overflow="visible"/>
						</clipPath>
						<path clip-path="url(#SVGID_10_)" fill="#FFFFFF" d="M212.146,259.385v13.395c0,5.548,10.492,10.043,23.438,10.043v-23.438
							H212.146z"/>
					</g>
				</g>
				<path clip-path="url(#SVGID_6_)" fill="#FFC661" d="M212.146,245.323v13.395c0,5.548,10.492,10.043,23.438,10.043
					s23.438-4.495,23.438-10.043v-13.395"/>
				<path clip-path="url(#SVGID_6_)" fill="#FFF27D" d="M212.146,245.323v13.395c0,5.548,10.492,10.043,23.438,10.043v-23.438
					H212.146z"/>
				<path clip-path="url(#SVGID_6_)" fill="#FFF27D" d="M212.146,231.26v13.395c0,5.548,10.492,10.043,23.438,10.043
					s23.438-4.495,23.438-10.043V231.26"/>
				<g opacity="0.5" clip-path="url(#SVGID_6_)" enable-background="new    ">
					<g>
						<defs>
							<rect id="SVGID_11_" x="212.146" y="231.26" width="23.438" height="23.438"/>
						</defs>
						<clipPath id="SVGID_12_">
							<use xlink:href="#SVGID_11_"  overflow="visible"/>
						</clipPath>
						<path clip-path="url(#SVGID_12_)" fill="#FFFFFF" d="M212.146,231.26v13.395c0,5.548,10.492,10.043,23.438,10.043V231.26
							H212.146z"/>
					</g>
				</g>
				<polyline clip-path="url(#SVGID_6_)" fill="#89DBBA" points="10.584,188.405 10.584,174.342 118.396,174.342 118.396,188.405 
									"/>
				<polyline clip-path="url(#SVGID_6_)" fill="#89DBBA" points="10.584,202.467 10.584,188.405 118.396,188.405 118.396,202.467 
									"/>
				<polyline clip-path="url(#SVGID_6_)" fill="#89DBBA" points="10.584,216.53 10.584,202.467 118.396,202.467 118.396,216.53 				
					"/>
				<g opacity="0.2" clip-path="url(#SVGID_6_)" enable-background="new    ">
					<g>
						<defs>
							<rect id="SVGID_13_" x="10.584" y="174.342" width="107.813" height="14.063"/>
						</defs>
						<clipPath id="SVGID_14_">
							<use xlink:href="#SVGID_13_"  overflow="visible"/>
						</clipPath>
						<polyline clip-path="url(#SVGID_14_)" fill="#2C4B75" points="10.584,188.405 10.584,174.342 118.396,174.342 
							118.396,188.405 						"/>
					</g>
				</g>
				<g opacity="0.2" clip-path="url(#SVGID_6_)" enable-background="new    ">
					<g>
						<defs>
							<rect id="SVGID_15_" x="10.584" y="188.405" width="107.813" height="14.063"/>
						</defs>
						<clipPath id="SVGID_16_">
							<use xlink:href="#SVGID_15_"  overflow="visible"/>
						</clipPath>
						<polyline clip-path="url(#SVGID_16_)" fill="#2C4B75" points="10.584,202.467 10.584,188.405 118.396,188.405 
							118.396,202.467 						"/>
					</g>
				</g>
				<g opacity="0.2" clip-path="url(#SVGID_6_)" enable-background="new    ">
					<g>
						<defs>
							<rect id="SVGID_17_" x="10.584" y="202.467" width="107.813" height="14.063"/>
						</defs>
						<clipPath id="SVGID_18_">
							<use xlink:href="#SVGID_17_"  overflow="visible"/>
						</clipPath>
						<polyline clip-path="url(#SVGID_18_)" fill="#2C4B75" points="10.584,216.53 10.584,202.467 118.396,202.467 118.396,216.53 
													"/>
					</g>
				</g>
				<rect x="10.584" y="216.53" clip-path="url(#SVGID_6_)" fill="#89DBBA" width="107.813" height="65.625"/>
				<path clip-path="url(#SVGID_6_)" fill="#B1F1A8" d="M104.334,258.717c-5.175,0-9.375,4.202-9.375,9.375H34.021
					c0-5.173-4.2-9.375-9.375-9.375v-18.75c5.175,0,9.375-4.202,9.375-9.375h60.938c0,5.173,4.2,9.375,9.375,9.375V258.717z"/>
				<g opacity="0.2" clip-path="url(#SVGID_6_)" enable-background="new    ">
					<g>
						<defs>
							<rect id="SVGID_19_" x="10.584" y="249.342" width="107.813" height="32.813"/>
						</defs>
						<clipPath id="SVGID_20_">
							<use xlink:href="#SVGID_19_"  overflow="visible"/>
						</clipPath>
						<rect x="10.584" y="249.342" clip-path="url(#SVGID_20_)" fill="#2C4B75" width="107.813" height="32.813"/>
					</g>
				</g>
				<path clip-path="url(#SVGID_6_)" fill="#6D6DAA" d="M38.709,254.03c-0.613-0.01-1.218-0.128-1.781-0.375
					c-0.572-0.229-1.096-0.563-1.547-0.984c-0.858-0.893-1.341-2.083-1.359-3.328c0.005-0.613,0.13-1.218,0.375-1.785
					c0.233-0.563,0.572-1.09,0.984-1.543c1.865-1.771,4.791-1.771,6.656,0c0.412,0.463,0.746,0.979,0.984,1.543
					c0.241,0.567,0.371,1.172,0.375,1.785c0.023,2.563-2.035,4.664-4.598,4.688H38.709z"/>
				<path clip-path="url(#SVGID_6_)" fill="#FFF27D" d="M259.021,245.997c12.945,0,23.438-4.5,23.438-10.049
					c0-5.548-10.492-10.043-23.438-10.043"/>
				<path clip-path="url(#SVGID_6_)" fill="#6D6DAA" d="M90.271,254.03c-0.313-0.01-0.627-0.041-0.938-0.092
					c-0.295-0.055-0.581-0.15-0.842-0.283c-0.3-0.11-0.582-0.248-0.844-0.422c-0.233-0.188-0.47-0.375-0.703-0.563
					c-0.858-0.893-1.341-2.083-1.359-3.328c0.005-0.613,0.13-1.218,0.375-1.785c0.224-0.572,0.558-1.09,0.984-1.543
					c0.22-0.201,0.456-0.389,0.703-0.563c0.263-0.179,0.544-0.32,0.844-0.426c0.261-0.133,0.547-0.234,0.842-0.279
					c1.543-0.284,3.126,0.191,4.267,1.268c0.421,0.453,0.76,0.971,0.984,1.543c0.263,0.559,0.389,1.172,0.375,1.785
					c0.023,2.563-2.035,4.664-4.598,4.688H90.271z"/>
				<path clip-path="url(#SVGID_6_)" fill="#89DBBA" d="M64.49,230.592c6.473,0,11.719,8.396,11.719,18.75
					s-5.246,18.75-11.719,18.75s-11.719-8.396-11.719-18.75S58.018,230.592,64.49,230.592"/>
				<path clip-path="url(#SVGID_6_)" fill="#FFC661" d="M212.146,217.198v13.395c0,5.548,10.492,10.043,23.438,10.043
					s23.438-4.495,23.438-10.043v-13.395"/>
				<path clip-path="url(#SVGID_6_)" fill="#FFF27D" d="M212.146,217.198v13.395c0,5.548,10.492,10.043,23.438,10.043v-23.438
					H212.146z"/>
				<path clip-path="url(#SVGID_6_)" fill="#FFF27D" d="M235.584,207.155c12.945,0,23.438,4.495,23.438,10.043
					c0,5.549-10.492,10.049-23.438,10.049s-23.438-4.5-23.438-10.049C212.146,211.65,222.639,207.155,235.584,207.155"/>
				<path clip-path="url(#SVGID_6_)" fill="#5A5A9B" d="M118.396,169.655H10.584c-2.586,0-4.688,2.097-4.688,4.688v107.813
					c0,2.591,2.101,4.688,4.688,4.688h107.813c2.586,0,4.688-2.097,4.688-4.688V174.342
					C123.084,171.751,120.983,169.655,118.396,169.655z M113.709,197.78H15.271v-4.688h98.438V197.78z M15.271,207.155h98.438v4.688
					H15.271V207.155z M113.709,179.03v4.688H15.271v-4.688H113.709z M113.709,277.467H15.271v-56.25h98.438V277.467z"/>
				<path clip-path="url(#SVGID_6_)" fill="#5A5A9B" d="M104.332,235.28c-2.582-0.005-4.684-2.102-4.688-4.688
					c0-2.591-2.095-4.688-4.688-4.688H34.02c-2.587,0-4.688,2.097-4.688,4.688c0,2.586-2.099,4.683-4.688,4.688
					c-2.587,0-4.688,2.097-4.688,4.688v18.75c0,2.591,2.101,4.688,4.688,4.688c2.588,0.005,4.688,2.102,4.688,4.688
					c0,2.591,2.101,4.688,4.688,4.688h60.938c2.593,0,4.688-2.097,4.688-4.688c0.004-2.586,2.105-4.683,4.688-4.688
					c2.593,0,4.688-2.097,4.688-4.688v-18.75C109.02,237.376,106.925,235.28,104.332,235.28z M71.521,249.342
					c0,8.047-3.712,14.063-7.031,14.063s-7.031-6.016-7.031-14.063s3.712-14.063,7.031-14.063S71.521,241.295,71.521,249.342z
					 M29.332,254.831v-10.981c3.998-1.429,7.147-4.568,8.573-8.569H51.28c-2.015,3.892-3.196,8.743-3.196,14.063
					s1.181,10.171,3.196,14.063H37.905C36.479,259.404,33.33,256.264,29.332,254.831z M99.645,254.835
					c-3.999,1.429-7.148,4.568-8.569,8.569H77.7c2.015-3.892,3.196-8.743,3.196-14.063s-1.181-10.171-3.196-14.063h13.375
					c1.421,4.001,4.57,7.141,8.569,8.569V254.835z"/>
				<path clip-path="url(#SVGID_6_)" fill="#5A5A9B" d="M287.146,235.948c0-8.583-11.157-13.533-23.438-14.536v-4.209
					c0-0.001,0-0.001,0-0.002v-0.003c0-9.668-14.154-14.73-28.125-14.73s-28.125,5.063-28.125,14.73v0.003c0,0.001,0,0.001,0,0.002
					v26.774c0,0.157,0.014,0.311,0.021,0.466c-0.004,0.071-0.021,0.14-0.021,0.212v13.385c0,0.157,0.014,0.311,0.021,0.466
					c-0.004,0.071-0.021,0.14-0.021,0.212v13.385c0,9.678,14.154,14.74,28.125,14.74s28.125-5.063,28.125-14.74v-13.385
					c0-0.072-0.018-0.141-0.021-0.212c0.008-0.155,0.021-0.309,0.021-0.466v-7.555C275.989,249.483,287.146,244.536,287.146,235.948
					z M216.834,217.247c0.418-1.494,6.782-5.404,18.75-5.404c11.847,0,18.205,3.827,18.74,5.355
					c-0.539,1.529-6.894,5.361-18.74,5.361c-11.968,0-18.327-3.906-18.75-5.292V217.247z M216.834,228.438
					c5.218,2.309,12.003,3.491,18.75,3.491c6.749,0,13.536-1.183,18.754-3.493l0.001,2.102c-0.394,1.492-6.762,5.415-18.755,5.415
					s-18.361-3.928-18.75-5.36V228.438z M216.834,241.833c5.218,2.311,12.003,3.495,18.75,3.495c6.749,0,13.536-1.185,18.754-3.497
					l0.001,2.102c-0.394,1.487-6.762,5.41-18.755,5.41s-18.361-3.923-18.75-5.365V241.833z M235.584,277.467
					c-11.993,0-18.361-3.923-18.75-5.365v-2.817c5.218,2.311,12.003,3.495,18.75,3.495c6.749,0,13.535-1.185,18.754-3.497
					l0.001,2.774C253.945,273.544,247.577,277.467,235.584,277.467z M235.584,263.405c-11.993,0-18.361-3.923-18.75-5.365v-2.817
					c5.218,2.311,12.003,3.495,18.75,3.495c6.749,0,13.535-1.185,18.754-3.497l0.001,2.774
					C253.945,259.482,247.577,263.405,235.584,263.405z M263.709,241.085v-10.274c8.957,0.836,13.729,3.901,14.067,5.082
					C277.438,237.176,272.666,240.25,263.709,241.085z"/>
				<path clip-path="url(#SVGID_6_)" fill="#89DBBA" d="M230.896,132.155c23.301,0,42.188,10.49,42.188,23.438
					c0-69.9-56.662-126.563-126.563-126.563S19.959,85.692,19.959,155.592c0-12.948,18.885-23.438,42.188-23.438
					s42.188,10.49,42.188,23.438c0-12.948,18.885-23.438,42.188-23.438c23.301,0,42.188,10.49,42.188,23.438
					C188.709,142.645,207.596,132.155,230.896,132.155"/>
				<g opacity="0.5" clip-path="url(#SVGID_6_)" enable-background="new    ">
					<g>
						<defs>
							<rect id="SVGID_21_" x="123.363" y="29.03" width="23.158" height="106.981"/>
						</defs>
						<clipPath id="SVGID_22_">
							<use xlink:href="#SVGID_21_"  overflow="visible"/>
						</clipPath>
						<path clip-path="url(#SVGID_22_)" fill="#FFFFFF" d="M123.363,136.014c5.246-1.865,10.702-3.046,16.246-3.516
							c0.606-58.866,3.47-103.468,6.91-103.468C134.81,29.03,125.107,75.408,123.363,136.014"/>
					</g>
				</g>
				<g opacity="0.5" clip-path="url(#SVGID_6_)" enable-background="new    ">
					<g>
						<defs>
							<rect id="SVGID_23_" x="44.889" y="29.03" width="101.633" height="105.189"/>
						</defs>
						<clipPath id="SVGID_24_">
							<use xlink:href="#SVGID_23_"  overflow="visible"/>
						</clipPath>
						<path clip-path="url(#SVGID_24_)" fill="#FFFFFF" d="M62.146,132.155c2.063,0,4.079,0.107,6.061,0.272
							c6.862-58.825,39.29-103.397,78.314-103.397c-51.013,0-93.352,45.474-101.635,105.188
							C50.535,132.834,56.328,132.141,62.146,132.155"/>
					</g>
				</g>
				<g opacity="0.2" clip-path="url(#SVGID_6_)" enable-background="new    ">
					<g>
						<defs>
							<rect id="SVGID_25_" x="146.521" y="29.03" width="126.563" height="126.563"/>
						</defs>
						<clipPath id="SVGID_26_">
							<use xlink:href="#SVGID_25_"  overflow="visible"/>
						</clipPath>
						<path clip-path="url(#SVGID_26_)" fill="#2C4B75" d="M146.521,29.03c45.95,0,84.15,44.639,92.176,103.542
							c19.564,2.03,34.387,11.561,34.387,23.021C273.084,85.692,216.422,29.03,146.521,29.03"/>
					</g>
				</g>
				<g opacity="0.2" clip-path="url(#SVGID_6_)" enable-background="new    ">
					<g>
						<defs>
							<rect id="SVGID_27_" x="19.959" y="118.092" width="253.125" height="37.5"/>
						</defs>
						<clipPath id="SVGID_28_">
							<use xlink:href="#SVGID_27_"  overflow="visible"/>
						</clipPath>
						<path clip-path="url(#SVGID_28_)" fill="#2C4B75" d="M230.896,118.092c-23.301,0-42.188,10.49-42.188,23.438
							c0-12.948-18.887-23.438-42.188-23.438c-23.303,0-42.188,10.49-42.188,23.438c0-12.948-18.885-23.438-42.188-23.438
							c-19.215,0-35.399,7.139-40.496,16.903c-1.119,6.812-1.687,13.697-1.691,20.597c0-12.948,18.885-23.438,42.188-23.438
							s42.188,10.49,42.188,23.438c0-12.948,18.885-23.438,42.188-23.438c23.301,0,42.188,10.49,42.188,23.438
							c0-12.948,18.887-23.438,42.188-23.438s42.188,10.49,42.188,23.438c-0.005-6.9-0.572-13.786-1.693-20.597
							C266.295,125.231,250.113,118.092,230.896,118.092"/>
					</g>
				</g>
				<path clip-path="url(#SVGID_6_)" fill="#D6B5B0" d="M137.146,254.03c0,15.527,12.596,28.125,28.125,28.125
					c15.527,0,28.125-12.598,28.125-28.125c0-5.173-4.202-9.375-9.375-9.375s-9.375,4.202-9.375,9.375s-4.202,9.375-9.375,9.375
					s-9.375-4.202-9.375-9.375v-28.125h-18.75V254.03z"/>
				<g opacity="0.5" clip-path="url(#SVGID_6_)" enable-background="new    ">
					<g>
						<defs>
							<rect id="SVGID_29_" x="137.146" y="225.905" width="18.75" height="14.063"/>
						</defs>
						<clipPath id="SVGID_30_">
							<use xlink:href="#SVGID_29_"  overflow="visible"/>
						</clipPath>
						<rect x="137.146" y="225.905" clip-path="url(#SVGID_30_)" fill="#FFFFFF" width="18.75" height="14.063"/>
					</g>
				</g>
				<path clip-path="url(#SVGID_6_)" fill="#5A5A9B" d="M151.209,24.435V10.28c0-2.593-2.102-4.688-4.688-4.688
					c-2.586,0-4.688,2.094-4.688,4.688v14.155C71.52,26.904,15.271,84.675,15.271,155.592c0,2.591,2.101,4.688,4.688,4.688
					s4.688-2.097,4.688-4.688c0-8.874,15.404-18.75,37.5-18.75s37.5,9.876,37.5,18.75c0,2.591,2.101,4.688,4.688,4.688
					s4.688-2.097,4.688-4.688c0-8.231,13.258-17.319,32.813-18.593v84.218h-4.688c-2.586,0-4.688,2.097-4.688,4.688v28.125
					c0.019,18.109,14.701,32.794,32.813,32.813c18.109-0.019,32.794-14.703,32.813-32.813c0-7.769-6.294-14.063-14.063-14.063
					s-14.063,6.294-14.063,14.063c0,2.591-2.102,4.688-4.688,4.688s-4.688-2.097-4.688-4.688v-28.125
					c0-2.591-2.102-4.688-4.688-4.688h-4.688V137c19.554,1.274,32.813,10.361,32.813,18.593c0,2.591,2.102,4.688,4.688,4.688
					s4.688-2.097,4.688-4.688c0-8.874,15.404-18.75,37.5-18.75s37.5,9.876,37.5,18.75c0,2.591,2.102,4.688,4.688,4.688
					s4.688-2.097,4.688-4.688C277.771,84.675,221.523,26.904,151.209,24.435z M99.975,138.813
					c-8.46-6.92-22.116-11.346-37.828-11.346c-12.792-0.417-25.41,3.085-36.159,10.036C33.884,84.89,74.996,43.531,127.478,35.23
					C113.524,51.776,102.024,86.922,99.975,138.813z M165.271,268.092c7.769,0,14.063-6.294,14.063-14.063
					c0-2.591,2.102-4.688,4.688-4.688s4.688,2.097,4.688,4.688c0,12.945-10.492,23.438-23.438,23.438s-23.438-10.492-23.438-23.438
					v-23.438h9.375v23.438C151.209,261.798,157.503,268.092,165.271,268.092z M183.525,138.139
					c-4.084-3.136-9.276-5.709-15.245-7.548c-6.964-2.32-14.329-3.395-21.759-3.124c-7.425-0.271-14.788,0.802-21.75,3.121
					c-5.978,1.84-11.179,4.418-15.266,7.56c-0.03,0.02-0.061,0.039-0.09,0.059c2.863-62.391,20.835-104.489,37.106-104.489
					c16.27,0,34.24,42.098,37.106,104.489C183.594,138.184,183.56,138.163,183.525,138.139z M230.896,127.467
					c-15.713,0-29.367,4.426-37.828,11.347c-2.052-51.946-13.574-87.113-27.548-103.638c51.158,8.056,93.438,48.393,101.534,102.327
					C256.307,130.553,243.687,127.051,230.896,127.467z"/>
			</g>
		</g>
	</g>
</g>
</svg>
