<?xml version="1.0" encoding="utf-8"?>
<!DOCTYPE svg PUBLIC "-//W3C//DTD SVG 1.1//EN" "http://www.w3.org/Graphics/SVG/1.1/DTD/svg11.dtd">
<svg version="1.1" id="Layer_1" xmlns="http://www.w3.org/2000/svg" xmlns:xlink="http://www.w3.org/1999/xlink" x="0px" y="0px"
	 viewBox="0 0 1800 1950" enable-background="new 0 0 1800 1950" xml:space="preserve">
<g>
	<path fill="#E5F1F9" stroke="#E5F1F9" stroke-width="0.2" d="M291.52,51.6c7.87-7.6,18.4-12.93,29.5-12.88
		c13.64-0.52,26.52,6.95,35.02,17.26c12.91,15.43,18.2,36.15,17.39,56c-0.48,10.88-3.2,22.37-10.96,30.44
		c-5.82,6.28-14.04,9.63-22.26,11.43c-11.54,2.31-23.5,2.27-35.09,0.38c-9.9-1.83-19.96-5.97-26.18-14.23
		c-8.52-10.97-9.57-25.7-8.71-39.06C271.6,82.81,278.31,64.46,291.52,51.6z"/>
	<path stroke="#000000" stroke-width="0.2" d="M305.12,154.23c11.59,1.89,23.55,1.93,35.09-0.38c0.1,131.04,0,262.09,0.05,393.13
		c0.15,7.06-4.69,13.81-11.3,16.18c-6.62,2.55-14.71,0.67-19.39-4.7c-3.39-3.57-4.82-8.62-4.59-13.46
		C305.1,414.74,304.83,284.48,305.12,154.23z"/>
</g>
<g>
	<path stroke="#000000" stroke-width="0.2" d="M1595.98,84.97c37.12-2.29,74.97-1.02,110.99,9c2.66,0.57,4.98,2.45,7.8301,2.19
		c0.2699,0.49,0.8099,1.49,1.08,1.99c-0.24,0.4-0.72,1.2-0.97,1.61c0.75,0.06,2.25,0.18,3,0.24c-1.7201,1.55-3.64,3.47-2.8,6.04
		c0.8,2.3-0.71,5.06,0.8201,7.04c-0.1901,0.42-0.5701,1.25-0.76,1.66c0.35,0.1,1.0499,0.3,1.3999,0.4l0.9,0.36
		c-1.6599,2.4-1.83,5.22-1.8199,8.03c-0.8101,0.82-1.63,1.61-2.4601,2.36c0.4301,0.59,1.3101,1.77,1.7401,2.36
		c-0.0701,1.91-0.27,3.81-0.7301,5.66c0.8401-0.03,2.51-0.08,3.3501-0.11c-0.77,1.4-1.67,2.69-2.7001,3.9
		c0.84-0.17,2.51-0.5,3.35-0.66c-0.9299,1.65-2.48,2.46-4.2799,2.72c0.7999-0.1,2.4199-0.29,3.22-0.38c-0.36,3.58-2.08,6.79-3,10.23
		c0.9299,0.45,1.88,0.91,2.83,1.4c0.78,2.48,1.4401,5.01,2.16,7.52c-1.12-0.25-2.22-0.49-3.3-0.73c-0.5,4.22,5.1001,2.29,7.65,2.49
		c-1.2,1.48-2.9199,2.03-5.1799,1.66c1.2699,0.95,2.59,1.86,3.9299,2.77c-2.26-1.07-3.54,1.04-3.76,2.84l-1.27-0.14
		c0.24,0.88,0.5,1.76,0.78,2.65c-1.48,0.73-2.8199,1.66-3.9,2.88c1.74-0.91,3.4401-1.9,5.2001-2.82c0.86,2.36-0.9301,3.48-2.92,3.67
		c0.72,1.6,1.74,3.31,0.79,5.05c1.2999,0.51,2.15,1.36,2.5499,2.57c-0.6499-0.01-1.96-0.04-2.62-0.06
		c0.4701,0.12,1.41,0.36,1.88,0.48c-0.09,0.88-0.26,2.64-0.35,3.52c-0.73-0.56-2.2-1.68-2.9399-2.24
		c-0.6901,0.09-2.0701,0.26-2.77,0.34c2.03,1.28,4.33,2.05,6.63,2.77c-1.0701,1.14-2.1,2.28-3.12,3.42
		c-1.17-0.22-2.3101-0.35-3.4501-0.37c2.39,0.83,4.67,1.96,6.9601,3.08c-1.41,0.94-2.7001,2.03-3.89,3.2
		c0.74,0.07,2.2,0.2,2.9399,0.26c1.13,2.95,1.9601,6.07,0.87,9.18c0.01,0.69,0.0601,1.38,0.17,2.07c-0.58-0.04-1.72-0.13-2.29-0.17
		c1.3,1.47,2.0901,3.27,0.66,4.96c1.05,0.39,2.15,0.77,3.24,1.21c1.42,1.41,2.62,3.11,4.52,3.99c-1.48-0.34-2.9301-0.68-4.39-0.89
		c-0.5699-0.08-1.7-0.24-2.27-0.32c-0.0499,1.32-0.09,2.64-0.11,3.96c0.65,0.09,1.96,0.28,2.61,0.38c-0.2,1.5-0.37,3-0.53,4.5
		c0.62-0.09,1.87-0.28,2.5-0.38c-0.3999,0.19-1.21,0.57-1.61,0.76c3.3401,1.67-0.9399,4.57-3.08,3.81l0.5699,1.15
		c0.51,0.19,1.52,0.56,2.03,0.75c-0.6899,2.35-0.2,4.95-2.61,6.43c1.51,0.39,2.9,1.02,3.13,2.77c-1.54,0.48-3.09,0.96-4.58,1.46
		c1.1799,0.4,2.38,0.8,3.61,1.19c-1.0801,0.74-2.1901,1.49-3.2201,2.25c0.4,0.53,1.2101,1.6,1.6101,2.13
		c-0.74,1.04-1.3401,2.18-1.16,3.51c-1.42,0.05-2.84,0.18-3.8201,1.27c1.53-0.46,6.6101-0.89,3.4401,1.62
		c0.04,0.73,0.12,2.2,0.16,2.93c-1.5601,0.25-2.8401-0.57-4.2001-1.02c0.8,1.99,2.75,2.48,4.75,2.6c0.0901,1.3-0.48,2.09-1.73,2.39
		c0.23,0.53,0.7,1.6,0.9301,2.13c-0.61-0.06-1.8301-0.19-2.4401-0.26c3.04,0.55,3.1,3.93,3.78,6.33c0.49,2.08-0.87,3.39-1.9,5.04
		c-0.1799,0.53-0.5499,1.58-0.73,2.11c0.55,0.39,1.64,1.17,2.1899,1.56c-1.6,2.31-3.72,5-2.3099,7.95c0.58,0.06,1.73,0.19,2.3,0.26
		c-1.8101,0.03-4.05-0.01-4.8301,1.97c-10.2,1.63-20.16,4.45-30.35,6.1c-54.11,9.42-110.54,8.37-163.5-6.92
		c-0.02-28.86,0.42-57.71,0.24-86.56c0.4401-34.96-0.16-69.93,0.6-104.88c-3.45,0.29-6.89,0.48-10.3199,0.71
		c4.27-0.7,8.65-0.44,12.9299-1.18C1547.61,89.73,1571.75,86.56,1595.98,84.97 M1714.0601,161.11c1.2,0.97,2.3799,2.02,1.21,3.59
		c0.85,0.27,2.5499,0.8,3.4,1.07c-0.5-1.27-0.9601-2.54-1.67-3.68l-0.86,1.77c0.11-0.79,0.24-1.56,0.4-2.34
		C1715.92,161.42,1714.6801,161.21,1714.0601,161.11 M1713.1801,246.15C1713.4,249.41,1716.1899,244.62,1713.1801,246.15z"/>
	<path stroke="#000000" stroke-width="0.2" d="M1716.09,95.63c0.0701-1.88,4.98,0.33,3.05,1.5
		C1717.88,97.07,1716.86,96.57,1716.09,95.63z"/>
	<path fill="#D1D2D4" stroke="#D1D2D4" stroke-width="0.2" d="M1331.01,107.1c59.9399-4.07,119.9299-7.51,179.89-11.25
		c3.4299-0.23,6.87-0.42,10.3199-0.71c-0.76,34.95-0.1599,69.92-0.6,104.88c0.1801,28.85-0.26,57.7-0.24,86.56
		c-59.75-4-119.51-7.68-179.26-11.67c-3.6899-0.29-7.37-0.54-11.05-0.76c-4.4299-25.45-6.35-51.31-6.2599-77.13
		C1323.49,166.92,1325.99,136.78,1331.01,107.1 M1440.91,114.31c-11.92,1.02-23.91,0.67-35.87,0.98
		c-14.29,1.35-28.6901,0.23-42.99,1.51c-4.7001,0.29-9.4801-0.24-14.1101,0.77c52.65,5.22,105.3101,10.12,157.9601,15.27
		c0.4199-6.59,0.33-13.24,0.08-19.84c-8.6799-0.21-17.36,0.24-26.03,0.21C1466.97,114.3,1453.92,113.92,1440.91,114.31z"/>
	<path fill="#8A4D23" stroke="#8A4D23" stroke-width="0.2" d="M508.96,158.39c274.02-17.07,548.04-34.16,822.05-51.29
		c-5.02,29.68-7.52,59.82-7.2,89.92c-0.0901,25.82,1.83,51.68,6.2599,77.13c3.6801,0.22,7.3601,0.47,11.05,0.76
		c-6.11,0.19-12.12-1.09-18.21-1.28c-272.4701-17.08-544.96-34.08-817.4301-51.21c-6.77-7.03-12.4-15.63-13.93-25.42
		c-2.25-13.31,2.99-26.87,11.3-37.13C504.23,157.93,506.95,158.79,508.96,158.39z"/>
	<path fill="#E1E2E3" stroke="#E1E2E3" stroke-width="0.2" d="M1440.91,114.31c13.01-0.39,26.0599-0.01,39.0399-1.1
		c8.67,0.03,17.3501-0.42,26.03-0.21c0.25,6.6,0.34,13.25-0.08,19.84c-52.65-5.15-105.3101-10.05-157.9601-15.27
		c4.63-1.01,9.41-0.48,14.1101-0.77c14.2999-1.28,28.7-0.16,42.99-1.51C1417,114.98,1428.99,115.33,1440.91,114.31z"/>
	<path opacity="0.53" stroke="#000000" stroke-width="0.2" enable-background="new    " d="M1715.9301,113.08
		c1.73-1.2,2.47,1.71,0.6399,2.06c-0.35-0.1-1.0499-0.3-1.3999-0.4C1715.36,114.33,1715.74,113.5,1715.9301,113.08z"/>
	<path opacity="0.57" stroke="#000000" stroke-width="0.2" enable-background="new    " d="M1716.97,151.01
		c1.5701,1.09,1.51,3.72,4.05,3.11l0.13,0.84c-0.54,0.03-1.62,0.09-2.16,0.12c0.4,1.21,0.8,2.42,1.25,3.63
		c1.0601,0.52,2.13,1.04,3.24,1.58c-2.5499-0.2-8.15,1.73-7.65-2.49c1.0801,0.24,2.1801,0.48,3.3,0.73
		C1718.41,156.02,1717.75,153.49,1716.97,151.01z"/>
	<path opacity="0.44" stroke="#000000" stroke-width="0.2" enable-background="new    " d="M1718.97,195.82
		c2.28,0.01,1.42,2.61,1.8301,4.11c0.7999,0.02,2.3999,0.06,3.2,0.07l0.0601,0.96c-0.8701,0.06-2.6001,0.19-3.4601,0.25
		c0.67,0.27,2,0.8,2.67,1.07l-0.27,0.81c-0.1801,0.44-0.54,1.33-0.73,1.77c-0.6,0.04-1.8201,0.1-2.4301,0.14
		C1720.9301,201.89,1720.1,198.77,1718.97,195.82z"/>
	<path opacity="0.43" stroke="#000000" stroke-width="0.2" enable-background="new    " d="M1723,203.09
		c2.21-1.45,4.15,2.86,1.14,2.55c-0.47-0.19-1.4-0.58-1.87-0.78C1722.46,204.42,1722.8199,203.53,1723,203.09z"/>
	<path opacity="0.57" stroke="#000000" stroke-width="0.2" enable-background="new    " d="M1720.01,207.07
		c-0.11-0.69-0.16-1.38-0.17-2.07c0.61-0.04,1.8301-0.1,2.4301-0.14c0.47,0.2,1.4,0.59,1.87,0.78c-1.9501,0.43-3.17,1.97-4.42,3.36
		c0.3301,1.49,1.55,2.3,2.99,2.65c-0.27,0.35-0.8199,1.06-1.09,1.42c-1.09-0.44-2.1899-0.82-3.24-1.21
		c1.4301-1.69,0.64-3.49-0.66-4.96C1718.29,206.94,1719.4301,207.03,1720.01,207.07z"/>
	<path opacity="0.56" stroke="#000000" stroke-width="0.2" enable-background="new    " d="M1719.48,215.85
		c0.5701,0.08,1.7001,0.24,2.27,0.32c-0.11,0.4-0.3101,1.21-0.41,1.61c1.0601,0.64,2.13,1.29,3,2.24c-0.59,0.04-1.77,0.13-2.36,0.17
		c-0.65-0.1-1.96-0.29-2.61-0.38C1719.39,218.49,1719.4301,217.17,1719.48,215.85z"/>
	<path opacity="0.88" stroke="#000000" stroke-width="0.2" enable-background="new    " d="M1725.12,218.16
		C1725.6899,218.75,1725.6899,218.75,1725.12,218.16z"/>
	<path opacity="0.67" stroke="#000000" stroke-width="0.2" enable-background="new    " d="M1713.1801,246.15
		C1716.1899,244.62,1713.4,249.41,1713.1801,246.15z"/>
	<path stroke="#000000" stroke-width="0.2" d="M1720.39,261.95c1.1,0.84,2.24,1.63,3.4299,2.41
		c-0.5099,0.12-1.5099,0.36-2.0199,0.48c0.1799,0.57,0.5299,1.7,0.7,2.27c-0.6801-0.57-1.35-1.12-2.02-1.64
		c0.09-0.39,0.29-1.17,0.39-1.56C1720.75,263.42,1720.51,262.44,1720.39,261.95z"/>
	<path opacity="0.5" stroke="#000000" stroke-width="0.2" enable-background="new    " d="M1719.51,268.51l0.78-0.73
		c0.35,1.59,0.7,3.19,1.0399,4.79c-0.49,0.55-1.47,1.65-1.96,2.2c-0.4399-0.31-1.3199-0.91-1.76-1.22
		C1718.64,271.9,1720,270.59,1719.51,268.51z"/>
</g>
<g>
	<path stroke="#000000" stroke-width="0.2" d="M1653.61,477.52c22.22-3.84,45.2001-6.48,67.52-1.88c3.9,0.67,7.6,2.19,11.5,2.88
		c-0.96,1.88-1.97,3.98-1.17,6.12c1.3401,3.2-1.5599,6.57,0.24,9.68c0.9601,1.8-0.45,3.67-0.34,5.54c0.75,1.3,1.51,2.6,1.84,4.11
		c-0.4099,0.09-1.22,0.26-1.62,0.35c-0.1699,3.01,0.0601,6.06,1.1001,8.93l0.3099,0.96c-0.52,0.12-1.5599,0.36-2.08,0.47
		l1.7999,0.09c-0.4099,2.23-0.5,4.65,1.03,6.52c-0.29,0.85-0.38,1.75-0.3099,2.65l0.0099,1.14c0.4401,0.82,0.9,1.64,1.3701,2.47
		c-0.4501,0.81-0.88,1.63-1.29,2.46c0.25,0.46,0.75,1.37,1.01,1.83c-2,3.7599,0.11,9.5099-3.11,12.48
		c1.49,1.66,2.01,3.82,2.0699,6.02c-1.64,1.44-1.0599,3.8-1.3,5.72c-2.45,1.41-5.2699,1.79-7.98,2.31
		c-23.25,5.07-47.86,5.08-70.76-1.74c0.1901-26.26,0.3201-52.53,0.17-78.8L1653.61,477.52z"/>
	<path fill="#939598" stroke="#939598" stroke-width="0.2" d="M1605.96,479c15.86-1,31.77-0.76,47.66-1.17
		c0.15,26.27,0.02,52.54-0.17,78.8c-9.8199,0.08-19.6-0.75-29.4099-0.65c-15.7001-0.05-31.37-1.04-47.0601-1.07
		c-14-0.06-27.98-1.04-41.98-0.99c-14.01-0.03-27.99-1.04-42-0.99c-12.96-0.06-25.89-0.78-38.83-1.07
		c-4.6901-0.57-9.4401,0.05-14.1001-0.69c-3.11-4.88-4.35-10.7-5.73-16.25c-3.45-17.46-1.11-36.09,6.67-52.11
		c8.05-0.58,16.14,0.02,24.1899-0.69c21.5701-0.85,43.1801-0.95,64.76-1.58c11.65-0.65,23.3501-0.26,35-0.73
		C1578.61,479.21,1592.29,479.02,1605.96,479 M1448.24,486.91c-8.35,17.91-11.04,40.25-1.1799,58.12
		c0.9199,2.18,5.1399,0.11,3.72-1.94c-9.3401-16.61-6.78-37.38,1.0599-54.03C1450.71,488.2,1449.51,487.47,1448.24,486.91z"/>
	<path fill="#A97B50" stroke="#A97B50" stroke-width="0.2" d="M1418.08,483.25c15.7101-0.03,31.39-1.47,47.12-1.13
		c-8.0499,0.71-16.1399,0.11-24.1899,0.69c-7.78,16.02-10.12,34.65-6.67,52.11c1.38,5.55,2.62,11.37,5.73,16.25
		c4.66,0.74,9.41,0.12,14.1001,0.69c-11.74,0.28-23.4501-0.88-35.1801-0.86c-298.01-6.81-596.01-13.68-894.02-20.5
		c-4.3-0.26-8.91,0.51-12.87-1.56c-4.69-2.18-10.1-4.45-12.47-9.38c-1.78-4.71,2.16-8.93,5.81-11.29c3.3-1.99,6.68-4.52,10.71-4.42
		C816.8,497.04,1117.4399,490.11,1418.08,483.25z"/>
	<path fill="#A7A9AC" stroke="#A7A9AC" stroke-width="0.2" d="M1448.24,486.91c1.27,0.56,2.47,1.29,3.6,2.15
		c-7.84,16.65-10.4,37.42-1.0599,54.03c1.4199,2.05-2.8,4.12-3.72,1.94C1437.2,527.16,1439.89,504.82,1448.24,486.91z"/>
	<path opacity="0.6" stroke="#000000" stroke-width="0.2" enable-background="new    " d="M1731.58,504.32
		c0.4-0.09,1.2101-0.26,1.62-0.35l1.1101-0.2c-0.88,3.08-1.92,6.21-1.63,9.48C1731.64,510.38,1731.41,507.33,1731.58,504.32z"/>
	<path opacity="0.5" stroke="#000000" stroke-width="0.2" enable-background="new    " d="M1733.74,521.29
		c2.8101-0.77,2.24,3.43-0.3099,2.65C1733.36,523.04,1733.45,522.14,1733.74,521.29z"/>
</g>
<g>
	<path fill="#E5F1F9" stroke="#E5F1F9" stroke-width="0.2" d="M99.44,46.21c10.54-8.13,25.12-10.83,37.76-6.46
		c11.67,3.97,21.05,12.93,27.36,23.33c9.49,15.79,13.06,34.81,11.15,53.03c-1.01,9.87-4.6,19.91-12.01,26.79
		c-5.73,5.29-13.18,8.32-20.73,9.93c-11.51,2.33-23.45,2.29-35.03,0.47c-10.84-1.94-21.77-6.95-27.91-16.49
		c-7.95-12.35-8.13-27.84-6.58-41.96C75.89,76.32,84.19,57.64,99.44,46.21z"/>
	<path stroke="#000000" stroke-width="0.2" d="M107.94,153.3c11.58,1.82,23.52,1.86,35.03-0.47c0.07,125.74,0.01,251.47,0.03,377.21
		c-11.54-2.29-23.54-2.23-35.15-0.4c-0.23-120.54-0.04-241.07-0.1-361.61C107.82,163.12,107.56,158.2,107.94,153.3z"/>
	<path fill="#E5F1F9" stroke="#E5F1F9" stroke-width="0.2" d="M107.85,529.64c11.61-1.83,23.61-1.89,35.15,0.4
		c8.98,1.94,17.87,5.94,23.76,13.23c7.9,9.66,9.63,22.72,9.46,34.81c-0.56,19.38-6.88,39.37-20.77,53.36
		c-9.08,9.36-22.33,15.22-35.49,13.53c-12.52-1.34-23.63-8.96-31.21-18.7599c-11.46-14.72-16.5-33.76-16.01-52.25
		c0.07-11.52,2.75-23.82,10.88-32.44C89.9,534.71,98.93,531.33,107.85,529.64z"/>
</g>
<g>
	<path stroke="#000000" stroke-width="0.2" d="M1314.75,677.01c111.74-0.02,223.47-0.01,335.2-0.01
		c36.2101,0.12,72.4401-0.23,108.65,0.17c-0.23,107.25-0.03,214.51-0.1,321.76c0.05,89.31-0.1,178.6201,0.08,267.93
		c-54.1699,0.3201-108.35,0.05-162.5299,0.14c-93.76,0-187.53,0.01-281.29-0.01C1314.74,1070.33,1314.75,873.67,1314.75,677.01
		 M1321.03,685.12c-0.03,191.26-0.1,382.53,0.0399,573.79c143.7101-0.1,287.42-0.02,431.13-0.04c0.3-78.62,0.05-157.26,0.13-235.9
		c-0.0699-112.61,0.14-225.23-0.1-337.85C1608.49,685.13,1464.76,685.14,1321.03,685.12z"/>
	<path fill="#58585A" stroke="#58585A" stroke-width="0.2" d="M1321.03,685.12c143.73,0.02,287.46,0.01,431.2,0
		c0.24,112.62,0.03,225.24,0.1,337.85c-0.08,78.64,0.17,157.28-0.13,235.9c-143.71,0.02-287.4199-0.0599-431.13,0.04
		C1320.9301,1067.65,1321,876.38,1321.03,685.12 M1581.55,702.64c-15.49,1.67-27.5801,16.1-28.1801,31.38
		c-0.01,8.33-0.88,17.1,2.78,24.89c4.59,11.1,15.6899,19.53,27.87,19.75c41.65,0.02,83.29,0,124.9399,0.01
		c13.5601-0.01,25.6801-10.29,29.54-23.02c2.21-6.32,1.53-13.07,1.65-19.64c-0.03-11.58-6.1-23.26-16.1801-29.2
		c-5.0599-3.19-11.0699-4.46-16.99-4.47c-31.99-0.02-63.99,0-95.98-0.01C1601.1801,702.51,1591.34,701.95,1581.55,702.64
		 M1360.55,703.67c-6.8301,0.66-13.1801,3.98-18.14,8.63c-7.29,7.17-10.87,17.57-10.4301,27.7c-0.35,8.01,0.5801,16.35,4.72,23.38
		c5.1901,9.45,15.4501,16.16,26.3401,16.29c39.6499,0,79.3099,0,118.97,0c4.55,0.02,9.21,0.26,13.62-1.15
		c10.21-2.91,18.27-11.43,21.52-21.42c2.23-6.13,1.87-12.71,1.87-19.11c0.14-11.36-5.27-22.93-14.84-29.27
		c-5.6001-3.89-12.4601-5.47-19.2101-5.39c-32,0-64,0-96,0C1379.49,703.5,1370,702.95,1360.55,703.67 M1577.41,795.57
		c-10.2101,2.7-18.52,10.92-22,20.8c-2.78,6.88-2.01,14.4-2.0801,21.65c0.14,10.41,5.3,20.7,13.7201,26.87
		c5.4099,4.1,12.24,6.05,18.98,6.12c41-0.06,82.01,0.05,123.01-0.05c16.73-0.34,30.6-15.57,31.0699-31.98
		c-0.09-7.36,0.77-14.97-1.85-22.02c-3.21-9.4901-10.7-17.62-20.3101-20.76c-4.7799-1.84-9.96-1.6-14.97-1.57
		c-37.35,0.01-74.7,0.01-112.0499,0.01C1586.41,794.67,1581.8,794.32,1577.41,795.57 M1356.4301,796.53
		c-7.5601,1.96-14.2101,6.92-18.4801,13.42c-4.85,6.99-6.35,15.74-5.97,24.1c-0.36,8.08,1.25,16.44,5.79,23.26
		c5.58,8.87,15.74,14.61,26.24,14.69c41.02,0,82.04,0,123.05,0c7.8199-0.18,15.6599-3.21,21.2599-8.74
		c7.1101-6.69,10.89-16.56,10.7001-26.26c-0.0801-4.98,0.33-10.03-0.85-14.91c-2.15-10.72-9.75-20.38-19.99-24.39
		c-4.51-1.86-9.4301-2.19-14.2301-2.08c-37.97,0.03-75.9399,0.01-113.8999,0.01C1365.5,795.66,1360.87,795.37,1356.4301,796.53
		 M1578.4399,888.53c-11.2,2.5-20.25,11.6-23.5499,22.47c-2.12,6.12-1.48,12.66-1.58,19.01c-0.16,10.98,5.12,22.04,14.1699,28.38
		c5.36,3.83,11.96,5.83,18.55,5.75c40.65-0.02,81.3099-0.01,121.96-0.01c9.34,0.05,18.5601-4.42,24.34-11.75
		c5.53-6.76,8.26-15.64,7.8201-24.34c0.2-7.11,0.0399-14.46-3.12-20.99c-4.65-10.58-15.24-18.74-26.97-19.18
		c-40.3401-0.01-80.6901,0.01-121.03,0C1585.49,887.88,1581.89,887.6,1578.4399,888.53 M1357.42,889.49
		c-13.99,3.05-24.36,16.35-25.28,30.44c-0.22,7.38-0.73,15.01,1.62,22.15c4.17,14.1,18.5,24.45,33.3099,23.07
		c39.9501-0.04,79.9-0.02,119.8501-0.01c8.6499,0.07,17.1799-3.87,22.9399-10.3c6.79-7.08,9.66-17.2,9.15-26.86
		c0.33-7.51-0.46-15.33-4.22-21.99c-5.1001-9.86-15.5701-17.03-26.8-17.13c-39.66,0.03-79.3099,0-118.97,0.01
		C1365.15,888.91,1361.21,888.57,1357.42,889.49 M1579.42,981.52c-14.36,2.57-25.12,16.1-25.99,30.4
		c-0.1901,9.09-0.9701,18.72,3.4299,27.06c4.8101,9.96,14.9301,17.62,26.16,18.14c42.33,0.02,84.66,0,127,0.01
		c12.03-0.42,22.88-8.91,27.34-19.92c3.22-6.96,2.83-14.73,2.79-22.2c0.22-13.33-7.86-26.74-20.38-31.79
		c-5.5701-2.45-11.74-2.47-17.6901-2.35c-33.01,0.01-66.01,0-99.01,0C1595.1899,981.12,1587.23,980.25,1579.42,981.52
		 M1358.46,982.46c-10.52,1.91-19.5,9.68-23.52,19.49c-3.62,8.22-3.1899,17.43-2.6899,26.19c1.36,14.9,13.4399,28.78,28.74,29.96
		c42.6801,0.0801,85.37,0,128.05,0.04c11.47-0.41,21.7899-8.3101,26.5399-18.55c3.53-7,3.63-14.97,3.4401-22.62
		c0.38-12.16-5.84-24.47-16.4-30.7c-5.26-3.21-11.5-4.59-17.63-4.29c-32.97,0.05-65.9399,0.01-98.91,0.02
		C1376.88,982.26,1367.61,981.44,1358.46,982.46 M1579.37,1073.49c-12.7,1.89-23.03,12.38-26.02,24.6801
		c-1.62,6.14-0.88,12.5399-1.01,18.8099c0.14,16.4,13.89,32.24,30.74,32.36c41.62,0.05,83.24,0.02,124.86,0.02
		c13.77-0.01,26.05-10.5499,29.6901-23.5699c2.1-6.39,1.4-13.1801,1.5-19.78c-0.24-11.75-6.77-23.33-17.14-29.04
		c-4.5599-2.61-9.8199-3.83-15.03-3.97c-33.35,0-66.6899,0-100.0299,0C1597.75,1073.26,1588.5,1072.4301,1579.37,1073.49
		 M1357.4399,1074.63c-10.72,1.99-19.8799,9.97-23.7899,20.0699c-3.36,8.04-2.8201,16.9301-2.4501,25.4401
		c1.3201,15.28,14.01,29.52,29.75,30.1799c41.37,0.1101,82.7301-0.0099,124.1001,0.0601c12.5599,0.71,24.4399-7.53,29.5599-18.78
		c2.9301-6.09,3.6801-12.97,3.41-19.65c0.37-8.2999-1.3301-16.9299-6.1801-23.8099c-5.8099-8.89-16.3099-14.29-26.89-14.15
		c-38,0.02-76,0-113.99,0.01C1366.4399,1074.02,1361.88,1073.73,1357.4399,1074.63 M1580.45,1165.64
		c-11.09,1.6799-20.58,9.86-24.61,20.22c-3.24,7.28-2.46,15.38-2.51,23.12c0.28,11.61,6.7301,23.0801,17.01,28.71
		c5.04,2.8701,10.89,4.05,16.67,3.9901c37.35-0.02,74.7-0.01,112.05-0.01c5.6-0.04,11.2999,0.33,16.7899-1.03
		c9.99-2.55,18.17-10.34,21.8301-19.9c3.2799-7.8199,2.4299-16.4399,2.36-24.6899c-1.03-15.5601-14.02-30.0801-29.99-30.67
		c-32.01-0.12-64.03-0.02-96.04-0.05C1602.8199,1165.52,1591.6,1164.9301,1580.45,1165.64 M1359.52,1166.62
		c-11.59,1.67-21.48,10.45-25.3101,21.4c-2.77,7.37-2.34,15.36-2.1,23.09c0.8201,11.75,7.6901,23.2001,18.46,28.35
		c5.3301,2.8401,11.4901,3.3401,17.4301,3.2201c39.7-0.05,79.4,0.0299,119.1-0.03c13.27,0.08,25.49-9.3101,29.7101-21.72
		c2.74-6.9901,2.2-14.5901,2.1799-21.9301c-0.33-8.3199-3.63-16.5-9.23-22.67c-5.8101-6.23-14.1801-10.1599-22.76-10.01
		c-31.35,0.03-62.7,0-94.05,0.01C1381.8,1166.51,1370.63,1165.96,1359.52,1166.62z"/>
	<path stroke="#000000" stroke-width="0.2" d="M1581.55,702.64c9.7899-0.69,19.63-0.13,29.45-0.31c31.99,0.01,63.99-0.01,95.98,0.01
		c5.92,0.0099,11.9301,1.28,16.99,4.47c10.0801,5.94,16.15,17.62,16.1801,29.2c-0.12,6.57,0.5599,13.32-1.65,19.64
		c-3.86,12.73-15.98,23.0099-29.54,23.02c-41.6499-0.01-83.2899,0.01-124.9399-0.01c-12.1801-0.22-23.28-8.65-27.87-19.75
		c-3.66-7.79-2.79-16.56-2.78-24.89C1553.97,718.74,1566.0601,704.31,1581.55,702.64 M1579.49,705.56
		c-10.16,2.15-18.5,10.26-21.85,19.96c-2.48,6.55-1.4301,13.65-1.64,20.49c-0.12,15.05,12.58,29.81,28.01,29.99
		c41.99,0,83.99,0.02,125.98-0.02c15-0.49,26.8201-14.53,27.6-29.03c0-6.71,0.7001-13.62-1.4-20.12
		c-2.6799-9.1-9.6-16.98-18.62-20.17c-4.61-1.91-9.6799-1.66-14.5399-1.66c-31.37,0.01-62.73,0-94.0901,0
		C1599.13,705.27,1589.24,704.38,1579.49,705.56z"/>
	<path stroke="#000000" stroke-width="0.2" d="M1360.55,703.67c9.45-0.72,18.9399-0.17,28.4199-0.34c32,0,64,0,96,0
		c6.75-0.08,13.61,1.5,19.2101,5.39c9.5699,6.34,14.98,17.91,14.84,29.27c0,6.4,0.36,12.98-1.87,19.11
		c-3.25,9.9901-11.3101,18.51-21.52,21.42c-4.41,1.41-9.0699,1.17-13.62,1.15c-39.66,0-79.3201,0-118.97,0
		c-10.89-0.13-21.15-6.84-26.3401-16.29c-4.1399-7.03-5.0699-15.37-4.72-23.38c-0.4399-10.13,3.14-20.53,10.4301-27.7
		C1347.37,707.65,1353.72,704.33,1360.55,703.67 M1358.38,706.58c-12.86,2.69-22.5,14.69-23.61,27.59
		c-0.52,8.49-0.8301,17.47,2.85,25.38c4,8.51,11.89,15.4,21.26,17.15c3.34,0.49,6.75,0.25,10.13,0.3
		c39.99-0.01,79.99,0.03,119.98-0.02c14.62-0.6,26.27-14.03,27.3201-28.19c0.2599-7.99,0.86-16.37-2.3601-23.9
		c-4.2799-10.79-15.13-19.06-26.9399-18.85c-34.3101-0.09-68.62-0.02-102.9301-0.04C1375.52,706.24,1366.88,705.42,1358.38,706.58z"
		/>
	<path fill="#80D4F7" stroke="#80D4F7" stroke-width="0.2" d="M1579.49,705.56c9.75-1.18,19.64-0.29,29.45-0.56
		c31.3601,0,62.7201,0.01,94.0901,0c4.86,0,9.9299-0.25,14.5399,1.66c9.02,3.19,15.9401,11.07,18.62,20.17
		c2.1001,6.5,1.4,13.41,1.4,20.12c-0.7799,14.5-12.6,28.54-27.6,29.03C1668,776.02,1626,776,1584.01,776
		c-15.4301-0.18-28.13-14.94-28.01-29.99c0.21-6.84-0.84-13.94,1.64-20.49C1560.99,715.82,1569.33,707.71,1579.49,705.56z"/>
	<path fill="#F496BF" stroke="#F496BF" stroke-width="0.2" d="M1358.38,706.58c8.5-1.16,17.14-0.34,25.7-0.58
		c34.3101,0.02,68.62-0.05,102.9301,0.04c11.8099-0.21,22.66,8.06,26.9399,18.85c3.2201,7.53,2.62,15.91,2.3601,23.9
		c-1.05,14.16-12.7001,27.59-27.3201,28.19c-39.99,0.05-79.99,0.01-119.98,0.02c-3.38-0.05-6.79,0.19-10.13-0.3
		c-9.37-1.75-17.26-8.64-21.26-17.15c-3.6801-7.91-3.37-16.89-2.85-25.38C1335.88,721.27,1345.52,709.27,1358.38,706.58z"/>
	<path stroke="#000000" stroke-width="0.2" d="M1577.41,795.57c4.39-1.25,9-0.9,13.52-0.93c37.35,0,74.7,0,112.0499-0.01
		c5.01-0.03,10.1901-0.27,14.97,1.57c9.6101,3.14,17.1001,11.27,20.3101,20.76c2.62,7.05,1.76,14.66,1.85,22.02
		c-0.47,16.41-14.34,31.64-31.0699,31.98c-41,0.1-82.01-0.01-123.01,0.05c-6.74-0.07-13.5701-2.02-18.98-6.12
		c-8.42-6.17-13.5801-16.46-13.7201-26.87c0.0701-7.25-0.7-14.77,2.0801-21.65C1558.89,806.49,1567.2,798.27,1577.41,795.57
		 M1579.52,797.68c-13.67,2.93-23.9401,16.43-23.53,30.32c0.24,6.75-0.87,13.82,1.8101,20.23c3.96,11.35,15,19.96,27.1499,20.23
		c39.6901,0.08,79.39-0.01,119.0901,0.04c5.5699,0.12,11.34-0.47,16.39-3.02c7.96-3.85,13.71-11.44,16.0199-19.89
		c1.8401-6.35,1.2001-13.02,1.15-19.54c-0.89-14.46-12.74-28.03-27.5499-28.86c-34.67-0.11-69.3401-0.02-104-0.05
		C1597.21,797.43,1588.29,796.52,1579.52,797.68z"/>
	<path stroke="#000000" stroke-width="0.2" d="M1356.4301,796.53c4.4399-1.16,9.0699-0.8701,13.62-0.9
		c37.96,0,75.9299,0.02,113.8999-0.01c4.8-0.11,9.7201,0.22,14.2301,2.08c10.24,4.01,17.84,13.67,19.99,24.39
		c1.1799,4.8799,0.7699,9.93,0.85,14.91c0.1899,9.7-3.59,19.57-10.7001,26.26c-5.6,5.53-13.4399,8.56-21.2599,8.74
		c-41.01,0-82.03,0-123.05,0c-10.5-0.08-20.66-5.82-26.24-14.69c-4.54-6.82-6.15-15.18-5.79-23.26c-0.38-8.36,1.12-17.11,5.97-24.1
		C1342.22,803.45,1348.87,798.49,1356.4301,796.53 M1362.17,798.23c-10.8301,0.69-20.5701,8.25-24.7301,18.14
		c-3.4399,7.36-3.0299,15.69-2.7699,23.61c0.6799,10.4,6.4399,20.63,15.7,25.7c5.26,3.16,11.55,3.96,17.6,3.77
		c39.67-0.02,79.35-0.01,119.03-0.01c10.34-0.1,20.14-6.26,25.11-15.25c3.8201-6.35,4.65-13.94,4.34-21.2
		c0.49-9.22-2.1699-18.96-8.7899-25.62c-5.4701-5.95-13.53-9.49-21.63-9.2C1444.75,798.23,1403.46,798.11,1362.17,798.23z"/>
	<path fill="#23A7CF" stroke="#23A7CF" stroke-width="0.2" d="M1579.52,797.68c8.77-1.16,17.6899-0.25,26.53-0.54
		c34.6599,0.03,69.33-0.06,104,0.05c14.8099,0.83,26.6599,14.4,27.5499,28.86c0.05,6.52,0.6901,13.19-1.15,19.54
		c-2.3099,8.45-8.0599,16.04-16.0199,19.89c-5.05,2.55-10.8201,3.14-16.39,3.02c-39.7001-0.05-79.4,0.04-119.0901-0.04
		c-12.1499-0.27-23.1899-8.88-27.1499-20.23c-2.6801-6.41-1.5701-13.48-1.8101-20.23C1555.58,814.11,1565.85,800.61,1579.52,797.68z
		"/>
	<path fill="#F8B9D4" stroke="#F8B9D4" stroke-width="0.2" d="M1362.17,798.23c41.2899-0.12,82.58,0,123.86-0.06
		c8.1-0.29,16.1599,3.25,21.63,9.2c6.62,6.66,9.2799,16.4,8.7899,25.62c0.3101,7.26-0.5199,14.85-4.34,21.2
		c-4.97,8.99-14.77,15.15-25.11,15.25c-39.6801,0-79.36-0.01-119.03,0.01c-6.0499,0.19-12.34-0.61-17.6-3.77
		c-9.26-5.07-15.02-15.3-15.7-25.7c-0.26-7.92-0.67-16.25,2.7699-23.61C1341.6,806.48,1351.34,798.92,1362.17,798.23z"/>
	<path stroke="#000000" stroke-width="0.2" d="M1578.4399,888.53c3.4501-0.9301,7.05-0.65,10.5901-0.66
		c40.34,0.01,80.6899-0.01,121.03,0c11.73,0.44,22.3199,8.6,26.97,19.18c3.1599,6.53,3.3199,13.88,3.12,20.99
		c0.4399,8.7-2.29,17.58-7.8201,24.34c-5.7799,7.33-15,11.8-24.34,11.75c-40.65,0-81.3099-0.01-121.96,0.01
		c-6.5901,0.08-13.1901-1.92-18.55-5.75c-9.0499-6.34-14.33-17.4-14.1699-28.38c0.1-6.35-0.54-12.89,1.58-19.01
		C1558.1899,900.13,1567.24,891.03,1578.4399,888.53 M1580.59,890.67c-13.1599,2.15-23.3199,14.22-24.51,27.26
		c-0.1899,4.37-0.0499,8.74-0.09,13.11c-0.24,8.16,3.46,16.05,9,21.91c5.48,5.57,13.1901,8.65,20.97,8.76
		c38.3401,0.0099,76.6801,0,115.02,0.0099c4.39-0.02,8.87,0.27,13.17-0.87c9.62-2.08,17.65-9.48,21.16-18.59
		c3.11-7.38,2.49-15.56,2.2699-23.37c-1.0399-14.71-13.47-28.31-28.58-28.61c-33,0.0099-66,0-99,0
		C1600.2,890.52,1590.34,889.79,1580.59,890.67z"/>
	<path stroke="#000000" stroke-width="0.2" d="M1357.42,889.49c3.7899-0.92,7.73-0.58,11.6-0.62
		c39.66-0.01,79.3099,0.02,118.97-0.01c11.23,0.1,21.7,7.27,26.8,17.13c3.76,6.66,4.5499,14.48,4.22,21.99
		c0.51,9.66-2.36,19.78-9.15,26.86c-5.76,6.43-14.29,10.37-22.9399,10.3c-39.9501-0.01-79.9-0.03-119.8501,0.01
		c-14.8099,1.38-29.1399-8.97-33.3099-23.07c-2.35-7.14-1.84-14.77-1.62-22.15C1333.0601,905.84,1343.4301,892.54,1357.42,889.49
		 M1361.27,891.48c-8.97,0.95-17.1,6.49-21.79,14.11c-4.04,6.33-5.21,14.03-4.91,21.42c-0.2699,6.92,0.75,14.09,4.28,20.15
		c4.86,9.19,14.85,15.32,25.25,15.45c40.97,0.01,81.9401,0.01,122.91,0c10.61-0.13,20.6899-6.6,25.52-16
		c4.71-8.35,4.14-18.28,3.6599-27.51c-1.3099-14.27-13.47-27.3-28.12-27.71C1445.8,891.44,1403.53,891.26,1361.27,891.48z"/>
	<path fill="#5192AD" stroke="#5192AD" stroke-width="0.2" d="M1580.59,890.67c9.75-0.88,19.61-0.15,29.41-0.39c33,0,66,0.0099,99,0
		c15.11,0.3,27.54,13.9,28.58,28.61c0.2201,7.81,0.8401,15.99-2.2699,23.37c-3.51,9.11-11.54,16.51-21.16,18.59
		c-4.3,1.14-8.78,0.85-13.17,0.87c-38.34-0.0099-76.6799,0-115.02-0.0099c-7.7799-0.11-15.49-3.19-20.97-8.76
		c-5.54-5.86-9.24-13.75-9-21.91c0.04-4.37-0.1-8.74,0.09-13.11C1557.27,904.89,1567.4301,892.82,1580.59,890.67z"/>
	<path fill="#FAD5E5" stroke="#FAD5E5" stroke-width="0.2" d="M1361.27,891.48c42.26-0.22,84.53-0.04,126.7999-0.09
		c14.65,0.41,26.8101,13.44,28.12,27.71c0.4801,9.23,1.05,19.16-3.6599,27.51c-4.8301,9.4-14.91,15.87-25.52,16
		c-40.97,0.01-81.9401,0.01-122.91,0c-10.4-0.13-20.39-6.26-25.25-15.45c-3.53-6.06-4.5499-13.23-4.28-20.15
		c-0.2999-7.39,0.87-15.09,4.91-21.42C1344.17,897.97,1352.3,892.43,1361.27,891.48z"/>
	<path stroke="#000000" stroke-width="0.2" d="M1579.42,981.52c7.8099-1.27,15.7699-0.4,23.6499-0.65c33,0,66,0.01,99.01,0
		c5.9501-0.12,12.12-0.1,17.6901,2.35c12.52,5.05,20.6,18.46,20.38,31.79c0.0399,7.47,0.4299,15.24-2.79,22.2
		c-4.46,11.01-15.3099,19.5-27.34,19.92c-42.34-0.01-84.67,0.01-127-0.01c-11.23-0.52-21.35-8.1801-26.16-18.14
		c-4.4-8.34-3.62-17.97-3.4299-27.06C1554.3,997.62,1565.0601,984.09,1579.42,981.52 M1582.47,983.59
		c-11.0399,1.09-20.62,9.11-24.46,19.39c-2.91,6.62-1.8101,13.98-2.02,20.99c-0.48,15.38,12.36,30.24,27.99,30.74
		c41.65,0.01,83.3-0.01,124.9501,0.01c12.2-0.15,23.09-9.28,26.9099-20.61c2.42-6.7999,1.91-14.09,1.8201-21.16
		c-0.6-8.09-4.03-16.04-10.03-21.57c-5.48-5.28-13.0699-8.06-20.63-8.07c-31.34-0.05-62.6801-0.01-94.03-0.02
		C1602.8,983.46,1592.61,982.91,1582.47,983.59z"/>
	<path stroke="#000000" stroke-width="0.2" d="M1358.46,982.46c9.15-1.02,18.42-0.2,27.62-0.46
		c32.9701-0.01,65.9401,0.03,98.91-0.02c6.13-0.3,12.37,1.08,17.63,4.29c10.5601,6.23,16.78,18.54,16.4,30.7
		c0.1899,7.65,0.09,15.62-3.4401,22.62c-4.75,10.24-15.0699,18.14-26.5399,18.55c-42.6801-0.04-85.37,0.04-128.05-0.04
		c-15.3-1.1799-27.38-15.0599-28.74-29.96c-0.5-8.76-0.9301-17.97,2.6899-26.19C1338.96,992.14,1347.9399,984.37,1358.46,982.46
		 M1360.79,984.08l0.08,0.84c-5.38,0.19-10.54,2.65-14.58,6.12c-2.3101,0.95-4.4501,2.85-5.11,5.32
		c-7.04,8.47-7.2001,20.12-6.51,30.5601c0.76,5.98,2.34,12.62,6.8199,16.8999c-0.6899,1.3,1.28,3.51,2.67,2.9401l0.1,1.13l0.91,0.16
		c-0.8201,1.47,1.6499,3.5199,3.01,2.48c2.9199,2.46,6.7,3.98,10.48,4.5499c0.97,0.6901,2.08,0.99,3.3199,0.89
		c41.98,0.02,83.96-0.03,125.9401,0.02c1.4299-0.16,3.2,0.27,4.35-0.92c3.78-0.48,7.58-2.0499,10.5-4.5199
		c1.37,1.08,3.8199-1.05,3.11-2.5701c1.05-0.34,1.75-1.04,2.09-2.11c1.5,0.8101,3.63-1.7,2.5601-3.0699
		c3.61-4.4501,5.21-10.3,5.87-15.92c0.3199-8.93,0.78-18.48-3.89-26.49c-1.4301-2.09-2.36-5.33-4.9401-6.05
		c0.0801-1.66-2.11-3.36-3.5099-3.76c-3.5701-3.1-8.13-5.05-12.79-5.68c-1.22-0.96-2.79-0.84-4.2001-0.85
		C1444.97,984.1,1402.88,984.02,1360.79,984.08z"/>
	<path fill="#7CC5B8" stroke="#7CC5B8" stroke-width="0.2" d="M1582.47,983.59c10.14-0.6801,20.3301-0.13,30.5-0.3
		c31.35,0.01,62.6901-0.03,94.03,0.02c7.5601,0.01,15.15,2.79,20.63,8.07c6,5.53,9.4301,13.48,10.03,21.57
		c0.09,7.07,0.6,14.36-1.8201,21.16c-3.8199,11.33-14.71,20.46-26.9099,20.61c-41.65-0.02-83.3,0-124.9501-0.01
		c-15.63-0.5-28.47-15.36-27.99-30.74c0.21-7.0099-0.89-14.37,2.02-20.99C1561.85,992.7,1571.4301,984.68,1582.47,983.59z"/>
	<path fill="#625255" stroke="#625255" stroke-width="0.2" d="M1360.79,984.08c42.09-0.06,84.1799,0.02,126.2799-0.03
		c1.41,0.01,2.9801-0.11,4.2001,0.85c-43.47,0.06-86.9401,0.04-130.4,0.02L1360.79,984.08z"/>
	<path fill="#F05D7F" stroke="#F05D7F" stroke-width="0.2" d="M1346.29,991.04c4.0399-3.47,9.2-5.93,14.58-6.12
		c43.46,0.02,86.9301,0.04,130.4-0.02c4.66,0.63,9.22,2.58,12.79,5.68c-0.2401,2.08,1.33,3.92,3.5099,3.76
		c2.5801,0.72,3.51,3.96,4.9401,6.05c4.67,8.01,4.21,17.56,3.89,26.49c-0.66,5.62-2.26,11.47-5.87,15.92
		c-1.25,0.6399-2.3,1.63-2.5601,3.0699c-0.34,1.0699-1.0399,1.77-2.09,2.11c-1.45,0.27-2.48,1.29-3.11,2.5701
		c-2.92,2.47-6.72,4.0399-10.5,4.5199c-44.54,0.04-89.0801-0.0099-133.61,0.01c-3.78-0.5699-7.5601-2.09-10.48-4.5499
		c-0.66-1.1801-1.51-2.49-3.01-2.48l-0.91-0.16l-0.1-1.13c0.1799-1.6801-1.3101-2.55-2.67-2.9401
		c-4.48-4.2799-6.0599-10.9199-6.8199-16.8999c-0.6901-10.4401-0.53-22.09,6.51-30.5601C1342.9,994.6,1344.6,992.83,1346.29,991.04z
		"/>
	<path fill="#F7ABA9" stroke="#F7ABA9" stroke-width="0.2" d="M1504.0601,990.58c1.3999,0.4,3.59,2.1,3.5099,3.76
		C1505.39,994.5,1503.8199,992.66,1504.0601,990.58z"/>
	<path fill="#653F48" stroke="#653F48" stroke-width="0.2" d="M1341.1801,996.36c0.6599-2.47,2.7999-4.37,5.11-5.32
		C1344.6,992.83,1342.9,994.6,1341.1801,996.36z"/>
	<path fill="#6E444E" stroke="#6E444E" stroke-width="0.2" d="M1507.97,1045.87c0.26-1.4399,1.3101-2.4301,2.5601-3.0699
		C1511.6,1044.17,1509.47,1046.6801,1507.97,1045.87z"/>
	<path fill="#AB5D6E" stroke="#AB5D6E" stroke-width="0.2" d="M1341.49,1043.8199c1.36,0.39,2.85,1.26,2.67,2.9401
		C1342.77,1047.33,1340.8,1045.12,1341.49,1043.8199z"/>
	<path fill="#6C434D" stroke="#6C434D" stroke-width="0.2" d="M1345.17,1048.05c1.5-0.01,2.35,1.2999,3.01,2.48
		C1346.8199,1051.5699,1344.35,1049.52,1345.17,1048.05z"/>
	<path fill="#6E444E" stroke="#6E444E" stroke-width="0.2" d="M1502.77,1050.55c0.63-1.28,1.66-2.3,3.11-2.5701
		C1506.59,1049.5,1504.14,1051.63,1502.77,1050.55z"/>
	<path fill="#8F656C" stroke="#8F656C" stroke-width="0.2" d="M1358.66,1055.08c44.5299-0.0199,89.0699,0.03,133.61-0.01
		c-1.15,1.1901-2.92,0.76-4.35,0.92c-41.9801-0.05-83.9601,0-125.9401-0.02C1360.74,1056.0699,1359.63,1055.77,1358.66,1055.08z"/>
	<path stroke="#000000" stroke-width="0.2" d="M1579.37,1073.49c9.13-1.0599,18.38-0.23,27.5601-0.49c33.34,0,66.6799,0,100.0299,0
		c5.2101,0.14,10.4701,1.36,15.03,3.97c10.37,5.7101,16.9,17.29,17.14,29.04c-0.1,6.6,0.6,13.39-1.5,19.78
		c-3.64,13.02-15.92,23.5599-29.6901,23.5699c-41.62,0-83.24,0.03-124.86-0.02c-16.85-0.12-30.6-15.96-30.74-32.36
		c0.13-6.27-0.61-12.6699,1.01-18.8099C1556.34,1085.87,1566.67,1075.38,1579.37,1073.49 M1577.39,1076.48
		c-13.26,3.37-23.13,16.8201-22.4,30.48c0.26,6.51-0.89,13.3101,1.64,19.53c3.8099,11.09,14.36,20.05,26.3099,20.39
		c41.6801,0.03,83.3501,0,125.03,0.02c11.52-0.17,21.9301-8.34,26.1801-18.8301c3.0399-6.99,2.72-14.74,2.5699-22.1799
		c-0.5399-10.0701-5.5499-20.12-14.1799-25.61c-5.67-3.9601-12.77-5.03-19.54-4.85c-38,0.0299-76,0.0099-114,0
		C1585.09,1075.26,1581.1899,1075.6,1577.39,1076.48z"/>
	<path stroke="#000000" stroke-width="0.2" d="M1357.4399,1074.63c4.4401-0.9,9-0.61,13.52-0.63c37.99-0.01,75.99,0.01,113.99-0.01
		c10.5801-0.14,21.0801,5.26,26.89,14.15c4.85,6.88,6.55,15.51,6.1801,23.8099c0.27,6.6801-0.48,13.5601-3.41,19.65
		c-5.12,11.25-17,19.49-29.5599,18.78c-41.37-0.0699-82.7301,0.05-124.1001-0.0601c-15.74-0.6599-28.4299-14.8999-29.75-30.1799
		c-0.37-8.51-0.9099-17.4,2.4501-25.4401C1337.5601,1084.6,1346.72,1076.62,1357.4399,1074.63 M1355.3,1078.2
		c-3.91,0.2301-7.3301,2.8201-10.3101,5.1801c-2.04-1.26-4.87,1.5699-3.67,3.62c-2.22,2.55-4.1599,5.46-5.24,8.7
		c-1.33,2.3101-2.33,4.9301-1.9299,7.65c-1.6,10.79-1.25,23.04,5.5,32.2001c4.22,5.51,10.0599,10.2799,17.0699,11.51
		c1.5901,0.86,3.4401,0.8899,5.24,0.9399c41.67-0.01,83.3501-0.01,125.02,0c1.77-0.0699,3.67-0.05,5.29-0.95
		c5.85-0.99,10.97-4.5701,14.91-8.9c6.1-6.4,8.59-15.5,8.35-24.1801c-0.17-3.5399,0.45-7.1899-0.67-10.61
		c0.36-2.73-0.63-5.34-1.9399-7.66c-1.11-3.24-3.03-6.1899-5.27-8.74c1.2-2.0599-1.62-4.8999-3.65-3.59
		c-2.98-2.36-6.4-4.9399-10.28-5.17c0.38-1.8099-2.83-1.99-3.6599-0.85c-1.6001-0.7899-3.3701-0.84-5.0701-0.87
		c-40.33,0.01-80.66,0.01-120.99,0c-1.72,0.02-3.49,0.09-5.04,0.86C1358.0601,1076.21,1354.8101,1076.37,1355.3,1078.2z"/>
	<path fill="#86C178" stroke="#86C178" stroke-width="0.2" d="M1577.39,1076.48c3.7999-0.88,7.7-1.22,11.61-1.0499
		c38,0.0099,76,0.0299,114,0c6.77-0.1801,13.87,0.8899,19.54,4.85c8.63,5.49,13.64,15.5399,14.1799,25.61
		c0.15,7.4399,0.47,15.1899-2.5699,22.1799c-4.25,10.4901-14.66,18.66-26.1801,18.8301c-41.6799-0.02-83.35,0.01-125.03-0.02
		c-11.95-0.34-22.5-9.3-26.3099-20.39c-2.53-6.22-1.38-13.02-1.64-19.53C1554.26,1093.3,1564.13,1079.85,1577.39,1076.48z"/>
	<path fill="#895C5B" stroke="#895C5B" stroke-width="0.2" d="M1355.3,1078.2c-0.49-1.83,2.76-1.99,3.6599-0.86
		C1357.8101,1077.9301,1356.58,1078.37,1355.3,1078.2z"/>
	<path fill="#F05D67" stroke="#F05D67" stroke-width="0.2" d="M1358.96,1077.34c1.55-0.77,3.3201-0.84,5.04-0.86
		c40.33,0.01,80.66,0.01,120.99,0c1.7,0.03,3.47,0.0801,5.0701,0.87c1.09,0.62,2.33,1.02,3.6599,0.85
		c3.88,0.2301,7.3,2.8101,10.28,5.17c1.1,1.28,2.3199,2.48,3.65,3.59c2.24,2.55,4.16,5.5,5.27,8.74
		c0.46,2.5801,1.09,5.15,1.9399,7.66c1.12,3.42,0.5,7.0701,0.67,10.61c0.24,8.6801-2.25,17.78-8.35,24.1801
		c-3.9401,4.33-9.0601,7.91-14.91,8.9c-45.1901,0.12-90.37,0.1-135.55,0.01c-7.01-1.2301-12.85-6-17.0699-11.51
		c-6.75-9.16-7.1-21.41-5.5-32.2001c0.8199-2.51,1.45-5.0699,1.9299-7.65c1.0801-3.24,3.02-6.1499,5.24-8.7
		c1.3101-1.11,2.54-2.3199,3.67-3.62c2.98-2.36,6.4-4.95,10.3101-5.1801C1356.58,1078.37,1357.8101,1077.9301,1358.96,1077.34z"/>
	<path fill="#895C5B" stroke="#895C5B" stroke-width="0.2" d="M1490.0601,1077.35c0.83-1.14,4.0399-0.96,3.6599,0.85
		C1492.39,1078.37,1491.15,1077.97,1490.0601,1077.35z"/>
	<path fill="#2E2828" stroke="#2E2828" stroke-width="0.2" d="M1341.3199,1087c-1.2-2.05,1.63-4.88,3.67-3.62
		C1343.86,1084.6801,1342.63,1085.89,1341.3199,1087z"/>
	<path fill="#2E2828" stroke="#2E2828" stroke-width="0.2" d="M1504,1083.37c2.03-1.3099,4.85,1.53,3.65,3.59
		C1506.3199,1085.85,1505.1,1084.65,1504,1083.37z"/>
	<path fill="#955B5B" stroke="#955B5B" stroke-width="0.2" d="M1334.15,1103.35c-0.4-2.72,0.6-5.34,1.9299-7.65
		C1335.6,1098.28,1334.97,1100.84,1334.15,1103.35z"/>
	<path fill="#955B5B" stroke="#955B5B" stroke-width="0.2" d="M1512.92,1095.7c1.3099,2.3201,2.2999,4.9301,1.9399,7.66
		C1514.01,1100.85,1513.38,1098.28,1512.92,1095.7z"/>
	<path fill="#BC6968" stroke="#BC6968" stroke-width="0.2" d="M1356.72,1147.0601c45.1801,0.09,90.36,0.11,135.55-0.01
		c-1.62,0.8999-3.52,0.88-5.29,0.95c-41.6699-0.01-83.35-0.01-125.02,0C1360.16,1147.95,1358.3101,1147.92,1356.72,1147.0601z"/>
	<path stroke="#000000" stroke-width="0.2" d="M1580.45,1165.64c11.15-0.71,22.37-0.12,33.5601-0.3101
		c32.01,0.03,64.03-0.0699,96.04,0.05c15.97,0.59,28.96,15.11,29.99,30.67c0.0699,8.25,0.9199,16.87-2.36,24.6899
		c-3.66,9.5601-11.8401,17.35-21.8301,19.9c-5.49,1.36-11.1899,0.99-16.7899,1.03c-37.3501,0-74.7001-0.01-112.05,0.01
		c-5.78,0.0599-11.63-1.12-16.67-3.9901c-10.2799-5.6299-16.73-17.1-17.01-28.71c0.05-7.74-0.73-15.84,2.51-23.12
		C1559.87,1175.5,1569.36,1167.3199,1580.45,1165.64 M1578.53,1168.66c-12.9401,3.2899-22.52,16.0399-22.53,29.3099
		c0.12,7.5901-0.88,15.5701,2.51,22.66c4.36,10.45,14.96,18.4399,26.49,18.35c41.02,0.04,82.04,0.03,123.0601,0
		c7.85,0.16,15.4299-3.5,20.83-9.0699c5.45-5.9301,8.64-13.89,8.74-21.9401c-0.04-6.38,0.51-12.9399-1.72-19.0399
		c-3.5801-11.52-14.55-20.9601-26.89-20.9401c-35.97,0.02-71.9501,0.01-107.9301,0.01
		C1593.58,1168.29,1585.95,1167.3199,1578.53,1168.66z"/>
	<path stroke="#000000" stroke-width="0.2" d="M1359.52,1166.62c11.11-0.66,22.28-0.11,33.4299-0.29
		c31.3501-0.01,62.7001,0.02,94.05-0.01c8.58-0.1499,16.95,3.78,22.76,10.01c5.6,6.17,8.9,14.3501,9.23,22.67
		c0.02,7.34,0.5601,14.9399-2.1799,21.9301c-4.2201,12.4099-16.4401,21.7999-29.7101,21.72c-39.7,0.0599-79.4-0.02-119.1,0.03
		c-5.9399,0.12-12.1-0.38-17.4301-3.2201c-10.7699-5.1499-17.6399-16.6-18.46-28.35c-0.24-7.73-0.67-15.72,2.1-23.09
		C1338.04,1177.0699,1347.9301,1168.29,1359.52,1166.62 M1357.54,1169.59c-7.65,1.85-14.17,7.11-18.27,13.74
		c-3.8101,6.14-5.03,13.54-4.8,20.6801c-0.24,6.5,0.54,13.2,3.47,19.09c4.7001,9.78,14.9601,17.2101,26.05,16.9c41,0,82,0,123,0
		c8.62,0.27,16.91-4.21,22.24-10.84c5.6-6.64,7.71-15.61,7.29-24.15c0.21-6.5601-0.36-13.38-3.4401-19.29
		c-4.6599-9.35-14.3199-16.75-25.0399-16.72c-40.03-0.01-80.0601,0.01-120.0901,0
		C1364.47,1169.03,1360.9399,1168.77,1357.54,1169.59z"/>
	<path fill="#FFF576" stroke="#FFF576" stroke-width="0.2" d="M1578.53,1168.66c7.4199-1.3401,15.0499-0.37,22.5599-0.66
		c35.98,0,71.9601,0.01,107.9301-0.01c12.34-0.02,23.3099,9.42,26.89,20.9401c2.23,6.1,1.6799,12.6599,1.72,19.0399
		c-0.1,8.05-3.29,16.01-8.74,21.9401c-5.4,5.5699-12.98,9.23-20.83,9.0699c-41.02,0.03-82.04,0.04-123.0601,0
		c-11.53,0.09-22.13-7.9-26.49-18.35c-3.39-7.09-2.39-15.0699-2.51-22.66C1556.01,1184.7,1565.59,1171.95,1578.53,1168.66z"/>
	<path fill="#F15D40" stroke="#F15D40" stroke-width="0.2" d="M1357.54,1169.59c3.3999-0.8199,6.9299-0.5599,10.4099-0.59
		c40.03,0.01,80.0601-0.01,120.0901,0c10.72-0.03,20.38,7.37,25.0399,16.72c3.0801,5.91,3.65,12.73,3.4401,19.29
		c0.4199,8.54-1.6901,17.51-7.29,24.15c-5.33,6.63-13.62,11.11-22.24,10.84c-41,0-82,0-123,0c-11.09,0.3101-21.35-7.12-26.05-16.9
		c-2.9299-5.89-3.71-12.59-3.47-19.09c-0.23-7.14,0.99-14.54,4.8-20.6801C1343.37,1176.7,1349.89,1171.4399,1357.54,1169.59z"/>
</g>
<g>
	<path stroke="#000000" stroke-width="0.2" d="M37.51,676.5c353.82,0,707.64,0,1061.47,0c58.63-0.05,117.27,0.09,175.9-0.07
		c0.27,166.84,0.04,333.7,0.12,500.55c-0.12,30.87,0.25,61.76-0.1899,92.62c-110.5901-0.23-221.1801-0.03-331.7701-0.1
		c-301.85,0-603.7,0.01-905.54-0.01C37.51,1071.83,37.49,874.16,37.51,676.5 M54.73,684.74c-0.14,38.74-0.02,77.49-0.06,116.24
		c0.05,153.43-0.1,306.86,0.07,460.29c177.1,0.14,354.19,0.02,531.28,0.0599c223.99-0.0299,447.99,0.0601,671.98-0.0499
		c0-192.1801,0-384.3701,0-576.5601c-58.33-0.12-116.67-0.0099-175-0.05C740.24,684.72,397.48,684.57,54.73,684.74z"/>
	<path fill="#58585A" stroke="#58585A" stroke-width="0.2" d="M54.73,684.74c342.75-0.17,685.51-0.02,1028.27-0.07
		c58.33,0.04,116.67-0.07,175,0.05c0,192.19,0,384.38,0,576.5601c-223.99,0.11-447.99,0.02-671.98,0.0499
		c-177.09-0.0399-354.18,0.0801-531.28-0.0599c-0.17-153.4301-0.02-306.86-0.07-460.29C54.71,762.23,54.59,723.48,54.73,684.74
		 M1119.4301,711.68c-26.04,1.93-50.2101,18.92-61,42.68c-8.8401,18.78-9.1901,41.33-1.14,60.45
		c6.77,16.23,19.5299,29.85,35.2999,37.65c19.0701,9.72,42.41,10.42,62.13,2.14c15.3401-6.35,28.38-18.05,36.38-32.6
		c8.47-15.03,11.1901-33.04,8.05-49.96c-3.39-18.32-13.92-35.27-29.02-46.2C1155.7,715.15,1137.3,709.99,1119.4301,711.68
		 M177.33,712.43c-25.13,2.78-48.01,19.52-58.52,42.47c-6.92,14.84-8.77,31.97-5.1,47.93c4.27,19.31,16.62,36.68,33.54,46.94
		c23.58,14.95,55.68,14.74,79.06-0.51c17.58-11.07,30.19-29.81,33.49-50.35c5.18-28.0699-7.73-58.35-31.49-74.15
		C213.56,714.68,195.06,710.16,177.33,712.43 M364.48,712.62c-24.46,3.19-46.64,19.6-56.96,41.99c-9.14,19.14-9.41,42.27-0.85,61.67
		c6.1,14.1,16.82,26.11,29.97,34.02c24.28,14.92,57.12,13.89,80.44-2.49c14.08-9.58,24.64-24.19,29.35-40.55
		c5.39-18.45,3.38-39.01-5.77-55.95c-7.53-14.23-19.84-25.84-34.45-32.57C393.27,712.79,378.6,710.52,364.48,712.62 M740.5,712.62
		c-20.03,2.71-38.65,14.06-50.28,30.58c-16.43,22.63-18.23,54.75-4.54,79.11c9.35,17.08,25.65,30.21,44.37,35.59
		c25.87,7.8,55.67,0.03,74.3-19.58c20.35-20.32,26.66-52.88,15.86-79.46c-6.4901-16.4-18.95-30.32-34.6-38.46
		C771.86,713.23,755.85,710.33,740.5,712.62 M927.53,712.61c-6.7,0.9-13.25,2.8-19.46,5.47c-26.12,11.15-44.64,38.41-44.45,66.93
		c-0.75,20.4,7.77,40.91,22.61,54.9c14.49,14.46,35.4,22,55.76,20.86c18.5-0.99,36.56-9.09,49.39-22.49
		c13.52-13.76,21.26-32.98,20.99-52.28c0.12-21.61-9.93-43.02-26.62-56.75C969.89,715.78,948.12,709.58,927.53,712.61
		 M549.45,713.61c-24.91,4.36-46.83,22.39-55.86,46.02c-7.28,18.56-6.76,40.14,1.59,58.27c6.16,13.52,16.46,25.13,29.21,32.75
		c16.32,10,36.59,13.13,55.22,8.85c13.79-3.06,26.51-10.35,36.49-20.29c10.64-11.01,18.02-25.23,20.36-40.39
		c2.65-16.57-0.32-34.04-8.67-48.64c-8.2599-14.71-21.69-26.4-37.39-32.57C577.48,712.43,563.12,711.23,549.45,713.61
		 M180.46,899.66c-25.9,1.69-50.01,18.28-61.14,41.67c-8.86,18.2-9.91,40.01-2.63,58.92c9.41,25.67,34.09,44.91,61.32,47.65
		c17.06,1.9,34.79-2.16,49.12-11.66c14.09-9.15,24.89-23.23,30.07-39.2c5.4-16.4,4.83-34.66-1.58-50.7
		c-5.81-14.79-16.62-27.5-30.09-35.88C212.17,902.2,196.11,898.3,180.46,899.66 M1115.41,899.61c-26.77,3.49-50.6,22.91-59.51,48.38
		c-7.0801,19.63-5.5701,42.29,4.4199,60.66c8,14.8199,21.1101,26.89,36.6901,33.36c17.3,7.35,37.41,7.78,55,1.15
		c17.5-6.4301,32.3199-19.78,40.5699-36.4901c7.8501-15.35,9.75-33.5,5.92-50.26c-3.59-15.61-12.38-29.99-24.74-40.19
		C1157.85,902.72,1136.04,896.53,1115.41,899.61 M363.17,900.3c-11.89,1.86-23.28,6.69-32.91,13.9
		c-14.75,10.97-25.17,27.6-28.53,45.68c-2.67,14.79-1.14,30.44,5.06,44.19c6.19,14.09,16.92,26.16,30.2,33.94
		c16,9.58,35.67,12.61,53.86,8.63c25.74-5.3,47.61-25.44,55.21-50.57c4.69-15.27,4.45-32.04-0.91-47.09
		c-5.54-15.76-16.55-29.54-30.77-38.31C399.31,901.12,380.75,897.55,363.17,900.3 M552.41,900.64c-14.8,2.09-28.96,8.73-39.91,18.91
		c-12.61,11.5-20.98,27.49-23.34,44.39c-1.44,12.59-0.44,25.62,4.32,37.46c6.02,15.56,17.48,28.91,31.86,37.33
		c20.14,11.96,46.02,13.4501,67.41,3.9301c21.68-9.23,38.21-29.46,43.01-52.52c3.58-17.06,1.27-35.44-7.09-50.81
		c-7.4-14-19.44-25.46-33.74-32.26C581.78,900.87,566.8,898.51,552.41,900.64 M739.2,900.29c-20.37,3.18-39.16,15.22-50.41,32.51
		c-8.03,12.11-12.5099,26.66-12.18,41.22c-0.39,21.43,9.59,42.62,25.87,56.45c13.83,11.9,32.17,18.4401,50.43,17.8301
		c20.05-0.3501,39.7401-9.39,53.17-24.26c12.27-13.54,19.49-31.6801,19.3-49.9901c0.32-21.91-9.93-43.62-26.81-57.53
		C782.31,902.89,760.11,896.93,739.2,900.29 M926.16,900.3c-12.59,2.02-24.67,7.26-34.62,15.26c-13.1,10.32-22.46,25.23-26.18,41.47
		c-3.73,16.8799-1.83,35.1,6.12,50.54c8.44,16.89,23.63,30.23,41.44,36.4901c19.13,6.84,41.05,5.45,59.1-3.92
		c13.46-6.89,24.72-17.98,31.75-31.38c9.74-18.16,11.28-40.45,4.37-59.84c-5.54-15.73-16.53-29.49-30.74-38.25
		C962.32,901.13,943.75,897.54,926.16,900.3 M1117.39,1085.5699c-24.83,2.8201-47.5,19.2201-58.02,41.88
		c-8.51,17.6901-9.52,38.76-2.85,57.2201c6.3099,17.72,19.58,32.87,36.46,41.23c15.86,8.14,34.7001,10.23,51.97,5.78
		c17.51-4.38,33.3301-15.3501,43.3501-30.39c10.75-15.66,15.0699-35.5601,11.7799-54.26c-3.1-19.42-14.45-37.35-30.62-48.52
		C1154.54,1087.9,1135.54,1083.16,1117.39,1085.5699 M174.45,1086.55c-26.04,4.21-48.98,23.3999-57.53,48.38
		c-8.67,23.72-4.1,51.72,11.78,71.37c13.8,17.6,35.95,28.4299,58.35,28.09c17.86,0.24,35.61-6.54,49.02-18.27
		c16.28-14.0599,26.07-35.5599,25.31-57.12c0.27-25.55-14.37-50.4-36.39-63.17C209.96,1086.76,191.69,1083.77,174.45,1086.55
		 M365.12,1086.22c-16.23,2.25-31.68,10.05-42.98,21.9501c-18.35,18.38-25.48,46.86-18.3,71.7799
		c5.16,19.13,18.48,35.8,35.82,45.3301c18.73,10.4099,42.04,12.02,62.07,4.48c14.07-5.21,26.44-14.8201,34.99-27.14
		c11.86-16.84,16.19-38.74,11.61-58.83c-4.5-20.6801-18.29-39.0801-36.91-49.17C397.44,1086.83,380.93,1084.14,365.12,1086.22
		 M554.43,1086.61c-21.13,2.4301-40.91,14.58-52.64,32.33c-11.18,16.4701-15.25,37.54-11.05,57
		c3.83,18.42,14.96,35.2301,30.5,45.8501c15.74,10.96,35.86,15.48,54.77,12.1599c18.92-3.0599,36.47-13.86,47.7-29.3899
		c11.87-16.01,16.83-36.9401,13.34-56.5601c-2.8-17.26-12.1-33.38-25.51-44.58C595.93,1090.23,574.69,1083.89,554.43,1086.61
		 M741.07,1086.24c-26.19,3.45-49.6,22.12-58.89,46.83c-7.37,18.76-6.58,40.4801,2.06,58.6901c7.48,15.91,20.76,29.05,36.85,36.1799
		c20.2,9.16,44.56,8.6201,64.3-1.5c14.13-7.1699,25.9-18.9399,32.9-33.1699c8.09-15.98,10.02-34.9501,5.4-52.25
		c-4.52-17.6901-15.94-33.46-31.25-43.38C777.49,1087.62,758.82,1083.8101,741.07,1086.24 M928.12,1086.22
		c-26.56,3.48-50.18,22.6-59.34,47.74c-6.64,17.88-6.1801,38.29,1.54,55.76c7.22,16.85,21,30.76,37.74,38.22
		c17.74,8.03,38.66,8.6201,56.87,1.77c14.61-5.47,27.4-15.6899,35.92-28.75c10.6-16,14.69-36.22,10.91-55.0599
		c-3.74-20.3301-16.53-38.75-34.2-49.4501C962.95,1087.3101,945.13,1083.95,928.12,1086.22z"/>
	<path stroke="#000000" stroke-width="0.2" d="M1119.4301,711.68c17.87-1.69,36.2699,3.47,50.7,14.16
		c15.1,10.93,25.63,27.8799,29.02,46.2c3.14,16.92,0.4199,34.93-8.05,49.96c-8,14.55-21.0399,26.25-36.38,32.6
		c-19.72,8.28-43.0599,7.58-62.13-2.14c-15.77-7.8-28.5299-21.42-35.2999-37.65c-8.05-19.12-7.7001-41.67,1.14-60.45
		C1069.22,730.6,1093.39,713.61,1119.4301,711.68 M1115.5,714.55c-16.37,2.47-31.88,10.59-42.88,22.99
		c-12.12,13.34-19.24,31.4-18.58,49.4901c-0.03,19.22,8.63,38.1299,22.59,51.24c13.86,13.24,33.24,20.41,52.38,19.62
		c18-0.87,35.76-8.54,48.21-21.67c16.67-16.33,24.0801-41.39,19.42-64.21c-3.05-15.99-11.85-30.79-24.34-41.21
		C1156.89,717.44,1135.6,711.7,1115.5,714.55z"/>
	<path stroke="#000000" stroke-width="0.2" d="M177.33,712.43c17.73-2.27,36.23,2.25,50.98,12.33
		c23.76,15.8,36.67,46.08,31.49,74.15c-3.3,20.54-15.91,39.28-33.49,50.35c-23.38,15.25-55.48,15.46-79.06,0.51
		c-16.92-10.26-29.27-27.63-33.54-46.94c-3.67-15.96-1.82-33.09,5.1-47.93C129.32,731.95,152.2,715.21,177.33,712.43 M180.61,714.68
		c-21.86,1.7-42.58,13.98-54.44,32.42c-7.57,11.5-11.52,25.1801-11.83,38.91c0.14,17.37,6.39,34.74,18.01,47.73
		c11.78,13.47,28.72,22.45,46.58,24.09c24.81,3,50.51-8.61,65.24-28.72c13.53-18.09,17.77-42.69,10.82-64.2
		c-5.75-18.62-19.51-34.55-37-43.1C206.46,716.23,193.39,713.51,180.61,714.68z"/>
	<path stroke="#000000" stroke-width="0.2" d="M364.48,712.62c14.12-2.1,28.79,0.17,41.73,6.12c14.61,6.73,26.92,18.34,34.45,32.57
		c9.15,16.94,11.16,37.5,5.77,55.95c-4.71,16.36-15.27,30.97-29.35,40.55c-23.32,16.38-56.16,17.41-80.44,2.49
		c-13.15-7.91-23.87-19.92-29.97-34.02c-8.56-19.4-8.29-42.53,0.85-61.67C317.84,732.22,340.02,715.81,364.48,712.62 M361.6,715.68
		c-21.36,3.92-40.4,18.18-50.41,37.42c-9.2,17.32-10.69,38.4901-4.16,56.97c5.92,17.12,18.63,31.76,34.72,40.07
		c19.69,10.48,44.29,10.84,64.31,1.01c19.63-9.28,34.4-28,39.05-49.1801c3.71-16.09,1.46-33.4399-6.1-48.1
		c-7.24-14.36-19.48-26.13-34.1-32.82C391.48,714.87,376.13,712.8,361.6,715.68z"/>
	<path stroke="#000000" stroke-width="0.2" d="M740.5,712.62c15.35-2.29,31.36,0.61,45.11,7.78c15.65,8.14,28.11,22.06,34.6,38.46
		c10.8,26.58,4.49,59.14-15.86,79.46c-18.63,19.61-48.43,27.38-74.3,19.58c-18.72-5.38-35.02-18.51-44.37-35.59
		c-13.69-24.36-11.89-56.48,4.54-79.11C701.85,726.68,720.47,715.33,740.5,712.62 M744.61,714.68c-16.82,1.45-33,9.09-44.79,21.17
		c-13.59,13.62-21.43,32.94-20.71,52.21c0.19,24.26,14.06,47.73,34.92,60.02c20.33,12.42,46.91,13.62,68.25,3.02
		c20.45-9.74,35.64-29.72,39.49-52.04c3.34-17.89-0.65-36.97-10.67-52.13C797.02,725.14,770.47,712.08,744.61,714.68z"/>
	<path stroke="#000000" stroke-width="0.2" d="M927.53,712.61c20.59-3.03,42.36,3.17,58.22,16.64
		c16.69,13.73,26.74,35.14,26.62,56.75c0.27,19.3-7.47,38.52-20.99,52.28c-12.83,13.4-30.89,21.5-49.39,22.49
		c-20.36,1.14-41.27-6.4-55.76-20.86c-14.84-13.99-23.36-34.5-22.61-54.9c-0.19-28.52,18.33-55.78,44.45-66.93
		C914.28,715.41,920.83,713.51,927.53,712.61 M931.53,714.65c-27.15,2.11-51.8101,21.21-61.13,46.72
		c-5.36,14.56-5.94,30.91-1.36,45.75c5.62,19.1,19.68,35.5,37.64,44.08c23.14,11.49,52.36,8.93,73.18-6.37
		c17.89-12.67,29.36-33.91,30.05-55.83c0.73-19.31-6.67-38.9-20.3199-52.63C974.86,720.88,952.8,712.56,931.53,714.65z"/>
	<path stroke="#000000" stroke-width="0.2" d="M549.45,713.61c13.67-2.38,28.03-1.18,40.95,4c15.7,6.17,29.13,17.86,37.39,32.57
		c8.35,14.6,11.32,32.07,8.67,48.64c-2.34,15.16-9.72,29.38-20.36,40.39c-9.98,9.94-22.7,17.23-36.49,20.29
		c-18.63,4.28-38.9,1.15-55.22-8.85c-12.75-7.62-23.05-19.23-29.21-32.75c-8.35-18.13-8.87-39.71-1.59-58.27
		C502.62,736,524.54,717.97,549.45,713.61 M552.61,715.71c-12.62,1.87-24.72,7.12-34.63,15.16c-12.78,10.11-21.79,24.81-25.3,40.7
		c-3.01,14.25-1.83,29.48,3.88,42.94c5.89,14.11,16.43,26.2,29.51,34.08c13.5,8.08,29.7,11.65,45.33,9.71
		c16.08-1.95,31.6-9.37,42.7599-21.19c19.35-18.92,25.8701-49.44,16.35-74.72c-6.51-17.97-20.49-33.1-37.92-40.95
		C580.19,715.67,566.12,713.87,552.61,715.71z"/>
	<path fill="#F7ABA9" stroke="#F7ABA9" stroke-width="0.2" d="M180.61,714.68c12.78-1.17,25.85,1.55,37.38,7.13
		c17.49,8.55,31.25,24.48,37,43.1c6.95,21.51,2.71,46.11-10.82,64.2c-14.73,20.11-40.43,31.72-65.24,28.72
		c-17.86-1.64-34.8-10.62-46.58-24.09c-11.62-12.99-17.87-30.36-18.01-47.73c0.31-13.73,4.26-27.41,11.83-38.91
		C138.03,728.66,158.75,716.38,180.61,714.68z"/>
	<path fill="#B0B69B" stroke="#B0B69B" stroke-width="0.2" d="M744.61,714.68c25.86-2.6,52.41,10.46,66.49,32.25
		c10.02,15.16,14.01,34.24,10.67,52.13c-3.85,22.32-19.04,42.3-39.49,52.04c-21.34,10.6-47.92,9.4-68.25-3.02
		c-20.86-12.29-34.73-35.76-34.92-60.02c-0.72-19.27,7.12-38.59,20.71-52.21C711.61,723.77,727.79,716.13,744.61,714.68z"/>
	<path fill="#7BA79B" stroke="#7BA79B" stroke-width="0.2" d="M931.53,714.65c21.27-2.09,43.33,6.23,58.06,21.72
		c13.65,13.73,21.05,33.32,20.3199,52.63c-0.69,21.92-12.16,43.16-30.05,55.83c-20.82,15.3-50.04,17.86-73.18,6.37
		c-17.96-8.58-32.02-24.98-37.64-44.08c-4.58-14.84-4-31.19,1.36-45.75C879.72,735.86,904.38,716.76,931.53,714.65z"/>
	<path fill="#857C85" stroke="#857C85" stroke-width="0.2" d="M1115.5,714.55c20.1-2.85,41.39,2.89,56.8,16.25
		c12.49,10.42,21.2899,25.22,24.34,41.21c4.66,22.82-2.75,47.88-19.42,64.21c-12.45,13.13-30.21,20.8-48.21,21.67
		c-19.14,0.79-38.52-6.38-52.38-19.62c-13.96-13.11-22.62-32.02-22.59-51.24c-0.66-18.09,6.46-36.15,18.58-49.4901
		C1083.62,725.14,1099.13,717.02,1115.5,714.55z"/>
	<path fill="#F9AA8C" stroke="#F9AA8C" stroke-width="0.2" d="M361.6,715.68c14.53-2.88,29.88-0.81,43.31,5.37
		c14.62,6.69,26.86,18.46,34.1,32.82c7.56,14.66,9.81,32.01,6.1,48.1c-4.65,21.1801-19.42,39.9-39.05,49.1801
		c-20.02,9.83-44.62,9.47-64.31-1.01c-16.09-8.31-28.8-22.95-34.72-40.07c-6.53-18.48-5.04-39.65,4.16-56.97
		C321.2,733.86,340.24,719.6,361.6,715.68z"/>
	<path fill="#FDCE9A" stroke="#FDCE9A" stroke-width="0.2" d="M552.61,715.71c13.51-1.84,27.58-0.04,39.98,5.73
		c17.43,7.85,31.41,22.98,37.92,40.95c9.52,25.28,3,55.8-16.35,74.72C603,848.93,587.48,856.35,571.4,858.3
		c-15.63,1.94-31.83-1.63-45.33-9.71c-13.08-7.88-23.62-19.97-29.51-34.08c-5.71-13.46-6.89-28.69-3.88-42.94
		c3.51-15.89,12.52-30.59,25.3-40.7C527.89,722.83,539.99,717.58,552.61,715.71z"/>
	<path stroke="#000000" stroke-width="0.2" d="M180.46,899.66c15.65-1.36,31.71,2.54,45.07,10.8c13.47,8.38,24.28,21.09,30.09,35.88
		c6.41,16.04,6.98,34.3,1.58,50.7c-5.18,15.97-15.98,30.05-30.07,39.2c-14.33,9.5-32.06,13.5601-49.12,11.66
		c-27.23-2.74-51.91-21.98-61.32-47.65c-7.28-18.91-6.23-40.72,2.63-58.92C130.45,917.94,154.56,901.35,180.46,899.66 M176.45,902.6
		c-15.68,2.26-30.68,9.69-41.6,21.23c-13.38,13.38-20.62,32.33-20.54,51.17c0.52,14.63,5.09,29.22,13.85,41.03
		c16.18,22.9099,46.57,34.61,73.91,28.03c18.94-4.14,35.94-16.4301,45.87-33.0801c9.72-15.8,12.77-35.48,8.46-53.49
		c-4.22-18.36-16.06-34.83-32.11-44.7C210.19,903.88,192.94,900.4,176.45,902.6z"/>
	<path stroke="#000000" stroke-width="0.2" d="M1115.41,899.61c20.63-3.08,42.4399,3.11,58.35,16.61
		c12.36,10.2,21.15,24.58,24.74,40.19c3.83,16.76,1.9301,34.91-5.92,50.26c-8.25,16.71-23.0699,30.06-40.5699,36.4901
		c-17.59,6.63-37.7,6.2-55-1.15c-15.58-6.47-28.6901-18.54-36.6901-33.36c-9.99-18.37-11.5-41.03-4.4199-60.66
		C1064.8101,922.52,1088.64,903.1,1115.41,899.61 M1119.55,901.61c-27.9701,2.17-53.38,22.39-61.91,49.09
		c-6.48,18.96-4.3101,40.6,5.61,57.99c8.02,14.34,21.12,25.7401,36.4301,31.7c12.4199,4.92,26.1499,6.1,39.25,3.79
		c16.2599-2.9,31.35-11.7401,41.97-24.3701c11.46-13.4,17.72-31.19,17.03-48.83c-0.53-17.89-8.0701-35.49-20.7401-48.15
		C1162.45,907.63,1140.61,899.55,1119.55,901.61z"/>
	<path stroke="#000000" stroke-width="0.2" d="M363.17,900.3c17.58-2.75,36.14,0.82,51.21,10.37c14.22,8.77,25.23,22.55,30.77,38.31
		c5.36,15.05,5.6,31.82,0.91,47.09c-7.6,25.13-29.47,45.27-55.21,50.57c-18.19,3.98-37.86,0.95-53.86-8.63
		c-13.28-7.78-24.01-19.85-30.2-33.94c-6.2-13.75-7.73-29.4-5.06-44.19c3.36-18.08,13.78-34.71,28.53-45.68
		C339.89,906.99,351.28,902.16,363.17,900.3 M363.7,903.01c-13.5,1.72-26.28,8.04-36.42,17.06c-2.94,0.81-5.38,3.36-6.26,6.27
		c-8.94,10.18-15.3,22.92-17.03,36.42c-1.59,3.21-0.87,6.97-0.86,10.43c0,0.38,0.01,1.14,0.02,1.52c-0.08,3.2-0.64,6.64,0.74,9.66
		c0.22,2.24,0.27,4.68,1.49,6.67c-0.83,1.56,0.01,5.27,1.73,5.64l0.13,1.43c3.63,10.49,10.01,19.96,17.95,27.6801
		c0.94,0.75,1.72,1.9299,3.03,2.0699c-0.61,1.41,1.68,3.35,3.02,2.61c0.58,1.15,1.79,1.78,2.78,2.5701
		c14.12,9.74,31.77,14.33,48.83,12.35c13.11-1.6,26.05-6.51,36.24-15.03c1.37-0.33,3.64-2.08,3.51-3.63l0.94,0.09
		c1.4-1.46,2.84-2.9,4.3-4.2999l-0.08-0.88c1.57-0.03,3.3-2.18,3.62-3.6c8.08-9.78,13.34-22.1,14.65-34.72
		c1.44-2.13,0.75-4.89,0.98-7.29c-0.21-3.79,0.59-7.82-0.89-11.42c-1.37-12.03-6.07-23.88-13.59-33.37
		c1.15-1.38-1.03-3.98-2.55-3.07c-2.35-3.56-5.58-6.82-9.14-9.16c0.81-1.53-1.71-3.67-3.08-2.54c-2.4-2.47-5.54-4.04-8.48-5.74
		c-7.19-3.77-14.93-6.88-23.05-7.72c-2.54-1.59-5.7-0.94-8.52-0.84c-1.78-0.28-3.61-0.3-5.38-0.01
		C369.48,902.13,366.26,901.39,363.7,903.01z"/>
	<path stroke="#000000" stroke-width="0.2" d="M552.41,900.64c14.39-2.13,29.3701,0.23,42.52,6.43c14.3,6.8,26.34,18.26,33.74,32.26
		c8.36,15.37,10.67,33.75,7.09,50.81c-4.8,23.06-21.33,43.29-43.01,52.52c-21.39,9.52-47.27,8.0299-67.41-3.9301
		c-14.38-8.4199-25.84-21.77-31.86-37.33c-4.76-11.84-5.76-24.87-4.32-37.46c2.36-16.9,10.73-32.89,23.34-44.39
		C523.45,909.37,537.61,902.73,552.41,900.64 M549.54,903.74c-20.6,3.86-39.1,17.23-49.29,35.53
		c-12.86,22.41-12.14,51.86,1.99,73.53c13.99,22.59,41.38,36.16,67.83,33.06c23.49-2.02,45.2-16.8199,56.23-37.57
		c12.29-22.41,11.18-51.38-2.94-72.71C608.2,911.33,577.61,898.01,549.54,903.74z"/>
	<path stroke="#000000" stroke-width="0.2" d="M739.2,900.29c20.91-3.36,43.11,2.6,59.37,16.23c16.88,13.91,27.13,35.62,26.81,57.53
		c0.19,18.31-7.03,36.45-19.3,49.9901c-13.43,14.87-33.12,23.9099-53.17,24.26c-18.2599,0.61-36.6-5.9301-50.43-17.8301
		c-16.28-13.83-26.26-35.02-25.87-56.45c-0.33-14.56,4.15-29.11,12.18-41.22C700.04,915.51,718.83,903.47,739.2,900.29
		 M740.49,902.65c-16.12,2.31-31.26,10.41-42.32,22.3199c-9.45,10.27-15.96,23.27-18.21,37.0601c-3.68,21.39,3.02,44.31,17.82,60.24
		c12.68,14.1699,31.22,22.74,50.18,23.58c19.78,0.8,39.92-6.88,53.73-21.15c12.66-12.1,20.03-29.28,21.17-46.6699
		c1.17-20.16-6.51-40.8101-21.07-54.89C786.25,906.93,762.62,899.34,740.49,902.65z"/>
	<path stroke="#000000" stroke-width="0.2" d="M926.16,900.3c17.59-2.76,36.16,0.83,51.2401,10.37
		c14.21,8.76,25.2,22.52,30.74,38.25c6.91,19.39,5.37,41.68-4.37,59.84c-7.03,13.4-18.29,24.49-31.75,31.38
		c-18.05,9.37-39.97,10.76-59.1,3.92c-17.81-6.26-33-19.6001-41.44-36.4901c-7.95-15.44-9.85-33.66-6.12-50.54
		c3.72-16.2401,13.08-31.15,26.18-41.47C901.49,907.56,913.57,902.32,926.16,900.3 M927.63,902.63
		c-20.9,3.01-40.18,15.68-51.05,33.8c-11.4,18.16-13.66,41.57-6.38,61.68c6.25,17.45,19.52,32.28,36.19,40.4
		c16.35,8.05,35.79,9.62,53.15,3.95c17.61-5.4299,32.7401-18.11,41.58-34.23c8.29-15.19,10.96-33.43,6.95-50.3
		c-3.95-18.02-15.4-34.1-30.76-44.21C962.82,904.08,944.83,900.21,927.63,902.63z"/>
	<path fill="#827CA1" stroke="#827CA1" stroke-width="0.2" d="M1119.55,901.61c21.0599-2.06,42.8999,6.02,57.6399,21.22
		c12.67,12.66,20.2101,30.26,20.7401,48.15c0.6899,17.64-5.5701,35.43-17.03,48.83c-10.62,12.6299-25.7101,21.47-41.97,24.3701
		c-13.1001,2.3099-26.8301,1.13-39.25-3.79c-15.3101-5.96-28.41-17.36-36.4301-31.7c-9.92-17.39-12.09-39.03-5.61-57.99
		C1066.17,924,1091.58,903.78,1119.55,901.61z"/>
	<path fill="#F27582" stroke="#F27582" stroke-width="0.2" d="M176.45,902.6c16.49-2.2,33.74,1.28,47.84,10.19
		c16.05,9.87,27.89,26.34,32.11,44.7c4.31,18.01,1.26,37.69-8.46,53.49c-9.93,16.65-26.93,28.9401-45.87,33.0801
		c-27.34,6.58-57.73-5.1201-73.91-28.03c-8.76-11.8101-13.33-26.4-13.85-41.03c-0.08-18.84,7.16-37.79,20.54-51.17
		C145.77,912.29,160.77,904.86,176.45,902.6z"/>
	<path fill="#986D5B" stroke="#986D5B" stroke-width="0.2" d="M363.7,903.01c2.56-1.62,5.78-0.88,8.63-0.85
		C369.48,902.67,366.59,902.97,363.7,903.01z"/>
	<path fill="#F5835B" stroke="#F5835B" stroke-width="0.2" d="M372.33,902.16c1.77-0.29,3.6-0.27,5.38,0.01
		c2.81,0.5,5.66,0.8,8.52,0.84c8.12,0.84,15.86,3.95,23.05,7.72c2.94,1.7,6.08,3.27,8.48,5.74c0.62,1.26,1.69,2.19,3.08,2.54
		c3.56,2.34,6.79,5.6,9.14,9.16c0.36,1.36,1.33,2.38,2.55,3.07c7.52,9.49,12.22,21.34,13.59,33.37c0.21,6.24,0.21,12.47-0.09,18.71
		c-1.31,12.62-6.57,24.94-14.65,34.72c-1.96-0.08-4.15,1.41-3.62,3.6l0.08,0.88c-1.46,1.4-2.9,2.84-4.3,4.2999l-0.94-0.09
		c-2.2-0.58-3.55,1.72-3.51,3.63c-10.19,8.52-23.13,13.4301-36.24,15.03c-17.06,1.98-34.71-2.61-48.83-12.35
		c-0.99-0.79-2.2-1.42-2.78-2.5701c-0.41-1.45-1.44-2.62-3.02-2.61c-1.31-0.14-2.09-1.3199-3.03-2.0699
		c-7.94-7.72-14.32-17.1901-17.95-27.6801l-0.13-1.43c0.16-2.06-0.26-4.13-1.73-5.64c-1.22-1.99-1.27-4.43-1.49-6.67
		c0.12-3.25-0.16-6.48-0.74-9.66c-0.01-0.38-0.02-1.14-0.02-1.52c0.55-3.45,0.89-6.94,0.86-10.43c1.73-13.5,8.09-26.24,17.03-36.42
		c2.03-2.16,4.11-4.25,6.26-6.27c10.14-9.02,22.92-15.34,36.42-17.06C366.59,902.97,369.48,902.67,372.33,902.16z"/>
	<path fill="#946B5A" stroke="#946B5A" stroke-width="0.2" d="M377.71,902.17c2.82-0.1,5.98-0.75,8.52,0.84
		C383.37,902.97,380.52,902.67,377.71,902.17z"/>
	<path fill="#77AE6F" stroke="#77AE6F" stroke-width="0.2" d="M740.49,902.65c22.13-3.31,45.76,4.28,61.3,20.49
		c14.56,14.08,22.2401,34.73,21.07,54.89c-1.14,17.39-8.51,34.5699-21.17,46.6699c-13.81,14.27-33.95,21.9501-53.73,21.15
		c-18.96-0.84-37.5-9.41-50.18-23.58c-14.8-15.93-21.5-38.85-17.82-60.24c2.25-13.79,8.7599-26.79,18.21-37.0601
		C709.23,913.06,724.37,904.96,740.49,902.65z"/>
	<path fill="#6CB2B7" stroke="#6CB2B7" stroke-width="0.2" d="M927.63,902.63c17.2-2.42,35.19,1.45,49.68,11.09
		c15.36,10.11,26.81,26.19,30.76,44.21c4.01,16.87,1.34,35.11-6.95,50.3c-8.84,16.12-23.97,28.8-41.58,34.23
		c-17.36,5.67-36.8,4.1001-53.15-3.95c-16.67-8.12-29.94-22.95-36.19-40.4c-7.28-20.11-5.02-43.52,6.38-61.68
		C887.45,918.31,906.73,905.64,927.63,902.63z"/>
	<path fill="#FFF793" stroke="#FFF793" stroke-width="0.2" d="M549.54,903.74c28.07-5.73,58.66,7.59,73.82,31.84
		c14.12,21.33,15.23,50.3,2.94,72.71c-11.03,20.7501-32.74,35.55-56.23,37.57c-26.45,3.1-53.84-10.47-67.83-33.06
		c-14.13-21.67-14.85-51.12-1.99-73.53C510.44,920.97,528.94,907.6,549.54,903.74z"/>
	<path fill="#725043" stroke="#725043" stroke-width="0.2" d="M417.76,916.47c1.37-1.1299,3.89,1.01,3.08,2.54
		C419.45,918.66,418.38,917.73,417.76,916.47z"/>
	<path fill="#2B2725" stroke="#2B2725" stroke-width="0.2" d="M321.02,926.34c0.88-2.91,3.32-5.46,6.26-6.27
		C325.13,922.09,323.05,924.18,321.02,926.34z"/>
	<path fill="#6D4D41" stroke="#6D4D41" stroke-width="0.2" d="M429.98,928.17c1.52-0.91,3.7,1.69,2.55,3.07
		C431.31,930.55,430.34,929.53,429.98,928.17z"/>
	<path fill="#9C6E5B" stroke="#9C6E5B" stroke-width="0.2" d="M303.13,973.19c-0.01-3.46-0.73-7.22,0.86-10.43
		C304.02,966.25,303.68,969.74,303.13,973.19z"/>
	<path fill="#996F5D" stroke="#996F5D" stroke-width="0.2" d="M446.12,964.61c1.48,3.6,0.68,7.63,0.89,11.42
		c-0.23,2.4,0.46,5.16-0.98,7.29C446.33,977.08,446.33,970.85,446.12,964.61z"/>
	<path fill="#A2725E" stroke="#A2725E" stroke-width="0.2" d="M303.15,974.71c0.58,3.18,0.86,6.41,0.74,9.66
		C302.51,981.35,303.07,977.91,303.15,974.71z"/>
	<path fill="#966957" stroke="#966957" stroke-width="0.2" d="M305.38,991.04c1.47,1.51,1.89,3.58,1.73,5.64
		C305.39,996.31,304.55,992.6,305.38,991.04z"/>
	<path fill="#F7ABA9" stroke="#F7ABA9" stroke-width="0.2" d="M427.76,1021.64c-0.53-2.19,1.66-3.68,3.62-3.6
		C431.06,1019.46,429.33,1021.61,427.76,1021.64z"/>
	<path fill="#F7ABA9" stroke="#F7ABA9" stroke-width="0.2" d="M419.09,1030.36c-0.04-1.91,1.31-4.21,3.51-3.63
		C422.73,1028.28,420.46,1030.03,419.09,1030.36z"/>
	<path fill="#AB6F58" stroke="#AB6F58" stroke-width="0.2" d="M328.22,1027.86c1.58-0.01,2.61,1.16,3.02,2.61
		C329.9,1031.21,327.61,1029.27,328.22,1027.86z"/>
	<path stroke="#000000" stroke-width="0.2" d="M1117.39,1085.5699c18.15-2.4099,37.15,2.3301,52.0699,12.9401
		c16.17,11.17,27.52,29.1,30.62,48.52c3.29,18.7-1.0299,38.6-11.7799,54.26c-10.02,15.0399-25.8401,26.01-43.3501,30.39
		c-17.2699,4.45-36.11,2.36-51.97-5.78c-16.88-8.36-30.15-23.51-36.46-41.23c-6.67-18.4601-5.66-39.53,2.85-57.2201
		C1069.89,1104.79,1092.5601,1088.39,1117.39,1085.5699 M1121.52,1087.61c-13.36,1.01-26.47,5.6901-37.24,13.6901
		c-13.1901,9.6499-23.1,23.7899-27.2101,39.6499c-4.08,15.3401-3,32.01,3.3301,46.62c7.71,18.3501,23.4399,33.17,42.22,39.77
		c12.6,4.4601,26.39,5.4401,39.4401,2.4601c16.12-3.4701,30.8899-12.79,41.0499-25.76c12.66-15.73,18.15-37.0801,14.51-56.9501
		c-3.08-17.3199-12.64-33.51-26.59-44.2899C1157.1801,1091.8199,1139.12,1086.27,1121.52,1087.61z"/>
	<path stroke="#000000" stroke-width="0.2" d="M174.45,1086.55c17.24-2.78,35.51,0.21,50.54,9.2799
		c22.02,12.77,36.66,37.62,36.39,63.17c0.76,21.5601-9.03,43.0601-25.31,57.12c-13.41,11.73-31.16,18.51-49.02,18.27
		c-22.4,0.34-44.55-10.49-58.35-28.09c-15.88-19.65-20.45-47.65-11.78-71.37C125.47,1109.95,148.41,1090.76,174.45,1086.55
		 M176.73,1088.97c-15.75,1.8401-30.49,9.87-41.49,21.17c-0.77,0.95-1.96,1.74-2.1,3.0699c-1.41-0.62-3.41,1.7101-2.59,3.03
		c-1.24,0.48-1.81,1.8-2.61,2.78c-6.37,9.41-10.9,20.29-12.06,31.65c-1.36,2.88-0.72,6.2-0.9,9.2999c0.18,3.1-0.45,6.4301,0.89,9.36
		c1.2,11.36,5.68,22.29,12.13,31.6801c0.78,0.9299,1.32,2.22,2.53,2.73c-0.78,1.3,1.19,3.6,2.59,3.04l0.1,0.88
		c1.96,2.14,4.02,4.1899,6.16,6.15l0.85,0.09c-0.6,1.37,1.71,3.3099,3.01,2.5599c1,1.7001,2.94,2.6001,4.5,3.75
		c8.79,5.53,18.67,9.77,29.07,10.8101c2.78,1.54,6.16,0.76,9.21,0.99c3.73-0.25,7.76,0.65,11.26-0.99
		c11.71-1.42,23.3-6.04,32.48-13.47c1.38,1.11,3.87-1.04,3.08-2.55c3.53-2.36,6.8-5.5699,9.12-9.12c1.52,0.75,3.69-1.71,2.55-3.0699
		c3.24-3.38,5.3-7.7201,7.45-11.8401c1.12-2.71,2.88-5.33,2.92-8.33c1.76-0.3,2.48-4.02,1.79-5.58c1.21-2.03,1.16-4.5,1.37-6.76
		c1.52-2.4601,0.74-5.5701,0.97-8.3c-0.26-4.1,0.66-8.45-0.88-12.35c-1.45-11.76-6.23-23.23-13.57-32.54
		c0.52-1.3199-1.33-3.45-2.69-2.9c-0.23-1.7799-1.97-2.73-3.03-3.98c-1.99-1.73-3.5-4.1699-5.98-5.22c0.78-1.53-1.71-3.66-3.07-2.54
		c-2.59-2.63-5.98-4.28-9.15-6.09c-1.9-0.88-3.72-2.28-5.89-2.29c0.35-1.64-2.8-2.62-3.92-1.63c-4.02-2.3199-8.94-2.99-13.52-3.5
		c-3.16-1.59-6.9-0.74-10.3-0.97C183.61,1088.24,179.87,1087.35,176.73,1088.97z"/>
	<path stroke="#000000" stroke-width="0.2" d="M365.12,1086.22c15.81-2.08,32.32,0.61,46.3,8.4c18.62,10.09,32.41,28.49,36.91,49.17
		c4.58,20.09,0.25,41.99-11.61,58.83c-8.55,12.3199-20.92,21.9301-34.99,27.14c-20.03,7.54-43.34,5.9299-62.07-4.48
		c-17.34-9.53-30.66-26.2001-35.82-45.3301c-7.18-24.9199-0.05-53.3999,18.3-71.7799C333.44,1096.27,348.89,1088.47,365.12,1086.22
		 M366.45,1088.59c-26.58,3.23-50.29,22.52-58.85,47.89c-6.71,19.16-4.77,41.0601,5.3,58.71c8.96,16.0801,24.33,28.4301,41.98,33.67
		c20.29,6.26,43.31,2.8,60.83-9.21c15.03-10.01,25.95-25.91,29.99-43.51c5.36-21.9501-0.85-46.17-15.67-63.14
		C414.65,1094.91,389.98,1085.45,366.45,1088.59z"/>
	<path stroke="#000000" stroke-width="0.2" d="M554.43,1086.61c20.26-2.72,41.5,3.62,57.11,16.8101
		c13.41,11.2,22.71,27.3199,25.51,44.58c3.49,19.62-1.47,40.55-13.34,56.5601c-11.23,15.5299-28.78,26.33-47.7,29.3899
		c-18.91,3.3201-39.03-1.2-54.77-12.1599c-15.54-10.62-26.67-27.4301-30.5-45.8501c-4.2-19.46-0.13-40.5299,11.05-57
		C513.52,1101.1899,533.3,1089.04,554.43,1086.61 M551.4,1089.64c-13.58,2.42-26.52,8.72-36.58,18.2
		c-16.47,15-25.27,38.0701-22.63,60.2101c1.68,17.88,10.71,34.84,24.24,46.58c15.5,13.71,37.16,20.1801,57.62,17
		c18.18-2.6,35.21-12.58,46.36-27.17c12.19-15.46,17.53-36.1899,14.14-55.6c-2.75-17.36-12.3-33.51-26.05-44.4399
		C592.74,1091.64,571.39,1086.05,551.4,1089.64z"/>
	<path stroke="#000000" stroke-width="0.2" d="M741.07,1086.24c17.75-2.4299,36.42,1.38,51.37,11.4
		c15.31,9.92,26.73,25.6899,31.25,43.38c4.62,17.2999,2.69,36.27-5.4,52.25c-7,14.23-18.77,26-32.9,33.1699
		c-19.74,10.1201-44.1,10.66-64.3,1.5c-16.09-7.1299-29.3701-20.2699-36.85-36.1799c-8.64-18.21-9.43-39.9301-2.06-58.6901
		C691.47,1108.36,714.88,1089.6899,741.07,1086.24 M742.37,1088.5c-23.98,3.04-45.79,18.92-55.91,40.89
		c-8.65,18.22-9.07,39.98-1.19,58.54c5.42,12.8199,14.61,24.0099,26.17,31.7599c16.84,11.55,38.79,15.3101,58.5,9.9401
		c18.65-4.77,35.03-17.52,44.44-34.28c8.71-15.4399,11.71-34.1799,7.46-51.45c-3.78-16.77-13.86-32.02-27.8-42.0701
		C779.38,1090.95,760.45,1086.1899,742.37,1088.5z"/>
	<path stroke="#000000" stroke-width="0.2" d="M928.12,1086.22c17.01-2.27,34.83,1.0901,49.44,10.23
		c17.67,10.7001,30.46,29.12,34.2,49.4501c3.78,18.84-0.31,39.0599-10.91,55.0599c-8.52,13.0601-21.31,23.28-35.92,28.75
		c-18.21,6.8501-39.13,6.26-56.87-1.77c-16.74-7.46-30.52-21.37-37.74-38.22c-7.72-17.47-8.18-37.88-1.54-55.76
		C877.94,1108.8199,901.56,1089.7,928.12,1086.22 M929.46,1088.58c-21.73,2.78-41.88,15.9801-52.84,34.9801
		c-10.77,18.0099-12.92,40.8099-5.77,60.5199c5.04,14.14,14.58,26.66,26.9901,35.12c17.77,12.4701,41.4,16.13,62.0699,9.4701
		c17.3701-5.24,32.44-17.52,41.33-33.3101c8.62-15.12,11.57-33.4299,7.76-50.4399c-3.58-16.62-13.19-31.88-26.79-42.11
		C967.41,1091.34,948,1086.21,929.46,1088.58z"/>
	<path fill="#886486" stroke="#886486" stroke-width="0.2" d="M1121.52,1087.61c17.6-1.34,35.66,4.21,49.51,15.1901
		c13.95,10.7799,23.51,26.97,26.59,44.2899c3.64,19.87-1.85,41.2201-14.51,56.9501c-10.16,12.97-24.9299,22.2899-41.0499,25.76
		c-13.05,2.98-26.8401,2-39.4401-2.4601c-18.78-6.6-34.51-21.4199-42.22-39.77c-6.3301-14.61-7.41-31.2799-3.3301-46.62
		c4.1101-15.86,14.02-30,27.2101-39.6499C1095.05,1093.3,1108.16,1088.62,1121.52,1087.61z"/>
	<path fill="#9C6172" stroke="#9C6172" stroke-width="0.2" d="M176.73,1088.97c3.14-1.62,6.88-0.73,10.28-0.98
		c3.4,0.23,7.14-0.62,10.3,0.97C190.45,1088.53,183.59,1088.62,176.73,1088.97z"/>
	<path fill="#F0524E" stroke="#F0524E" stroke-width="0.2" d="M366.45,1088.59c23.53-3.14,48.2,6.3201,63.58,24.41
		c14.82,16.97,21.03,41.1899,15.67,63.14c-4.04,17.6-14.96,33.5-29.99,43.51c-17.52,12.01-40.54,15.47-60.83,9.21
		c-17.65-5.24-33.02-17.59-41.98-33.67c-10.07-17.6499-12.01-39.5499-5.3-58.71C316.16,1111.11,339.87,1091.8199,366.45,1088.59z"/>
	<path fill="#2E9E63" stroke="#2E9E63" stroke-width="0.2" d="M742.37,1088.5c18.08-2.3101,37.01,2.45,51.67,13.33
		c13.94,10.05,24.02,25.3,27.8,42.0701c4.25,17.27,1.25,36.01-7.46,51.45c-9.41,16.76-25.79,29.51-44.44,34.28
		c-19.71,5.37-41.66,1.61-58.5-9.9401c-11.56-7.75-20.75-18.9399-26.17-31.7599c-7.88-18.5601-7.46-40.3201,1.19-58.54
		C696.58,1107.42,718.39,1091.54,742.37,1088.5z"/>
	<path fill="#50A8B1" stroke="#50A8B1" stroke-width="0.2" d="M929.46,1088.58c18.54-2.37,37.95,2.76,52.75,14.2301
		c13.6,10.23,23.21,25.49,26.79,42.11c3.81,17.01,0.86,35.3199-7.76,50.4399c-8.89,15.79-23.96,28.0701-41.33,33.3101
		c-20.67,6.6599-44.3,3-62.0699-9.4701c-12.41-8.46-21.95-20.98-26.9901-35.12c-7.15-19.71-5-42.51,5.77-60.5199
		C887.58,1104.5601,907.73,1091.36,929.46,1088.58z"/>
	<path fill="#F05788" stroke="#F05788" stroke-width="0.2" d="M135.24,1110.14c11-11.3,25.74-19.33,41.49-21.17
		c6.86-0.35,13.72-0.4399,20.58-0.01c4.58,0.51,9.5,1.1801,13.52,3.5c0.92,1.24,2.4,1.73,3.92,1.63c2.17,0.01,3.99,1.41,5.89,2.29
		c3.17,1.8099,6.56,3.46,9.15,6.09c0.61,1.26,1.65,2.24,3.07,2.54c2.48,1.05,3.99,3.49,5.98,5.22c1.06,1.25,2.8,2.2001,3.03,3.98
		c0.06,1.5,1.05,2.92,2.69,2.9c7.34,9.3101,12.12,20.78,13.57,32.54c0.16,6.88,0.27,13.76-0.09,20.65
		c-0.21,2.26-0.16,4.73-1.37,6.76c-1.45,1.5-2.07,3.5-1.79,5.58c-0.04,3-1.8,5.62-2.92,8.33c-2.15,4.12-4.21,8.4601-7.45,11.8401
		c-1.28,0.6-2.24,1.6499-2.55,3.0699c-2.32,3.55-5.59,6.76-9.12,9.12c-1.41,0.3-2.45,1.28-3.08,2.55
		c-9.18,7.4299-20.77,12.0499-32.48,13.47c-6.83,0.4299-13.65,0.39-20.47,0c-10.4-1.04-20.28-5.28-29.07-10.8101
		c-1.56-1.1499-3.5-2.0499-4.5-3.75c-0.45-1.37-1.38-2.77-3.01-2.5599l-0.85-0.09c-2.14-1.9601-4.2-4.01-6.16-6.15l-0.1-0.88
		c0.13-1.64-1.25-2.5801-2.59-3.04c-1.21-0.51-1.75-1.8-2.53-2.73c-6.45-9.39-10.93-20.3201-12.13-31.6801
		c-0.21-6.23-0.15-12.4399,0.01-18.6599c1.16-11.36,5.69-22.24,12.06-31.65c0.8-0.98,1.37-2.3,2.61-2.78
		c1.42-0.4299,2.57-1.47,2.59-3.03C133.28,1111.88,134.47,1111.09,135.24,1110.14z"/>
	<path fill="#FFF45F" stroke="#FFF45F" stroke-width="0.2" d="M551.4,1089.64c19.99-3.59,41.34,2,57.1,14.78
		c13.75,10.9299,23.3,27.08,26.05,44.4399c3.39,19.41-1.95,40.14-14.14,55.6c-11.15,14.5901-28.18,24.5701-46.36,27.17
		c-20.46,3.1801-42.12-3.29-57.62-17c-13.53-11.74-22.56-28.7-24.24-46.58c-2.64-22.14,6.16-45.2101,22.63-60.2101
		C524.88,1098.36,537.82,1092.0601,551.4,1089.64z"/>
	<path fill="#92586A" stroke="#92586A" stroke-width="0.2" d="M210.83,1092.46c1.12-0.99,4.27-0.01,3.92,1.63
		C213.23,1094.1899,211.75,1093.7,210.83,1092.46z"/>
	<path fill="#704352" stroke="#704352" stroke-width="0.2" d="M229.79,1102.47c1.36-1.12,3.85,1.01,3.07,2.54
		C231.44,1104.71,230.4,1103.73,229.79,1102.47z"/>
	<path fill="#A85871" stroke="#A85871" stroke-width="0.2" d="M130.55,1116.24c-0.82-1.3199,1.18-3.65,2.59-3.03
		C133.12,1114.77,131.97,1115.8101,130.55,1116.24z"/>
	<path fill="#A1586F" stroke="#A1586F" stroke-width="0.2" d="M241.87,1114.21c1.36-0.5499,3.21,1.5801,2.69,2.9
		C242.92,1117.13,241.93,1115.71,241.87,1114.21z"/>
	<path fill="#A36375" stroke="#A36375" stroke-width="0.2" d="M258.13,1149.65c1.54,3.9,0.62,8.25,0.88,12.35
		c-0.23,2.73,0.55,5.84-0.97,8.3C258.4,1163.41,258.29,1156.53,258.13,1149.65z"/>
	<path fill="#996171" stroke="#996171" stroke-width="0.2" d="M114.98,1159.97c0.18-3.1-0.46-6.4199,0.9-9.2999
		c-0.16,6.22-0.22,12.4299-0.01,18.6599C114.53,1166.4,115.16,1163.0699,114.98,1159.97z"/>
	<path fill="#96596B" stroke="#96596B" stroke-width="0.2" d="M254.88,1182.64c-0.28-2.08,0.34-4.08,1.79-5.58
		C257.36,1178.62,256.64,1182.34,254.88,1182.64z"/>
	<path fill="#704352" stroke="#704352" stroke-width="0.2" d="M241.96,1205.88c0.31-1.42,1.27-2.47,2.55-3.0699
		C245.65,1204.17,243.48,1206.63,241.96,1205.88z"/>
	<path fill="#A35970" stroke="#A35970" stroke-width="0.2" d="M130.53,1203.74c1.34,0.46,2.72,1.4,2.59,3.04
		C131.72,1207.34,129.75,1205.04,130.53,1203.74z"/>
	<path fill="#A65A71" stroke="#A65A71" stroke-width="0.2" d="M140.23,1213.9c1.63-0.2101,2.56,1.1899,3.01,2.5599
		C141.94,1217.21,139.63,1215.27,140.23,1213.9z"/>
	<path fill="#6C414F" stroke="#6C414F" stroke-width="0.2" d="M229.76,1217.55c0.63-1.27,1.67-2.25,3.08-2.55
		C233.63,1216.51,231.14,1218.66,229.76,1217.55z"/>
	<path fill="#975F6F" stroke="#975F6F" stroke-width="0.2" d="M176.81,1231.02c6.82,0.39,13.64,0.4299,20.47,0
		c-3.5,1.64-7.53,0.74-11.26,0.99C182.97,1231.78,179.59,1232.5601,176.81,1231.02z"/>
</g>
<g>
	<path stroke="#000000" stroke-width="0.2" d="M1524.71,1359.0601c0.38-1.27,0.04-3.91,2.2201-3.3201
		c28.2899,0.05,56.59-0.0599,84.88,0.05c11.6,65.9399,23.1599,131.88,34.84,197.7999c-0.4601,0.3101-1.36,0.9301-1.8101,1.24
		c-19.22,4.28-38.98,5.4501-58.61,5.8101c-9.0599,1.04-18.12-0.28-27.1799-0.21c-23.1801-0.54-46.27-2.9501-69.28-5.7001
		C1501.51,1489.53,1513.09,1424.29,1524.71,1359.0601z"/>
	<path fill="#919396" stroke="#919396" stroke-width="0.2" d="M1489.12,1557.95c0.1901-1.09,0.41-2.1699,0.65-3.22
		c23.01,2.75,46.1,5.16,69.28,5.7001c9.0599-0.0701,18.12,1.25,27.1799,0.21c19.63-0.36,39.39-1.53,58.61-5.8101
		c0.49-0.12,1.49-0.36,1.98-0.47c0.2001,1.2001,0.4401,2.4301,0.7101,3.6801c0.11,0.5,0.33,1.5,0.4299,2
		c2.29,13.6799,5.01,27.2999,7.1001,41.02c-38.39,8.24-77.9301,10.5299-117.0901,8.4299c-19.03-1.53-38.13-3.65-56.64-8.45
		c2.49-13.6901,4.9401-27.39,7.38-41.1001C1488.8101,1559.45,1489.02,1558.45,1489.12,1557.95z"/>
	<path fill="#79AC53" stroke="#79AC53" stroke-width="0.2" d="M1443.46,1570.51c14.55-6.29,30.11-9.77,45.66-12.5601
		c-0.1,0.5-0.3099,1.5-0.41,1.99c-17.59,3.8-35.73,7.0701-51.5399,16.15c-5.4601,2.9401-11.02,7.4701-12.15,13.9
		c-0.2001,6.08,5.1699,10.16,9.5499,13.47c6,3.64,12.3201,6.89,19.05,8.9701c20.13,6.9099,41.3101,10.0699,62.4,12.33
		c24.5499,2.76,49.29,2.7,73.96,2.25c21.1-1.09,42.22-2.87,62.99-6.89c14.4501-2.96,29.0901-6.13,42.38-12.77
		c5.17-2.9199,10.78-5.8199,14.17-10.91c2.1699-3.0699,2.23-7.25,0.62-10.5699c-1.52-3.62-4.88-5.89-7.97-8.04
		c-16.3401-10.2699-35.5901-13.97-54.2101-17.7899c-0.1-0.5-0.3199-1.5-0.4299-2c16.5699,2.84,33.1699,6.7,48.48,13.83
		c6.42,3.27,13.3099,7.24,16.46,14.0699c1.91,3.6001,0.35,7.5601,0.38,11.3701c-2.3199,0.58-3.48,2.8999-5.15,4.3999
		c-5.97,5.62-13.6599,8.92-21.2899,11.63c-19.12,7.02-39.3101,10.4701-59.4601,12.89c-16.2799,1.8201-32.63,2.98-49.01,2.99
		c-6.6399,0.67-13.2899,0.53-19.9099-0.0599c-20.39,0.0399-40.74-1.75-60.92-4.53c-19.96-3.25-40.25-7.05-58.45-16.26
		c-6.8301-3.46-13.8101-8.6899-15.53-16.58c-0.47-3.2001,0.84-6.4301,2.6801-8.98C1430.29,1577.01,1436.91,1573.46,1443.46,1570.51z
		"/>
	<path fill="#89C05D" stroke="#89C05D" stroke-width="0.2" d="M1437.17,1576.09c15.8099-9.08,33.95-12.35,51.5399-16.15
		c-2.4399,13.7101-4.89,27.41-7.38,41.1001c18.51,4.7999,37.61,6.9199,56.64,8.45c39.16,2.1,78.7001-0.1899,117.0901-8.4299
		c-2.0901-13.7201-4.8101-27.3401-7.1001-41.02c18.62,3.8199,37.87,7.52,54.2101,17.7899c3.09,2.15,6.45,4.42,7.97,8.04
		c1.61,3.3199,1.5499,7.5-0.62,10.5699c-3.39,5.0901-9,7.9901-14.17,10.91c-13.2899,6.64-27.9299,9.8101-42.38,12.77
		c-20.77,4.02-41.89,5.8-62.99,6.89c-24.6699,0.45-49.41,0.51-73.96-2.25c-21.09-2.26-42.27-5.42-62.4-12.33
		c-6.73-2.0801-13.05-5.3301-19.05-8.9701c-4.38-3.3099-9.75-7.39-9.5499-13.47C1426.15,1583.5601,1431.71,1579.03,1437.17,1576.09z
		"/>
	<path fill="#89C05D" stroke="#89C05D" stroke-width="0.2" d="M1423.13,1591.79c1.72,7.89,8.7,13.12,15.53,16.58
		c18.2,9.21,38.49,13.01,58.45,16.26c20.1801,2.78,40.53,4.5699,60.92,4.53c6.62,0.59,13.27,0.73,19.9099,0.0599
		c16.38-0.01,32.7301-1.1699,49.01-2.99c20.15-2.4199,40.3401-5.87,59.4601-12.89c7.63-2.71,15.3199-6.01,21.2899-11.63
		c1.67-1.5,2.8301-3.8199,5.15-4.3999c1.3201,38.8799,1.89,77.8099,0.79,116.71c-1.11,35.09-3.08,70.29-9.29,104.91
		c-2.65,13.7999-5.8099,27.6599-11.61,40.5299c-3.61,7.17-8.04,16.2201-16.74,17.76c-68.6801,0.0701-137.36,0.01-206.04,0.03
		c-4.9299-0.3-10.14,0.8199-14.8199-1.1c-6.22-3.22-9.6-9.84-12.28-16c-6.38-15.62-9.14-32.4-11.65-48.99
		c-6.13-45.0901-7.46-90.6901-8.11-136.13c-0.3199-24.35,0-48.7001,0.49-73.04C1423.89,1598.5699,1423.8,1595.14,1423.13,1591.79
		 M1447.1,1730.13c-3.84,6.23-3.98,13.85-4.3199,20.9399c0.1799,20.0801,3.59,39.9501,7.6799,59.5601
		c3.5801,16.5599,7.39,33.11,12.1901,49.38c0.49-3.6901-0.22-7.34-0.42-11c-1.3199-27.05,2.15-53.99,4.35-80.91
		c0.55-9.5599,1.25-19.22,0.01-28.75c-0.74-3.75-1.61-7.77-4.2799-10.65C1458.35,1724.23,1450.13,1724.95,1447.1,1730.13z"/>
	<path fill="#AAD18B" stroke="#AAD18B" stroke-width="0.2" d="M1447.1,1730.13c3.03-5.1801,11.25-5.9,15.2101-1.4301
		c2.6699,2.88,3.5399,6.9,4.2799,10.65c1.24,9.53,0.54,19.1901-0.01,28.75c-2.2,26.92-5.6699,53.86-4.35,80.91
		c0.2001,3.66,0.91,7.3099,0.42,11c-4.8-16.27-8.61-32.8201-12.1901-49.38c-4.09-19.61-7.5-39.48-7.6799-59.5601
		C1443.12,1743.98,1443.26,1736.36,1447.1,1730.13z"/>
</g>
<g>
	<path stroke="#000000" stroke-width="0.2" d="M153.33,1555.38c11.75-66.22,23.54-132.4301,35.45-198.62
		c28.8,0,57.61-0.0601,86.41,0.03c11.73,66.1899,23.22,132.4199,35.03,198.59c-19.98,4.66-40.58,5.91-61.03,6.26
		c-9.04,1.0499-18.08-0.35-27.13-0.22c-22.79-0.67-45.55-2.7101-68.15-5.76L153.33,1555.38z"/>
	<path fill="#919396" stroke="#919396" stroke-width="0.2" d="M153.15,1555.67l0.76-0.01c22.6,3.0499,45.36,5.09,68.15,5.76
		c9.05-0.13,18.09,1.2699,27.13,0.22c20.45-0.35,41.05-1.6,61.03-6.26c0.23,1.1801,0.46,2.37,0.69,3.58
		c0.1,0.49,0.29,1.48,0.39,1.9701c2.47,13.63,4.75,27.2999,7.34,40.9199c-21.55,4.88-43.55,7.49-65.58,8.84
		c-28.92,1.28-58.02,0.3701-86.63-4.24c-7.12-1.3999-14.57-1.9099-21.34-4.6c1.78-13.5699,4.75-27.03,7.09-40.53
		c0.1-0.58,0.31-1.75,0.42-2.33C152.74,1558.16,153.01,1556.5,153.15,1555.67z"/>
	<path fill="#7B6293" stroke="#7B6293" stroke-width="0.2" d="M105.88,1571.95c14.85-6.5599,30.79-10.21,46.72-12.96
		c-0.11,0.58-0.32,1.75-0.42,2.33c-8.59,1.02-16.92,3.3501-25.3,5.4c-10.41,2.75-20.55,6.7101-29.67,12.47
		c-3.99,2.8101-8.51,6.53-8.5,11.8601c-0.38,4.0399,2.2,7.5599,4.98,10.21c7.92,6.64,17.73,10.39,27.46,13.52
		c21.81,6.6899,44.54,9.8099,67.2,11.83c21.83,1.91,43.76,1.87,65.65,1.36c24.73-1.2899,49.51-3.65,73.67-9.2899
		c8.51-2.17,17.11-4.2301,25.17-7.79c6.86-3.02,14.08-6.1801,18.94-12.11c2.27-2.76,4.08-6.61,2.57-10.14
		c-2.4-6.28-8.55-9.78-14.04-12.99c-15.35-7.73-32.35-11.09-49.01-14.72c-0.1-0.4901-0.29-1.4801-0.39-1.9701
		c13.06,2.3201,26.07,5.24,38.57,9.75c6.25,2.29,12.43,4.99,17.93,8.8c3.73,2.62,7.28,5.9299,8.85,10.33
		c-0.28,3.37,0.23,7.02-1.22,10.1801c-5.15,7.6-13.74,11.6799-21.95,15.14c-15.84,6.36-32.69,9.6-49.48,12.33
		c-14.45,2.1-29.01,3.41-43.59,4.3101c-9.35,0.3099-18.71,0.25-28.04,0.9299c-11.66-0.95-23.39-0.27-35.04-1.4
		c-26.69-1.8199-53.51-5.1599-79.08-13.34c-10.61-3.96-22.29-7.85-29.25-17.39c-0.37,0.01-1.11,0.03-1.48,0.04
		c0-4.02-1.6-8.24,0.43-12.04C91.19,1579.3,98.85,1575.33,105.88,1571.95z"/>
	<path fill="#8C70A7" stroke="#8C70A7" stroke-width="0.2" d="M126.88,1566.72c8.38-2.0499,16.71-4.38,25.3-5.4
		c-2.34,13.5-5.31,26.9601-7.09,40.53c6.77,2.6901,14.22,3.2001,21.34,4.6c28.61,4.6101,57.71,5.52,86.63,4.24
		c22.03-1.35,44.03-3.96,65.58-8.84c-2.59-13.62-4.87-27.2899-7.34-40.9199c16.66,3.63,33.66,6.99,49.01,14.72
		c5.49,3.21,11.64,6.71,14.04,12.99c1.51,3.53-0.3,7.38-2.57,10.14c-4.86,5.9299-12.08,9.09-18.94,12.11
		c-8.06,3.5599-16.66,5.62-25.17,7.79c-24.16,5.6399-48.94,8-73.67,9.2899c-21.89,0.51-43.82,0.55-65.65-1.36
		c-22.66-2.02-45.39-5.14-67.2-11.83c-9.73-3.13-19.54-6.88-27.46-13.52c-2.78-2.65-5.36-6.17-4.98-10.21
		c-0.01-5.3301,4.51-9.05,8.5-11.8601C106.33,1573.4301,116.47,1569.47,126.88,1566.72z"/>
	<path fill="#8C70A7" stroke="#8C70A7" stroke-width="0.2" d="M376.26,1587.84c0.84,3,0.31,6.11,0.03,9.17
		c1.53,52.8,2.26,105.71-1.1,158.47c-1.53,22.5701-3.73,45.14-7.99,67.38c-2.31,11.73-5.21,23.41-9.7,34.52
		c-2.51,5.8199-5.43,11.62-9.79,16.3c-2.52,2.5699-5.89,4.75-9.63,4.58c-71.35-0.03-142.7,0-214.04-0.02
		c-5.09,0.23-9.5-3.08-12.29-7.0599c-5.33-7.4501-8.1-16.3501-10.53-25.0901c-5.85-22.4299-8.38-45.5499-10.43-68.59
		c-4.85-59.48-4.93-119.24-3.66-178.86c0.37-0.01,1.11-0.03,1.48-0.04c6.96,9.54,18.64,13.4301,29.25,17.39
		c25.57,8.1801,52.39,11.52,79.08,13.34c11.65,1.13,23.38,0.4501,35.04,1.4c9.33-0.6799,18.69-0.62,28.04-0.9299
		c14.58-0.9,29.14-2.2101,43.59-4.3101c16.79-2.73,33.64-5.97,49.48-12.33c8.21-3.4601,16.8-7.54,21.95-15.14
		C376.49,1594.86,375.98,1591.21,376.26,1587.84 M110.81,1730.78c-4.19,6.22-4.08,14.0499-4.56,21.25
		c-0.02,10.0699,0.98,20.11,2.38,30.08c3.43,23.6901,8.91,47.04,14.93,70.1901c0.63,2.33,1,4.8199,2.36,6.8999
		c0.54-4.75-0.64-9.45-0.61-14.1899c-0.8-28.4401,3.52-56.66,5.27-84.98c0.13-9.4301,0.99-19.52-3.24-28.24
		C124.34,1725.5601,114.54,1725.04,110.81,1730.78z"/>
	<path fill="#A893BE" stroke="#A893BE" stroke-width="0.2" d="M110.81,1730.78c3.73-5.74,13.53-5.22,16.53,1.01
		c4.23,8.72,3.37,18.8099,3.24,28.24c-1.75,28.3199-6.07,56.5399-5.27,84.98c-0.03,4.74,1.15,9.4399,0.61,14.1899
		c-1.36-2.08-1.73-4.5699-2.36-6.8999c-6.02-23.15-11.5-46.5-14.93-70.1901c-1.4-9.97-2.4-20.01-2.38-30.08
		C106.73,1744.83,106.62,1737,110.81,1730.78z"/>
</g>
<g>
	<path stroke="#000000" stroke-width="0.2" d="M856.05,1356.77c27.98-0.0601,55.97,0.02,83.95-0.04c0.64,0.1,1.92,0.3101,2.56,0.41
		c11.69,65.87,23.19,131.78,34.83,197.66c-0.33,0.1399-1,0.4399-1.33,0.58c-3.82,1.64-8.01,1.92-12.04,2.67
		c-19.19,3.0699-38.65,3.4199-58.02,3.98c-11.16-0.85-22.37-0.37-33.51-1.37c-17.37-1.0801-34.73-2.66-51.97-5.1
		C832.49,1489.3199,844.2,1423.03,856.05,1356.77z"/>
	<path fill="#919396" stroke="#919396" stroke-width="0.2" d="M819.8,1559.05c0.23-1.1901,0.47-2.3501,0.72-3.49
		c17.24,2.4399,34.6,4.0199,51.97,5.1c11.14,1,22.35,0.52,33.51,1.37c19.37-0.5601,38.83-0.91,58.02-3.98
		c4.03-0.75,8.22-1.03,12.04-2.67c0.59,0.24,1.77,0.72,2.37,0.96c-0.05,0.6801-0.15,2.03-0.2,2.7101c0.12,0.49,0.35,1.49,0.47,1.98
		c2.28,13.65,4.78,27.26,7.22,40.88c-22.31,5.1-45.17,7.52-67.99,8.8099c-35.4,1.48-71.25-0.1599-105.78-8.62
		c2.21-13.73,4.99-27.35,7.23-41.0699C819.48,1560.53,819.69,1559.54,819.8,1559.05z"/>
	<path fill="#F05C86" stroke="#F05C86" stroke-width="0.2" d="M778.07,1569.91c13.43-5.2201,27.53-8.55,41.73-10.86
		c-0.11,0.49-0.32,1.48-0.42,1.98c-16.82,3.5499-34.09,6.74-49.41,14.9299c-5.24,2.74-10.3199,6.41-13.3199,11.62
		c-2.26,4.5801,0.2599,9.8201,3.71,13.02c5.85,5.36,13.18,8.76,20.53,11.55c18.33,6.83,37.73,10.13,57.05,12.66
		c27.88,3.45,56.04,4.0199,84.09,3.1399c25.53-1.35,51.1299-3.8199,76-9.97c10.54-2.79,21.1299-5.88,30.78-11.0699
		c4.49-2.7001,9.25-5.61,11.9099-10.29c1.8401-3.0699,2.02-7.24-0.1-10.21c-4.62-6.67-12.03-10.5701-19.3-13.67
		c-13.58-5.92-28.22-8.65-42.62-11.71c-0.12-0.49-0.35-1.49-0.47-1.98c12.83,2.08,25.55,5.0499,37.81,9.3899
		c8.15,3.05,16.56,6.42,22.9,12.5901c3.76,3.4199,6.4401,8.77,4.8201,13.9c-2.87,7.96-10.74,12.3099-17.87,15.8999
		c-17.25,7.8-35.96,11.6001-54.56,14.55c-21.31,3.17-42.85,4.77-64.38,4.88c-5.66,0.52-11.32,0.4-16.96-0.02
		c-21.76-0.08-43.49-1.84-65-5.1c-13.73-2.23-27.44-4.96-40.61-9.51c-8.91-3.03-17.89-6.65-25.02-12.97
		c-2.4-2.0901-4-4.91-5.14-7.8201c-1.54-4.84,0.89-9.9299,4.29-13.33C763.92,1576.0601,771.02,1572.73,778.07,1569.91z"/>
	<path fill="#CE4F74" stroke="#CE4F74" stroke-width="0.2" d="M769.97,1575.96c15.32-8.1899,32.59-11.38,49.41-14.9299
		c-2.24,13.72-5.02,27.34-7.23,41.0699c34.53,8.4601,70.38,10.1,105.78,8.62c22.82-1.2899,45.68-3.71,67.99-8.8099
		c-2.44-13.62-4.94-27.23-7.22-40.88c14.4,3.0599,29.04,5.7899,42.62,11.71c7.27,3.1,14.68,7,19.3,13.67
		c2.12,2.97,1.9401,7.14,0.1,10.21c-2.6599,4.6801-7.4199,7.59-11.9099,10.29c-9.6501,5.1899-20.2401,8.2799-30.78,11.0699
		c-24.8701,6.15-50.47,8.62-76,9.97c-28.05,0.88-56.21,0.3101-84.09-3.1399c-19.32-2.53-38.72-5.8301-57.05-12.66
		c-7.35-2.79-14.68-6.1901-20.53-11.55c-3.45-3.2-5.97-8.4399-3.71-13.02C759.65,1582.37,764.73,1578.7,769.97,1575.96z"/>
	<path fill="#CE4F74" stroke="#CE4F74" stroke-width="0.2" d="M754.22,1594.84c1.14,2.91,2.7401,5.73,5.14,7.8201
		c7.13,6.3199,16.11,9.9399,25.02,12.97c13.17,4.55,26.88,7.28,40.61,9.51c21.51,3.26,43.24,5.02,65,5.1
		c5.64,0.42,11.3,0.54,16.96,0.02c21.53-0.11,43.07-1.71,64.38-4.88c18.6-2.95,37.31-6.75,54.56-14.55
		c7.13-3.59,15-7.9399,17.87-15.8999c-0.22,12.33,0.6899,24.6799,0.74,37.0199c0.96,48.7201,0.65,97.5701-3.79,146.16
		c-2.1499,21.78-4.99,43.63-10.9099,64.75c-2.92,9.64-6.15,19.46-12.1401,27.6901c-3.03,3.97-7.25,8.11-12.66,7.71
		c-71.34-0.05-142.67,0.03-214.01-0.04c-5.57,0.14-9.91-4.01-12.82-8.3099c-5.42-8.4701-8.24-18.26-10.68-27.91
		c-5.32-22.3199-7.72-45.2-9.67-68.01c-4.13-53.25-4.56-106.71-3.73-160.08C754.12,1607.55,754.71,1601.1801,754.22,1594.84
		 M779.84,1728.78c-4.03,3.9399-5.28,9.78-5.8,15.2c-1.06,11.3201-0.1,22.72,1.32,33.98c3.45,25.67,9.34,50.9401,15.93,75.9701
		c1.18,3.2699,1.2,7.11,3.35,9.99c-1.34-4.87-0.99-9.9601-1.71-14.91c-1.18-24.04,1.61-48.01,3.75-71.91
		c0.95-11.87,2.03-23.83,0.81-35.71c-0.7-4.28-1.44-9.0701-4.8-12.13C789.35,1725.91,783.49,1726,779.84,1728.78z"/>
	<path fill="#DB8195" stroke="#DB8195" stroke-width="0.2" d="M779.84,1728.78c3.65-2.78,9.5099-2.87,12.85,0.48
		c3.36,3.0599,4.1,7.85,4.8,12.13c1.22,11.88,0.14,23.84-0.81,35.71c-2.14,23.9-4.93,47.87-3.75,71.91
		c0.72,4.95,0.37,10.04,1.71,14.91c-2.15-2.88-2.17-6.7201-3.35-9.99c-6.59-25.03-12.48-50.3-15.93-75.9701
		c-1.42-11.26-2.38-22.6599-1.32-33.98C774.56,1738.5601,775.81,1732.72,779.84,1728.78z"/>
</g>
<g>
	<path stroke="#000000" stroke-width="0.2" d="M1154.41,1555.38c11.88-66.1801,23.63-132.4,35.46-198.6
		c27.7-0.0901,55.4,0.02,83.1-0.05c1.17,0.23,3.53-0.6799,3.61,1.24c11.49,65.8101,23.24,131.5801,34.65,197.41
		c-19.9399,4.72-40.53,5.88-60.96,6.27c-8.75,1.0399-17.5-0.3301-26.26-0.2101c-23.09-0.62-46.14-2.72-69.03-5.7899L1154.41,1555.38
		z"/>
	<path fill="#919396" stroke="#919396" stroke-width="0.2" d="M1250.27,1561.65c20.4299-0.39,41.02-1.55,60.96-6.27l0.2001-0.05
		c0.2,1.2001,0.4299,2.41,0.6899,3.65c0.11,0.5701,0.33,1.71,0.4401,2.28c2.4099,13.58,4.6899,27.1799,7.23,40.73
		c-21.24,4.96-43.0601,6.97-64.77,8.58c-36.49,1.52-73.49,0.5-109.0601-8.5199c2.3301-13.63,4.7201-27.24,7.3-40.8201
		c0.11-0.5699,0.33-1.6899,0.4399-2.25c0.15-0.83,0.4501-2.47,0.6001-3.2999l0.6799-0.03c22.89,3.0699,45.9401,5.1699,69.03,5.7899
		C1232.77,1561.3199,1241.52,1562.6899,1250.27,1561.65z"/>
	<path fill="#CC8F5E" stroke="#CC8F5E" stroke-width="0.2" d="M1109.1,1571.04c14.26-5.9701,29.41-9.4301,44.6-12.0601
		c-0.11,0.5601-0.33,1.6801-0.4399,2.25c-10.2,1.54-20.23,4.01-30.13,6.9c-9.58,3.02-19.1801,6.6899-27.22,12.86
		c-3.28,2.7-6.3101,6.47-6.26,10.9401c0.5,4.86,4.01,8.7999,7.91,11.46c8.96,6.4399,19.61,9.85,30.08,12.99
		c19.6799,5.39,39.95,8.3,60.26,10.11c25.96,2.13,52.0599,2.47,78.0599,0.86c24.04-1.5499,48.11-4.53,71.41-10.8199
		c8.24-2.29,16.45-4.97,23.99-9.0801c4.83-2.5699,9.77-5.5699,12.85-10.24c2.0901-3.1499,2.41-7.45,0.3201-10.6699
		c-3.39-5.65-9.4501-8.89-15.0901-11.88c-14.83-6.8401-30.84-10.7001-46.8799-13.4c-0.1101-0.5701-0.3301-1.71-0.4401-2.28
		c18.3101,3.41,36.99,7.37,53.4,16.5601c6.4299,3.77,13.8099,10.01,12.28,18.35c-1.4801,6.29-6.9401,10.5699-12.1801,13.78
		c-14.9,8.2999-31.6801,12.3999-48.3,15.6499c-26.5099,4.8601-53.48,6.9401-80.4099,7.03c-26.02,0.28-52.0801-1.23-77.8101-5.1899
		c-18.35-2.88-36.71-6.92-53.71-14.5801c-6.8-3.37-13.84-7.6499-17.22-14.76c-1.25-4.22-0.38-8.96,2.45-12.35
		C1095.34,1577.5601,1102.3,1574.02,1109.1,1571.04z"/>
	<path fill="#FAAE71" stroke="#FAAE71" stroke-width="0.2" d="M1123.13,1568.13c9.9-2.89,19.9301-5.36,30.13-6.9
		c-2.58,13.5801-4.97,27.1901-7.3,40.8201c35.5701,9.0199,72.5701,10.0399,109.0601,8.5199c21.71-1.61,43.53-3.62,64.77-8.58
		c-2.54-13.55-4.8201-27.15-7.23-40.73c16.0399,2.7,32.0499,6.5599,46.8799,13.4c5.64,2.99,11.7001,6.23,15.0901,11.88
		c2.09,3.22,1.77,7.52-0.3201,10.6699c-3.08,4.67-8.02,7.67-12.85,10.24c-7.54,4.1101-15.75,6.79-23.99,9.0801
		c-23.3,6.2899-47.37,9.27-71.41,10.8199c-26,1.61-52.1,1.27-78.0599-0.86c-20.3101-1.8099-40.5801-4.72-60.26-10.11
		c-10.47-3.14-21.12-6.55-30.08-12.99c-3.9-2.66-7.41-6.6-7.91-11.46c-0.05-4.4701,2.98-8.2401,6.26-10.9401
		C1103.95,1574.8199,1113.55,1571.15,1123.13,1568.13z"/>
	<path fill="#FAAE71" stroke="#FAAE71" stroke-width="0.2" d="M1365.62,1607.67c5.24-3.2101,10.7-7.49,12.1801-13.78
		c-0.7201,3.62-0.2301,7.33-0.16,11c1.48,49.36,1.87,98.7999-1.15,148.12c-1.4,21.87-3.46,43.73-7.3,65.3199
		c-2.46,13.36-5.49,26.7101-10.6599,39.3101c-3.0901,6.98-6.65,14.28-13.0601,18.8099c-3.02,2.26-6.9299,1.78-10.45,1.8
		c-70.01-0.02-140.02,0.02-210.03-0.02c-4.25,0.12-8.15-2.24-10.78-5.4299c-5.0499-5.99-7.75-13.5-10.1499-20.8301
		c-5.8701-19.47-8.53-39.73-10.75-59.88c-4.9301-48.51-5.7201-97.3099-5.8101-146.02c0.1801-16.75,0.54-33.5,0.67-50.25
		c3.38,7.1101,10.4199,11.39,17.22,14.76c17,7.66,35.36,11.7001,53.71,14.5801c25.73,3.96,51.79,5.47,77.8101,5.1899
		c26.9299-0.09,53.9-2.1699,80.4099-7.03C1333.9399,1620.0699,1350.72,1615.97,1365.62,1607.67 M1111.0601,1731.98
		c-4.8,9.9501-3.26,21.3201-3.27,32c2.72,32.27,10.4299,63.87,18.76,95.0801c1.0499-1.9,0.51-4.1101,0.46-6.1201
		c-0.62-7.3099-0.3-14.6399-0.4-21.95c0.1801-26.08,4.66-51.9,5.1801-77.95c-0.23-7.61,0.1699-15.9601-4.17-22.6001
		C1123.74,1724.78,1114,1725.88,1111.0601,1731.98z"/>
	<path fill="#FCC597" stroke="#FCC597" stroke-width="0.2" d="M1111.0601,1731.98c2.9399-6.1,12.6799-7.2,16.5599-1.54
		c4.34,6.64,3.9401,14.9901,4.17,22.6001c-0.52,26.0499-5,51.87-5.1801,77.95c0.1,7.3101-0.22,14.64,0.4,21.95
		c0.05,2.01,0.59,4.2201-0.46,6.1201c-8.3301-31.2101-16.04-62.8101-18.76-95.0801
		C1107.8,1753.3,1106.26,1741.9301,1111.0601,1731.98z"/>
</g>
<g>
	<path stroke="#000000" stroke-width="0.2" d="M522.95,1357.77c28.4-0.03,56.79-0.05,85.19,0.01c1.86-0.41,1.45,2.12,1.88,3.1799
		c11.34,65.17,23.01,130.27,34.28,195.4501c-19.74,4.5499-40.09,5.9199-60.31,6.1699c-6.29,0.62-12.61,0.5601-18.9-0.0199
		c-25.95-0.1001-51.79-2.79-77.54-5.79C499.13,1490.4,511.18,1424.11,522.95,1357.77z"/>
	<path fill="#919396" stroke="#919396" stroke-width="0.2" d="M583.99,1562.58c20.22-0.25,40.57-1.62,60.31-6.1699l0.23-0.05
		c0.2599,1.26,0.15,2.76,1.12,3.8201l0.02,0.1399l0.18,1.6801c2.03,13.72,4.7,27.36,7.16,41.02c-22.33,5.04-45.17,7.5499-67.98,8.89
		c-10.02-0.26-20.01,1.26-30,0.21c-24.54-0.13-49.08-2.84-73.06-8.08c-1-0.4301-3.49-0.3201-2.85-2.0701
		c2.18-13.3199,4.79-26.5699,7.08-39.87c0.12-0.5,0.37-1.5,0.49-2.01c0.24-1.13,0.46-2.24,0.65-3.34l0.21,0.02
		c25.75,3,51.59,5.6899,77.54,5.79C571.38,1563.14,577.7,1563.2,583.99,1562.58z"/>
	<path fill="#6FC492" stroke="#6FC492" stroke-width="0.2" d="M446.04,1570.47c13.13-4.89,26.82-8.25,40.65-10.38
		c-0.12,0.51-0.37,1.51-0.49,2.01c-17.51,3.51-35.43,7.15-51.2,15.9301c-4.82,2.9199-10.04,6.49-11.91,12.09
		c-1.7,6.51,3.87,11.77,8.74,15.08c12.82,8.16,27.73,12.1801,42.43,15.4601c23.61,5.02,47.72,7.4,71.82,8.36
		c25.3,0.6699,50.69,0.26,75.85-2.72c18.72-2.0801,37.4-5.24,55.41-10.8501c9.2-3.12,18.5699-6.6399,26.08-12.98
		c3.49-2.9299,6.6-7.48,5.29-12.22c-1.92-5.89-7.45-9.5-12.4901-12.54c-15.55-8.6-33.23-11.87-50.37-15.71l-0.18-1.6801
		c8.08,0.8501,15.99,2.9501,23.86,4.9501c11.54,3.28,23.31,6.95,33.17,14.01c4.92,3.5399,9.49,9.23,8.15,15.7
		c-2,8.0701-9.75,12.54-16.56,16.16c-14.1,6.6799-29.37,10.46-44.63,13.36c-27.92,5.0699-56.34,6.85-84.69,7
		c-25.12-0.22-50.29-1.67-75.11-5.66c-17.56-2.98-35.23-6.74-51.47-14.2799c-6.71-3.3601-13.81-7.4901-17.03-14.6201
		c-1.76-4.9199,0.06-10.35,3.57-13.99C430.67,1576.9399,438.47,1573.53,446.04,1570.47z"/>
	<path fill="#13B893" stroke="#13B893" stroke-width="0.2" d="M435,1578.03c15.77-8.78,33.69-12.42,51.2-15.9301
		c-2.29,13.3-4.9,26.55-7.08,39.87c-0.64,1.75,1.85,1.64,2.85,2.0701c23.98,5.24,48.52,7.95,73.06,8.08
		c9.99,1.05,19.98-0.47,30-0.21c22.81-1.3401,45.65-3.85,67.98-8.89c-2.46-13.66-5.13-27.3-7.16-41.02
		c17.14,3.84,34.82,7.11,50.37,15.71c5.04,3.04,10.57,6.65,12.4901,12.54c1.31,4.74-1.8,9.29-5.29,12.22
		c-7.51,6.3401-16.88,9.86-26.08,12.98c-18.01,5.6101-36.69,8.77-55.41,10.8501c-25.16,2.98-50.55,3.3899-75.85,2.72
		c-24.1-0.96-48.21-3.34-71.82-8.36c-14.7-3.28-29.61-7.3-42.43-15.4601c-4.87-3.3099-10.44-8.5699-8.74-15.08
		C424.96,1584.52,430.18,1580.95,435,1578.03z"/>
	<path fill="#13B893" stroke="#13B893" stroke-width="0.2" d="M694.29,1611.14c6.81-3.62,14.56-8.09,16.56-16.16
		c-0.8,8.6801,0.33,17.41,0.29,26.12c1.16,53.65,1.3,107.47-3.82,160.9501c-2.31,22.0299-5.27,44.1599-11.71,65.4199
		c-2.92,9.0901-6.32,18.3201-12.44,25.8c-2.59,2.99-6.01,5.91-10.18,5.97c-69.98,0.03-139.95-0.01-209.93,0.02
		c-4.57,0.1-9.72,0.29-13.33-3.03c-6.47-5.79-9.57-14.26-12.28-22.28c-6.88-22.34-9.52-45.7-11.86-68.88
		c-5.58-62.5399-5.43-125.4099-4.23-188.13c3.22,7.13,10.32,11.26,17.03,14.6201c16.24,7.5399,33.91,11.2999,51.47,14.2799
		c24.82,3.99,49.99,5.4401,75.11,5.66c28.35-0.15,56.77-1.9301,84.69-7C664.92,1621.6,680.19,1617.8199,694.29,1611.14
		 M444.07,1733.01c-4.41,9.3199-3.9,20.01-3.47,30.0599c2.76,34.3101,11.09,67.8601,20.02,101.01c0.48-5.73-1.03-11.39-0.89-17.12
		c-1.02-28.4199,3.28-56.63,5.02-84.9299c0.07-9.8101,1.31-20.37-3.28-29.42C458.22,1725.76,447.17,1726.29,444.07,1733.01z"/>
	<path fill="#78C9AF" stroke="#78C9AF" stroke-width="0.2" d="M444.07,1733.01c3.1-6.72,14.15-7.25,17.4-0.4
		c4.59,9.05,3.35,19.61,3.28,29.42c-1.74,28.2999-6.04,56.51-5.02,84.9299c-0.14,5.73,1.37,11.39,0.89,17.12
		c-8.93-33.1499-17.26-66.7-20.02-101.01C440.17,1753.02,439.66,1742.33,444.07,1733.01z"/>
</g>
</svg>
