<?xml version="1.0"?>
<svg xmlns:rdf="http://www.w3.org/1999/02/22-rdf-syntax-ns#" xmlns="http://www.w3.org/2000/svg" xmlns:cc="http://web.resource.org/cc/" xmlns:xlink="http://www.w3.org/1999/xlink" xmlns:dc="http://purl.org/dc/elements/1.1/" xmlns:svg="http://www.w3.org/2000/svg" id="svg2" viewBox="0 0 740 1045" version="1.0">
  <defs id="defs3">
    <radialGradient id="radialGradient2787" gradientUnits="userSpaceOnUse" cy="570.61" cx="184.21" gradientTransform="matrix(1 0 0 1.4577 3.5 -257.28)" r="58.677">
      <stop id="stop2783" stop-color="#f2f2f2" offset="0"/>
      <stop id="stop2785" stop-color="#f2f2f2" stop-opacity="0" offset="1"/>
    </radialGradient>
  </defs>
  <g id="layer1" transform="translate(-3.5 -3.8622)">
    <g id="g2793">
      <rect id="rect1306" rx="11.304" ry="3" height="1044" width="739" stroke="#000" y="4.3622" x="4" fill="#000425"/>
      <path id="path2183" d="m170.76 272.03l-10.6-3.6-8.96 6.69 0.14-11.18-9.13-6.46 10.68-3.32 3.32-10.69 6.46 9.14 11.19-0.15-6.69 8.97 3.59 10.6z" stroke="#000" fill="#ffeb0f" transform="translate(262.84 565.37)"/>
      <path id="path3058" d="m170.76 272.03l-10.6-3.6-8.96 6.69 0.14-11.18-9.13-6.46 10.68-3.32 3.32-10.69 6.46 9.14 11.19-0.15-6.69 8.97 3.59 10.6z" stroke="#000" fill="#ffeb0f" transform="translate(11.911 690.96)"/>
      <path id="path3060" d="m170.76 272.03l-10.6-3.6-8.96 6.69 0.14-11.18-9.13-6.46 10.68-3.32 3.32-10.69 6.46 9.14 11.19-0.15-6.69 8.97 3.59 10.6z" stroke="#000" fill="#ffeb0f" transform="translate(398.29 372.64)"/>
      <path id="path3062" d="m170.76 272.03l-10.6-3.6-8.96 6.69 0.14-11.18-9.13-6.46 10.68-3.32 3.32-10.69 6.46 9.14 11.19-0.15-6.69 8.97 3.59 10.6z" stroke="#000" fill="#ffeb0f" transform="translate(103.22 39.687)"/>
      <path id="path3064" d="m170.76 272.03l-10.6-3.6-8.96 6.69 0.14-11.18-9.13-6.46 10.68-3.32 3.32-10.69 6.46 9.14 11.19-0.15-6.69 8.97 3.59 10.6z" stroke="#000" fill="#ffeb0f" transform="translate(3.6852 -76.124)"/>
      <path id="path3066" d="m170.76 272.03l-10.6-3.6-8.96 6.69 0.14-11.18-9.13-6.46 10.68-3.32 3.32-10.69 6.46 9.14 11.19-0.15-6.69 8.97 3.59 10.6z" stroke="#000" fill="#ffeb0f" transform="translate(255.6 -161.04)"/>
      <path id="path3068" d="m170.76 272.03l-10.6-3.6-8.96 6.69 0.14-11.18-9.13-6.46 10.68-3.32 3.32-10.69 6.46 9.14 11.19-0.15-6.69 8.97 3.59 10.6z" stroke="#000" fill="#ffeb0f" transform="translate(392.42 -209.73)"/>
      <path id="path3070" d="m170.76 272.03l-10.6-3.6-8.96 6.69 0.14-11.18-9.13-6.46 10.68-3.32 3.32-10.69 6.46 9.14 11.19-0.15-6.69 8.97 3.59 10.6z" stroke="#000" fill="#ffeb0f" transform="translate(257.78 224.17)"/>
      <path id="path3072" d="m170.76 272.03l-10.6-3.6-8.96 6.69 0.14-11.18-9.13-6.46 10.68-3.32 3.32-10.69 6.46 9.14 11.19-0.15-6.69 8.97 3.59 10.6z" stroke="#000" fill="#ffeb0f" transform="translate(245.64 2.9919)"/>
      <path id="path3074" d="m170.76 272.03l-10.6-3.6-8.96 6.69 0.14-11.18-9.13-6.46 10.68-3.32 3.32-10.69 6.46 9.14 11.19-0.15-6.69 8.97 3.59 10.6z" stroke="#000" fill="#ffeb0f" transform="translate(521.91 555.95)"/>
      <path id="path3076" d="m170.76 272.03l-10.6-3.6-8.96 6.69 0.14-11.18-9.13-6.46 10.68-3.32 3.32-10.69 6.46 9.14 11.19-0.15-6.69 8.97 3.59 10.6z" stroke="#000" fill="#ffeb0f" transform="translate(558.88 -43.262)"/>
      <path id="path3078" d="m170.76 272.03l-10.6-3.6-8.96 6.69 0.14-11.18-9.13-6.46 10.68-3.32 3.32-10.69 6.46 9.14 11.19-0.15-6.69 8.97 3.59 10.6z" stroke="#000" fill="#ffeb0f" transform="translate(448.92 160.35)"/>
      <path id="path3080" d="m170.76 272.03l-10.6-3.6-8.96 6.69 0.14-11.18-9.13-6.46 10.68-3.32 3.32-10.69 6.46 9.14 11.19-0.15-6.69 8.97 3.59 10.6z" stroke="#000" fill="#ffeb0f" transform="translate(-111.71 159.39)"/>
      <path id="path3082" d="m170.76 272.03l-10.6-3.6-8.96 6.69 0.14-11.18-9.13-6.46 10.68-3.32 3.32-10.69 6.46 9.14 11.19-0.15-6.69 8.97 3.59 10.6z" stroke="#000" fill="#ffeb0f" transform="translate(526.74 -185.91)"/>
      <path id="path3098" d="m219.82 656.1c-22.68 0.49-47.59-3.38-64.41-19.96-11.31-11.74-20.05-26.04-25.72-41.3-5.14-16.21-5.71-34.16-0.59-50.41 9.67-19.46 22.4-38.35 41.2-50.01 4.19-2.75 11.2-10.01 14.14-9.3-10.2 17.06-20.28 35.02-22.46 55.14-3.78 21.24 0.71 44.36 14.55 61.26 14.29 20.24 33.64 37 55.78 48.09 3.21 1.47 16.84 4.89 7.17 5.44-6.52 0.82-13.1 0.88-19.66 1.05z" fill-rule="evenodd" stroke="#000" stroke-width=".53227px" fill="#ffe300"/>
      <path id="path1893" opacity=".77103" d="m219.82 656.1c-22.68 0.49-47.59-3.38-64.41-19.96-11.31-11.74-20.05-26.04-25.72-41.3-5.14-16.21-5.71-34.16-0.59-50.41 9.67-19.46 22.4-38.35 41.2-50.01 4.19-2.75 11.2-10.01 14.14-9.3-10.2 17.06-20.28 35.02-22.46 55.14-3.78 21.24 0.71 44.36 14.55 61.26 14.29 20.24 33.64 37 55.78 48.09 3.21 1.47 16.84 4.89 7.17 5.44-6.52 0.82-13.1 0.88-19.66 1.05z" fill="url(#radialGradient2787)" fill-rule="evenodd"/>
      <path id="path2789" stroke="#000" transform="translate(67.075 521.22)" fill="#ffeb0f" d="m170.76 272.03l-10.6-3.6-8.96 6.69 0.14-11.18-9.13-6.46 10.68-3.32 3.32-10.69 6.46 9.14 11.19-0.15-6.69 8.97 3.59 10.6z"/>
      <path id="path2791" stroke="#000" transform="translate(420.84 708.91)" fill="#ffeb0f" d="m170.76 272.03l-10.6-3.6-8.96 6.69 0.14-11.18-9.13-6.46 10.68-3.32 3.32-10.69 6.46 9.14 11.19-0.15-6.69 8.97 3.59 10.6z"/>
    </g>
  </g>
  <metadata>
    <rdf:RDF>
      <cc:Work>
        <dc:format>image/svg+xml</dc:format>
        <dc:type rdf:resource="http://purl.org/dc/dcmitype/StillImage"/>
        <cc:license rdf:resource="http://creativecommons.org/licenses/publicdomain/"/>
        <dc:publisher>
          <cc:Agent rdf:about="http://openclipart.org/">
            <dc:title>Openclipart</dc:title>
          </cc:Agent>
        </dc:publisher>
        <dc:title>Moon in dark night sky full of stars</dc:title>
        <dc:date>2006-12-27T11:49:03</dc:date>
        <dc:description>black, black, cartoon, cartoon, clip art, clipart, image, media, moon, moon, nature, nature, night, night, png, public domain, sky, sky, space, space, star, star, svg, time, time, weather, weather, yellow, yellow, </dc:description>
        <dc:source>http://openclipart.org/detail/2329/moon-in-dark-night-sky-full-of-stars-by-machovka</dc:source>
        <dc:creator>
          <cc:Agent>
            <dc:title>Machovka</dc:title>
          </cc:Agent>
        </dc:creator>
        <dc:subject>
          <rdf:Bag>
            <rdf:li>black</rdf:li>
            <rdf:li>cartoon</rdf:li>
            <rdf:li>clip art</rdf:li>
            <rdf:li>clipart</rdf:li>
            <rdf:li>image</rdf:li>
            <rdf:li>media</rdf:li>
            <rdf:li>moon</rdf:li>
            <rdf:li>nature</rdf:li>
            <rdf:li>night</rdf:li>
            <rdf:li>png</rdf:li>
            <rdf:li>public domain</rdf:li>
            <rdf:li>sky</rdf:li>
            <rdf:li>space</rdf:li>
            <rdf:li>star</rdf:li>
            <rdf:li>svg</rdf:li>
            <rdf:li>time</rdf:li>
            <rdf:li>weather</rdf:li>
            <rdf:li>yellow</rdf:li>
          </rdf:Bag>
        </dc:subject>
      </cc:Work>
      <cc:License rdf:about="http://creativecommons.org/licenses/publicdomain/">
        <cc:permits rdf:resource="http://creativecommons.org/ns#Reproduction"/>
        <cc:permits rdf:resource="http://creativecommons.org/ns#Distribution"/>
        <cc:permits rdf:resource="http://creativecommons.org/ns#DerivativeWorks"/>
      </cc:License>
    </rdf:RDF>
  </metadata>
</svg>
