<?xml version="1.0" encoding="UTF-8" standalone="no"?>
<!-- Created with Inkscape (http://www.inkscape.org/) -->
<svg xmlns:rdf="http://www.w3.org/1999/02/22-rdf-syntax-ns#" xmlns="http://www.w3.org/2000/svg" xmlns:cc="http://web.resource.org/cc/" xmlns:dc="http://purl.org/dc/elements/1.1/" xmlns:svg="http://www.w3.org/2000/svg" xmlns:inkscape="http://www.inkscape.org/namespaces/inkscape" xmlns:sodipodi="http://sodipodi.sourceforge.net/DTD/sodipodi-0.dtd" xmlns:ns1="http://sozi.baierouge.fr" xmlns:xlink="http://www.w3.org/1999/xlink" id="svg2" viewBox="0 0 671.79 787.27" version="1.0" inkscape:version="0.91 r13725">
  <g id="layer1" transform="translate(-40.984 -459.31)">
    <g id="g2543">
      <path id="path2520" style="stroke-linejoin:round;stroke:#7fff00;stroke-linecap:round;stroke-width:29.6;fill:none" d="m87.757 1010.3c1.797-0.7 3.605-1.4 5.391-2.1 8.742-3.6 17.902-8.62 26.192-13.16 4.07-2.23 16.19-9.07 12.04-7-6.53 3.26-12.79 7.04-19.18 10.56 22.46-13.77 42.94-30.37 63.36-46.92 6.92-5.89 13.74-11.89 20.23-18.26 12.57-5.12 24.77-11.26 37.71-15.36 1.15-0.36-0.08 2.45-0.47 3.58-0.72 2.07-1.82 3.99-2.84 5.93-4.45 8.4-9.14 16.61-13.38 25.13-8 16.54-14.29 33.85-18.73 51.7 0.45 14.2 0.45 4.1-36.69 16.9-1.56 0.5 1.93-2.7 2.72-4.1 1.13-2.1 1.95-4.3 3.03-6.4 2.99-5.8 6.53-11.67 9.8-17.27 10.18-17.42 22.09-33.77 34.02-50.02 15.3-20.37 16.89-20.28 49.04-35.13 0.99-0.45 1.55 1.53 2.32 2.29 0.5 1.19 1.38 2.29 1.49 3.57 0.66 7.52-5.71 20.22-8.47 26.47-4.89 11.09-10.14 22.02-15.15 33.06-14.97 31.13-30.31 62.13-43.75 93.93-1.74 4.7-3.16 7.9-4.25 12.6-0.15 0.7 0.11 1.5-0.22 2.1-0.21 0.4 0.22-1.5-0.19-1.3-11.46 5.1-22.25 11.6-33.86 16.4-2.27 0.9 3.7-3.2 5.55-4.8 11.27-11.8 23.2-22.9 32.52-36.3 3.81-5.5 15.46-25.1 18.72-30.6 8.38-12.6 14.75-27.04 22.63-39.99 1.58-2.6 5.56-8.62 8.97-10.41 12.82-6.69 25.99-12.67 38.99-19 0.96 2.43 2.48 4.72 2.88 7.31 1.23 7.9-0.99 18.34-2.59 25.71-3.6 16.48-8.42 32.88-12.85 49.18-4.25 15.7-8.37 31.5-13.26 47.1-12.57 6-24.61 13.2-37.72 17.9-1.33 0.5-1.02-2.7-1.32-4-0.53-2.4-0.79-4.9-1.16-7.4-1.71-11.5-3.49-22.9-5.57-34.4-4.57-25-10.43-49.8-16.84-74.49 0-0.01-3.03-12.3-3.71-13.62-0.23-0.44-0.94 1.61-0.47 1.43 11.71-4.62 22.18-13.56 34.7-14.92 3.72-0.4-0.47 7.47-0.43 11.21 0.07 5.62 0.51 11.23 0.76 16.84 2.57 40.25 4.63 80.45 8.42 120.55 1.48 20.7-0.5 17.8-37.4 27.7-2.46 0.7-1.37-4.9-2-7.4-2.04-7.9-2.58-10.6-4.41-18.8-3.11-16.2-6.3-32.3-8.75-48.6-1.68-8.3 1.16-16.9-0.59-25-0.25-0.3-0.41-0.7-0.73-0.7-0.46 0.1-0.67 0.7-1.04 1-0.58 0.4-2.46 1.5-1.82 1.2 41.17-22.4 39.68-23.4 26.15-13.7-2.52 1.9-5.01 3.7-7.51 5.5-27.35 20.2-57.05 37.3-87.87 51.6-11.262 5-23.241 7.8-35.463 9-1.029 0-2.243 0.8-3.087 0.2-3.605-2.5-1.874-6.5 0.497-8.9 2.707-2.9 17.588-11.7 19.128-12.6 4.947-3 9.915-6 14.875-9 24.29-12.3 46.95-27.6 70.96-40.5 7.32-3.9 14.86-7.4 22.22-11.2 26.8-14.08 18.21-10.16 44.09-24.13 4.63-2.49-9.16 5.14-13.74 7.71 15.05-9.18 30.36-18.52 42.78-31.2l37.54-15.67c-12.82 13.86-29.45 23.6-45.37 33.43-16.62 9.61-33.17 19.34-49.86 28.86-21.82 12.4-44.34 23.5-66.39 35.5-6.94 3.7-13.6 8-20.59 11.7-4.8 2.5 9.36-5.5 14.03-8.3-8.39 5.2-16.87 10.2-25.18 15.4-2.28 1.5-4.3 3.4-6.73 4.6-1.2 0.6-2.62 0.7-3.96 0.7-0.51 0-1.69-0.5-1.27-0.8 0.79-0.5 1.89-0.1 2.84-0.2 11.72-1.4 23.14-4.4 33.86-9.4 12.43-5.9 40.42-21.9-7.35 5.8-3.31 1.9 6.62-3.9 9.88-5.9 3.17-1.9 6.35-3.8 9.4-6 2.67-1.8 5.16-3.9 7.73-5.9 3.94-3 7.54-6.5 11.8-9.1 12.98-7.7 25.98-15.4 39.33-22.5 1.7-0.9 4.55 0.7 5.64 1.7 0.65 0.7 0.96 1.5 1.44 2.3 1.87 8.5-0.72 17.1 0.15 25.7 1.91 16.3 4.75 32.5 7.85 48.6 2.15 8.9 2.2 9.8 4.9 18.2 0.56 1.8 3.32 4.1 1.87 5.3-10.7 8.3-23.37 13.8-35.05 20.6 0.58-0.6 1.51-1 1.74-1.8 0.67-2.3 0.57-4.7 0.85-7.1-1.01-40.3-3.66-80.7-7.8-120.8-0.62-5.51-1.31-11.01-1.85-16.53-0.36-3.73-3.42-8.5-0.84-11.22 10.21-10.78 23.56-18.13 36.12-26.03 0.79-0.5 1.29 1.42 1.6 2.3 1.58 4.52 1.16 9.6 2.98 14.06 5.63 24.97 11.6 49.82 16.27 75.02 2.42 11.2 4.38 22.5 6.75 33.8 0.47 2.2 1.1 4.4 1.66 6.6 0.17 0.6 1.12 1.6 0.54 1.9-11.53 7.2-23.72 13.3-35.58 19.9 0.56-0.2 1.31-0.2 1.67-0.6 1.34-1.8 4.02-10.1 4.35-11.1 3.84-11.5 7.38-23.2 10.66-34.9 4.25-14.9 5.04-17.1 8.82-32.4 3.37-13.5 8.25-28.42 5.07-42.5 10.72-6.52 21.52-12.91 32.15-19.58 1.6-1-3.59 1.36-5.04 2.57-6.68 5.53-8.29 10.68-12.73 18.4-3.96 6.88-13.07 22.31-16.92 28.81-6.02 10.3-11.62 20.7-18.03 30.7-8.66 13.4-20 24.5-30.69 36.3-14.12 14.8-8.19 9.6-44.1 25.6-0.89 0.4-1.35-1.5-1.54-2.4-0.8-4 4.97-13.2 5.66-16.5 14.48-31.8 30.26-63 45.1-94.59 4.67-10.79 9.52-21.5 14.01-32.37 7.11-17.18 2.15-5.23 6.64-19.47 0.37-1.18 1.14-2.22 1.4-3.42 0.09-0.44-0.25-0.87-0.38-1.31-6.71 11.86-0.63 0.91 33.47-19.17 0.81-0.47-1.76 0.69-2.48 1.28-4.31 3.46-6.68 8.95-10.77 12.62-12.21 16.08-24.38 32.29-34.56 49.76-2.13 3.66-7.42 12.58-9.39 16.59-1 2.05-1.82 4.18-2.62 6.28-0.61 1.6-0.13 4.1-1.62 4.9-41.17 23.6-43.7 31.3-38.08 16.6 5.42-18 11.59-35.67 19.37-52.77 4.04-8.38 7.97-16.72 12.51-24.83 0.9-1.6 1.82-3.19 2.67-4.81 0.36-0.69 0.28-1.75 0.95-2.12 12.21-6.73 24.85-12.62 37.27-18.94-3.13 1.47-4.89 3.9-7.4 6.23-4.61 4.27-9.79 7.91-14.3 12.28-20.94 16.69-41.8 33.61-64.5 47.89-30.27 17.97-60.155 36.77-92.216 51.47l31.973-25.9z"/>
      <path id="path2517" style="stroke-linejoin:round;stroke:#b8860b;stroke-linecap:round;stroke-width:29.6;fill:#daa520" d="m547.22 759.31c0 131.1-107.64 237.5-240.28 237.5-132.63 0-240.27-106.4-240.27-237.5-0.003-131.1 107.64-237.5 240.27-237.5 43.27 0 122.76-63.68 157.84-43.88 23.52 13.28 5.66 105.38 23.35 125.43 36.8 41.73 59.09 96.28 59.09 155.95z"/>
    </g>
    <g id="g2536" transform="matrix(.55361 .83278 -.83278 .55361 1283.2 980.9)">
      <path id="path2522" style="stroke-linejoin:round;stroke:#7fff00;stroke-linecap:round;stroke-width:29.6;fill:none" d="m-634.47 896.43c1.8-0.71 3.61-1.39 5.4-2.13 8.74-3.61 17.89-8.61 26.18-13.15 4.08-2.23 16.2-9.07 12.04-7-6.53 3.26-12.78 7.04-19.17 10.56 22.45-13.77 42.94-30.37 63.36-46.92 6.92-5.89 13.74-11.89 20.23-18.26 12.57-5.12 24.77-11.26 37.71-15.36 1.15-0.36-0.08 2.45-0.47 3.58-0.73 2.07-1.82 3.99-2.85 5.93-4.45 8.4-9.13 16.61-13.38 25.13-7.99 16.55-14.28 33.85-18.72 51.66 0.45 14.28 0.44 4.1-36.69 16.95-1.56 0.54 1.93-2.7 2.72-4.15 1.13-2.06 1.95-4.29 3.03-6.38 2.99-5.77 6.52-11.65 9.79-17.25 10.18-17.42 22.1-33.77 34.03-50.01 15.3-20.38 16.89-20.29 49.04-35.14 0.99-0.45 1.55 1.53 2.32 2.3 0.5 1.19 1.37 2.28 1.49 3.57 0.66 7.51-5.71 20.21-8.47 26.46-4.89 11.09-10.15 22.02-15.16 33.06-14.96 31.14-30.3 62.12-43.74 93.96-1.74 4.67-3.16 7.89-4.25 12.56-0.16 0.68 0.11 1.47-0.23 2.08-0.21 0.39 0.22-1.49-0.18-1.31-11.47 5.09-22.25 11.68-33.86 16.44-2.27 0.94 3.7-3.22 5.55-4.83 11.27-11.72 23.2-22.89 32.52-36.31 3.81-5.49 15.46-25.1 18.72-30.52 8.38-12.68 14.75-27.08 22.62-40.03 1.59-2.6 5.57-8.62 8.98-10.4 12.81-6.7 25.99-12.68 38.99-19.01 0.96 2.43 2.48 4.72 2.88 7.31 1.23 7.9-0.99 18.34-2.59 25.71-3.6 16.51-8.42 32.85-12.85 49.14-4.26 15.76-8.38 31.57-13.26 47.15-12.57 5.96-24.61 13.22-37.73 17.88-1.32 0.47-1.02-2.64-1.32-4.02-0.52-2.42-0.78-4.89-1.15-7.33-1.71-11.51-3.49-22.94-5.57-34.39-4.57-25.07-10.43-49.89-16.84-74.54 0 0-3.03-12.29-3.72-13.62-0.23-0.44-0.93 1.61-0.46 1.43 11.71-4.62 22.18-13.56 34.7-14.91 3.72-0.41-0.47 7.47-0.43 11.21 0.07 5.61 0.5 11.22 0.75 16.84 2.58 40.2 4.64 80.43 8.43 120.54 1.48 20.79-0.5 17.79-37.4 27.69-2.46 0.7-1.37-4.9-2-7.4-2.04-7.9-2.58-10.6-4.41-18.82-3.12-16.15-6.3-32.3-8.76-48.57-1.67-8.25 1.17-16.87-0.59-25.04-0.24-0.21-0.41-0.69-0.72-0.63-0.46 0.07-0.67 0.65-1.04 0.93-0.58 0.44-2.46 1.58-1.82 1.23 41.17-22.37 39.68-23.37 26.14-13.64-2.51 1.81-5 3.67-7.5 5.5-27.35 20.13-57.06 37.25-87.88 51.53-11.25 4.99-23.23 7.82-35.46 8.98-1.02 0.09-2.24 0.86-3.08 0.27-3.61-2.55-1.88-6.49 0.49-8.97 2.71-2.84 17.59-11.63 19.13-12.57 4.95-3.02 9.92-6 14.88-8.99 24.29-12.32 46.95-27.62 70.96-40.47 7.32-3.92 14.86-7.42 22.22-11.28 26.79-14.03 18.21-10.11 44.09-24.08 4.62-2.49-9.16 5.14-13.75 7.71 15.05-9.18 30.37-18.52 42.78-31.2l37.55-15.67c-12.82 13.87-29.45 23.6-45.37 33.43-16.62 9.61-33.18 19.34-49.86 28.84-21.82 12.42-44.34 23.51-66.39 35.48-6.94 3.77-13.6 8.05-20.59 11.72-4.8 2.53 9.35-5.51 14.03-8.27-8.39 5.15-16.87 10.14-25.18 15.42-2.29 1.44-4.31 3.33-6.73 4.53-1.21 0.6-2.62 0.79-3.97 0.78-0.5-0.01-1.69-0.54-1.27-0.82 0.8-0.52 1.9-0.14 2.85-0.22 11.72-1.4 23.13-4.41 33.86-9.44 12.43-5.87 40.42-21.84-7.35 5.8-3.31 1.92 6.62-3.82 9.87-5.82 3.18-1.95 6.36-3.88 9.41-6.01 2.67-1.86 5.16-3.97 7.73-5.96 3.94-3.01 7.54-6.51 11.79-9.04 12.99-7.72 25.99-15.44 39.33-22.52 1.71-0.9 4.56 0.72 5.65 1.74 0.65 0.61 0.96 1.5 1.44 2.25 1.87 8.46-0.72 17.08 0.15 25.66 1.91 16.31 4.75 32.5 7.85 48.62 2.15 8.9 2.2 9.85 4.9 18.27 0.56 1.76 3.32 4.09 1.86 5.23-10.69 8.31-23.36 13.81-35.04 20.71 0.58-0.6 1.51-1 1.74-1.8 0.67-2.3 0.57-4.8 0.85-7.2-1.01-40.33-3.66-80.66-7.8-120.78-0.62-5.52-1.32-11.02-1.85-16.54-0.36-3.73-3.42-8.5-0.84-11.22 10.2-10.77 23.56-18.13 36.12-26.03 0.79-0.5 1.29 1.42 1.6 2.3 1.58 4.52 1.16 9.61 2.98 14.06 5.63 24.97 11.6 49.87 16.27 75.04 2.42 11.22 4.38 22.52 6.75 33.74 0.47 2.22 1.1 4.4 1.66 6.6 0.17 0.66 1.12 1.62 0.53 1.99-11.52 7.19-23.71 13.25-35.57 19.88 0.56-0.23 1.31-0.2 1.67-0.68 1.34-1.79 4.01-10.05 4.34-11.04 3.85-11.56 7.39-23.22 10.66-34.95 4.25-14.82 5.04-17.09 8.83-32.33 3.37-13.57 8.24-28.45 5.07-42.53 10.72-6.52 21.52-12.91 32.15-19.58 1.6-1-3.59 1.36-5.04 2.57-6.68 5.53-8.3 10.68-12.73 18.4-3.96 6.88-13.07 22.32-16.92 28.86-6.02 10.21-11.62 20.67-18.03 30.63-8.67 13.46-20 24.49-30.7 36.28-14.11 14.8-8.18 9.64-44.1 25.67-0.88 0.39-1.34-1.51-1.53-2.46-0.8-4 4.97-13.13 5.66-16.46 14.48-31.79 30.26-62.97 45.09-94.6 4.67-10.79 9.53-21.5 14.02-32.37 7.1-17.18 2.15-5.22 6.64-19.47 0.37-1.18 1.14-2.22 1.4-3.42 0.09-0.44-0.25-0.87-0.38-1.3-6.71 11.85-0.63 0.91 33.47-19.18 0.81-0.47-1.76 0.69-2.49 1.28-4.3 3.47-6.67 8.95-10.76 12.63-12.21 16.07-24.38 32.28-34.56 49.75-2.13 3.66-7.43 12.59-9.39 16.59-1 2.05-1.82 4.19-2.63 6.32-0.61 1.61-0.12 4.04-1.61 4.9-41.17 23.54-43.7 31.24-38.08 16.57 5.42-17.97 11.58-35.67 19.37-52.78 4.03-8.38 7.97-16.72 12.51-24.83 0.9-1.6 1.82-3.18 2.67-4.81 0.36-0.69 0.27-1.75 0.95-2.12 12.21-6.72 24.85-12.62 37.27-18.93-3.13 1.47-4.9 3.89-7.41 6.22-4.6 4.27-9.78 7.91-14.3 12.29-20.93 16.68-41.8 33.6-64.49 47.88-30.28 17.94-60.16 36.81-92.22 51.46l31.97-25.87z"/>
      <path id="path2524" style="stroke-linejoin:round;stroke:#b8860b;stroke-linecap:round;stroke-width:29.6;fill:#daa520" d="m-578.62 471.31c-47.31 43.39-76.94 105.33-76.94 174.1 0 131.1 107.65 237.5 240.28 237.5 119.99 0 219.52-87.08 237.4-200.75-2 5.3-3.92 9.87-5.68 13.56-29.79 62.24-146.58 68.45-260.69 13.84-114.11-54.6-182.53-149.44-152.75-211.68 3.38-7.07 9.71-16.13 18.38-26.57z"/>
      <path id="path2528" style="stroke-linejoin:round;stroke:#b8860b;stroke-linecap:round;stroke-width:29.6;fill:#faf0e6" d="m-55.556 541.25a229.17 125 0 1 1 -458.33 0 229.17 125 0 1 1 458.33 0z" transform="matrix(.90203 .43167 -.43167 .90203 100.19 231.48)"/>
      <path id="path2532" style="stroke-linejoin:round;stroke:#ffe4c4;stroke-linecap:round;stroke-width:29.6;fill:#faf0e6" d="m-116.46 541.25a168.26 80.328 0 1 1 -336.52 0 168.26 80.328 0 1 1 336.52 0z" transform="matrix(.90203 .43167 -.43167 .90203 100.19 231.48)"/>
      <path id="path2534" style="stroke-linejoin:round;stroke:#ffe4c4;stroke-linecap:round;stroke-width:29.6;fill:#faf0e6" d="m-193.81 541.25a90.909 27.048 0 1 1 -181.82 0 90.909 27.048 0 1 1 181.82 0z" transform="matrix(.90203 .43167 -.43167 .90203 100.19 231.48)"/>
    </g>
  </g>
  <metadata>
    <rdf:RDF>
      <cc:Work>
        <dc:format>image/svg+xml</dc:format>
        <dc:type rdf:resource="http://purl.org/dc/dcmitype/StillImage"/>
        <cc:license rdf:resource="http://creativecommons.org/licenses/publicdomain/"/>
        <dc:publisher>
          <cc:Agent rdf:about="http://openclipart.org/">
            <dc:title>Openclipart</dc:title>
          </cc:Agent>
        </dc:publisher>
        <dc:title>Onion</dc:title>
        <dc:date>2010-04-15T15:06:29</dc:date>
        <dc:description/>
        <dc:source>https://openclipart.org/detail/48157/onion-by-hextrust</dc:source>
        <dc:creator>
          <cc:Agent>
            <dc:title>hextrust</dc:title>
          </cc:Agent>
        </dc:creator>
        <dc:subject>
          <rdf:Bag>
            <rdf:li>healthy</rdf:li>
            <rdf:li>kitchen</rdf:li>
            <rdf:li>snack</rdf:li>
            <rdf:li>vegetable</rdf:li>
          </rdf:Bag>
        </dc:subject>
      </cc:Work>
      <cc:License rdf:about="http://creativecommons.org/licenses/publicdomain/">
        <cc:permits rdf:resource="http://creativecommons.org/ns#Reproduction"/>
        <cc:permits rdf:resource="http://creativecommons.org/ns#Distribution"/>
        <cc:permits rdf:resource="http://creativecommons.org/ns#DerivativeWorks"/>
      </cc:License>
    </rdf:RDF>
  </metadata>
</svg>
