<?xml version="1.0" encoding="UTF-8" standalone="no"?>
<svg
   xmlns:dc="http://purl.org/dc/elements/1.1/"
   xmlns:cc="http://creativecommons.org/ns#"
   xmlns:rdf="http://www.w3.org/1999/02/22-rdf-syntax-ns#"
   xmlns:svg="http://www.w3.org/2000/svg"
   xmlns="http://www.w3.org/2000/svg"
   xmlns:xlink="http://www.w3.org/1999/xlink"
   xml:space="preserve"
   enable-background="new 0 0 520 433"
   viewBox="0 0 495 430"
   height="430"
   width="495"
   y="0px"
   x="0px"
   id="Layer_1"
   version="1.1"><title
   id="title4139">Splat 5</title><metadata
   id="metadata8"><rdf:RDF><cc:Work
       rdf:about=""><dc:format>image/svg+xml</dc:format><dc:type
         rdf:resource="http://purl.org/dc/dcmitype/StillImage" /><dc:title>Splat 5</dc:title><cc:license
         rdf:resource="http://creativecommons.org/publicdomain/zero/1.0/" /><dc:creator><cc:Agent><dc:title>Arvin61r58</dc:title></cc:Agent></dc:creator><dc:publisher><cc:Agent><dc:title>Openclipart.org</dc:title></cc:Agent></dc:publisher><dc:identifier>https://openclipart.org/</dc:identifier><dc:source>https://openclipart.org/user-detail/Arvin61r58</dc:source><dc:subject><rdf:Bag><rdf:li>spill</rdf:li><rdf:li>glop</rdf:li><rdf:li>goo</rdf:li><rdf:li>goop</rdf:li><rdf:li>grunge</rdf:li><rdf:li>gunge</rdf:li><rdf:li>gunk</rdf:li><rdf:li>ink</rdf:li><rdf:li>paint</rdf:li><rdf:li>slime</rdf:li><rdf:li>splat</rdf:li><rdf:li></rdf:li></rdf:Bag></dc:subject><dc:description>green splat - remixed</dc:description><dc:contributor><cc:Agent><dc:title>NicholasJudy456 (https://openclipart.org/user-detail/NicholasJudy456)</dc:title></cc:Agent></dc:contributor></cc:Work><cc:License
       rdf:about="http://creativecommons.org/publicdomain/zero/1.0/"><cc:permits
         rdf:resource="http://creativecommons.org/ns#Reproduction" /><cc:permits
         rdf:resource="http://creativecommons.org/ns#Distribution" /><cc:permits
         rdf:resource="http://creativecommons.org/ns#DerivativeWorks" /></cc:License></rdf:RDF></metadata><defs
   id="defs6"><linearGradient
     id="linearGradient4348"><stop
       stop-color="#a9e2af"
       offset="0"
       id="stop4350" /><stop
       stop-color="#4ebf52"
       offset="0.111111"
       id="stop4352" /><stop
       stop-color="#1ba615"
       offset="0.222222"
       id="stop4354" /><stop
       stop-color="#25ac27"
       offset="0.333333"
       id="stop4356" /><stop
       stop-color="#2dae31"
       offset="0.444444"
       id="stop4358" /><stop
       stop-color="#2daf32"
       offset="0.555556"
       id="stop4360" /><stop
       stop-color="#26af2a"
       offset="0.666667"
       id="stop4362" /><stop
       stop-color="#12a20f"
       offset="0.777778"
       id="stop4364" /><stop
       stop-color="#3cb755"
       offset="0.888889"
       id="stop4366" /><stop
       stop-color="#12991b"
       offset="1"
       id="stop4368" /></linearGradient><linearGradient
     gradientUnits="userSpaceOnUse"
     y2="349.02646"
     x2="432.56866"
     y1="94.259621"
     x1="54.647392"
     id="linearGradient4401"
     xlink:href="#linearGradient4348" /><filter
     width="1"
     x="0"
     height="1"
     y="0"
     id="filter4538"
     style="color-interpolation-filters:sRGB;"><feGaussianBlur
       id="feGaussianBlur4540"
       result="result0"
       in="SourceGraphic"
       stdDeviation="6" /><feDiffuseLighting
       id="feDiffuseLighting4542"
       result="result5"
       surfaceScale="4"
       diffuseConstant="1"
       lighting-color="rgb(255,255,255)"><feDistantLight
         id="feDistantLight4544"
         azimuth="235"
         elevation="45" /></feDiffuseLighting><feComposite
       id="feComposite4546"
       operator="arithmetic"
       result="fbSourceGraphic"
       in="result5"
       in2="SourceGraphic"
       k1="1.4" /><feGaussianBlur
       id="feGaussianBlur4548"
       stdDeviation="6"
       in="fbSourceGraphic"
       result="result0" /><feSpecularLighting
       id="feSpecularLighting4550"
       in="result0"
       result="result1"
       lighting-color="rgb(166,254,15)"
       surfaceScale="4"
       specularConstant="1"
       specularExponent="25"><fePointLight
         id="fePointLight4558" /></feSpecularLighting><feComposite
       id="feComposite4554"
       result="result4"
       in2="result1"
       in="fbSourceGraphic"
       operator="arithmetic"
       k2="1"
       k3="1" /><feComposite
       id="feComposite4556"
       in="result4"
       in2="SourceGraphic"
       result="result2"
       operator="in" /></filter></defs>  <g
   id="g4565"><path
     style="fill:url(#linearGradient4401);fill-opacity:1.0;filter:url(#filter4538)"
     d="m 232.64636,411.72827 c -13.26874,-5.48957 -11.39159,-13.49711 -5.74162,-21.79159 3.65477,-5.36542 -3.69788,-17.74184 -7.23579,-9.11472 -8.1889,19.96848 -34.87328,7.98757 -20.08229,-10.836 8.13084,-10.34762 -5.47342,-20.81681 -15.1451,-12.41123 -13.11217,11.39567 -11.08661,36.02003 -36.16354,38.628 -11.10731,1.15515 -25.21539,-5.7085 -26.09705,-16.61855 -1.59765,-19.76999 40.49709,-36.30324 20.53777,-50.82071 -14.2733,-10.38173 -25.7676,14.9651 -35.77506,27.64151 -7.240322,9.17129 -23.319484,-5.67961 -20.836158,-13.89153 3.57363,-11.81736 26.851328,-14.77141 25.614868,-29.61377 -0.89746,-10.77305 -9.31782,-15.84823 -19.305258,-12.65331 -13.371054,4.27732 -27.055444,11.05099 -40.803234,10.8414 -7.09387,-0.10815 -17.365149,-1.29731 -20.68252,-7.34823 -4.19147,-7.64529 -0.0085,-18.09222 8.594091,-22.05067 13.08956,-6.02311 29.398976,-11.2721 34.555856,-26.56308 2.400445,-7.11771 -1.483202,-13.65874 -9.833161,-13.25837 -9.68494,0.46438 -38.957863,2.99407 -30.235993,-10.63864 8.026147,-12.54526 58.787368,-15.02855 31.059768,-31.01595 -13.500464,-7.7842 -55.30768,8.39046 -49.132941,-15.97284 5.816382,-22.94935 38.388893,-23.4363 58.826888,-23.1042 14.523163,0.23599 24.07342,-18.55703 10.177939,-23.79843 -11.296945,-4.26122 -34.347852,-15.24406 -12.553768,-24.19369 10.2618,-4.21395 20.258615,-0.33654 29.956373,1.31886 8.88907,1.51736 39.36821,12.01623 26.42372,-4.86715 -6.11722,-7.97863 -18.31512,-24.462114 -5.67659,-27.9916 17.06709,-4.766223 31.64954,22.67289 47.97749,17.476734 19.82281,-6.308344 -9.92119,-37.30849 1.52249,-51.609648 13.0279,-16.280961 41.67553,-5.375823 54.18448,8.785347 10.92291,12.365645 31.55331,26.750197 28.95313,0.388705 -2.0065,-20.342548 17.06829,-21.85276 22.84668,-4.256963 3.87307,11.793884 18.26532,32.506578 28.00011,16.918226 6.51881,-10.438592 5.37166,-37.839365 23.16547,-33.280496 8.28742,2.123281 10.20112,6.676579 12.52132,14.678462 3.99669,13.78373 -3.19056,57.132983 16.87823,45.25651 14.50077,-8.581386 26.24915,-19.362288 42.45607,-22.394989 10.09631,-1.88926 23.06218,1.027402 30.14575,8.421919 5.08698,5.310284 1.64463,12.929564 -4.63452,19.293083 -13.00426,13.179 -37.6837,12.75392 -44.03761,29.4238 -3.9863,10.4583 13.90536,5.31221 21.51877,5.16545 17.67531,-0.34072 37.52067,-9.32217 53.03919,-0.38313 7.84045,4.51629 7.54662,15.78654 2.38691,25.24875 -3.80098,6.97049 -7.10442,11.2552 -14.38531,13.90063 -12.62634,4.58764 -29.2152,2.61741 -38.1934,12.57263 -13.43756,14.89985 19.47921,11.29703 31.10497,13.68441 11.45776,2.35288 24.28052,-0.75945 34.2137,6.66263 12.78537,9.55324 6.3511,27.45688 -8.76755,28.29764 -10.93865,0.60831 -24.49339,-11.55275 -32.63966,-4.44419 -15.91069,13.8839 17.84153,18.91199 30.3591,21.28493 5.66017,1.07299 12.25186,7.69914 11.91514,14.69168 -0.56858,11.80759 -17.22789,11.32529 -25.69733,9.17618 -13.49614,-3.42464 -39.66351,-15.53128 -40.77654,1.0133 -1.12712,16.75398 27.08738,20.154 37.82053,32.91992 4.93827,5.87354 2.23795,15.28679 -8.02643,17.70659 -7.50333,1.76889 -12.97796,4.65733 -19.87296,-0.18755 -8.50228,-5.97426 -26.19098,-14.87916 -32.0822,-7.57845 -9.67939,11.99521 15.04874,20.37719 16.91521,31.47294 1.36722,8.12783 -1.97349,17.18305 -10.64033,14.83314 -17.39589,-4.71669 -31.68799,-23.77286 -49.69217,-22.36497 -15.44604,1.20785 8.1886,21.86432 10.31524,32.49913 3.10789,15.54178 -4.96186,30.28761 -20.80682,28.07034 -17.25711,-2.41488 -14.79028,-25.61428 -19.86713,-39.4371 -7.00159,-19.06334 -13.9955,17.88812 -12.91662,25.87694 1.35556,10.03757 -14.81247,16.57811 -20.45859,7.59935 -4.39349,-6.98677 1.56999,-18.89107 -1.46918,-27.29461 -5.16463,-14.28061 -14.11899,2.98 -12.26724,13.52104 3.64544,20.75162 -8.54667,35.9941 -31.45559,26.51618 z"
     id="path4393" /><path
     style="fill:#21b04b;filter:url(#filter4538)"
     d="m 380.51739,396.20707 c -17.07477,-28.26432 38.24147,-1.94409 14.08273,13.12744 -10.79148,6.73231 -9.6739,-5.82938 -14.08273,-13.12744 z"
     id="path4391" /><path
     style="fill:#21b04b;filter:url(#filter4538)"
     d="m 35.868459,362.44525 c -14.262795,-10.17128 29.728679,-35.54692 30.764799,-26.49697 1.37187,11.98255 -19.151009,34.77915 -30.764799,26.49697 z"
     id="path4389" /><path
     style="fill:#21b04b;filter:url(#filter4538)"
     d="M 99.366954,70.013015 C 79.562662,63.934103 76.277097,37.595284 97.671744,54.617693 c 7.698296,6.125064 23.433186,22.067778 1.69521,15.395322 z"
     id="path4387" /><path
     style="fill:#21b04b;filter:url(#filter4538)"
     d="m 367.90472,51.13588 c -6.71293,-6.589553 1.37982,-18.300082 7.65639,-26.879647 13.75289,-18.7990754 32.77362,-1.152421 13.00305,11.993889 -6.99072,4.648431 -14.6161,20.818027 -20.65944,14.885758 z"
     id="path4136" /></g>
</svg>