<?xml version="1.0" encoding="UTF-8" standalone="no"?>
<!-- Generator: Adobe Illustrator 16.0.0, SVG Export Plug-In . SVG Version: 6.00 Build 0)  -->

<svg
   xmlns:dc="http://purl.org/dc/elements/1.1/"
   xmlns:cc="http://creativecommons.org/ns#"
   xmlns:rdf="http://www.w3.org/1999/02/22-rdf-syntax-ns#"
   xmlns:svg="http://www.w3.org/2000/svg"
   xmlns="http://www.w3.org/2000/svg"
   xmlns:sodipodi="http://sodipodi.sourceforge.net/DTD/sodipodi-0.dtd"
   xmlns:inkscape="http://www.inkscape.org/namespaces/inkscape"
   version="1.1"
   id="locomotive_engine"
   x="0px"
   y="0px"
   width="314.583px"
   height="336.458px"
   viewBox="0 0 314.583 336.458"
   enable-background="new 0 0 314.583 336.458"
   xml:space="preserve"
   sodipodi:docname="locomotive engine.svg"
   inkscape:version="0.92.0 r15299"><title
     id="title4288">locomotive engine</title><metadata
     id="metadata4286"><rdf:RDF><cc:Work
         rdf:about=""><dc:format>image/svg+xml</dc:format><dc:type
           rdf:resource="http://purl.org/dc/dcmitype/StillImage" /><dc:title>locomotive engine</dc:title><dc:date>8/4/2017</dc:date><dc:creator><cc:Agent><dc:title>cactus cowboy</dc:title></cc:Agent></dc:creator></cc:Work></rdf:RDF></metadata><defs
     id="defs4284" /><sodipodi:namedview
     pagecolor="#ffffff"
     bordercolor="#666666"
     borderopacity="1"
     objecttolerance="10"
     gridtolerance="10"
     guidetolerance="10"
     inkscape:pageopacity="0"
     inkscape:pageshadow="2"
     inkscape:window-width="1920"
     inkscape:window-height="1052"
     id="namedview4282"
     showgrid="false"
     inkscape:zoom="1"
     inkscape:cx="157.2915"
     inkscape:cy="168.229"
     inkscape:window-x="-9"
     inkscape:window-y="-9"
     inkscape:window-maximized="1"
     inkscape:current-layer="locomotive_engine" /><g
     id="train_parts"><rect
       x="155.629"
       y="6.469"
       fill="#FF0000"
       stroke="#000000"
       stroke-width="0.9312"
       width="10.321"
       height="7.993"
       id="rect4042" /><rect
       x="149.5"
       y="14.462"
       fill="#FF0000"
       stroke="#000000"
       stroke-width="0.699"
       stroke-linejoin="round"
       width="22.58"
       height="4.035"
       id="rect4044" /><rect
       x="69.186"
       y="217.998"
       fill="#A80000"
       stroke="#000000"
       stroke-width="0.699"
       stroke-linejoin="round"
       width="226.895"
       height="30.962"
       id="rect4046" /><polygon
       fill="#A80000"
       stroke="#000000"
       stroke-width="0.699"
       stroke-linejoin="round"
       points="66.937,214.118 74.152,219.085    77.179,220.094 77.179,310.493 21.075,267.428 21.075,242.519 24.024,243.527  "
       id="polygon4048" /><polygon
       fill="#00B137"
       stroke="#000000"
       stroke-width="1.2416"
       points="66.393,116.967 47.382,151.73 47.382,105.482    47.382,98.033 48.545,82.203 39.312,89.031 38.381,88.179 38.381,80.264 39.312,76.229 90.681,22.608 92.775,20.669 97.975,19.66    163.622,16.789 225.001,25.558 231.286,29.593 239.512,41.387 265.273,84.299 264.188,85.152 259.066,88.179 244.633,94.153    165.484,92.214 76.325,123.795 49.632,151.575 65.927,120.847  "
       id="polygon4050" /><polygon
       fill="#002D12"
       stroke="#000000"
       stroke-width="1.2416"
       points="167.656,78.323 167.656,53.492 249.832,62.338    251.927,65.287 253.867,69.322 255.885,74.443 255.885,99.042 167.656,84.144  "
       id="polygon4052" /><polygon
       fill="#002D12"
       stroke="#000000"
       stroke-width="0.9312"
       points="52.58,242.209 52.58,232.819 65.384,225.836 67.634,227    67.789,250.046 72.988,249.58 72.988,281.396 72.988,305.761 66.237,300.64 67.246,293.5 68.1,285.43 68.1,273.17 67.246,264.014    65.074,254.313 62.436,250.278 58.4,248.494 58.4,239.493  "
       id="polygon4054" /><polygon
       fill="#002D12"
       stroke="#000000"
       stroke-width="0.699"
       stroke-linejoin="round"
       points="33.259,254.935 33.259,243.761    42.57,239.183 42.57,248.339 56.771,242.209 56.771,248.649 50.641,249.969 47.692,251.598 46.14,255.943 62.436,265.255    62.436,298.156 53.511,291.172 52.58,285.197 51.572,281.162 48.545,278.68 46.683,283.258 47.537,287.138 35.664,277.748  "
       id="polygon4056" /><polygon
       fill="#A89187"
       stroke="#000000"
       stroke-width="1.2416"
       points="74.152,55.277 166.647,53.492 166.647,84.144    67.013,121.855 67.013,63.192 67.013,60.321 68.1,59.39 70.117,57.372 71.126,55.277 73.065,55.277  "
       id="polygon4058" /><polygon
       fill="#A89187"
       stroke="#000000"
       stroke-width="0.699"
       stroke-linejoin="round"
       points="50.641,83.213 57.779,79.178    57.779,115.958 49.632,119.45  "
       id="polygon4060" /><rect
       x="159.742"
       y="8.486"
       fill="#A89187"
       stroke="#000000"
       stroke-width="0.699"
       stroke-linejoin="round"
       width="2.018"
       height="3.104"
       id="rect4062" /><polygon
       fill="#008837"
       stroke="#000000"
       stroke-width="1.2416"
       points="40.319,76.229 58.866,58.458 59.874,77.237 50.485,81.272    50.485,79.178 39.312,87.093 39.312,80.186 40.319,79.178  "
       id="polygon4064" /><polygon
       fill="#130044"
       stroke="#000000"
       stroke-width="0.699"
       stroke-linejoin="round"
       points="49.632,121.855 57.779,117.897    57.779,126.822 49.632,139.78  "
       id="polygon4066" /><polygon
       stroke="#000000"
       stroke-width="0.699"
       stroke-linejoin="round"
       points="80.05,59.778 156.794,59.079 157.88,59.39    158.967,59.934 159.975,60.941 160.363,62.106 160.363,63.192 160.363,78.168 68.721,118.597 68.721,66.296 69.574,64.279    70.506,62.648 71.747,61.485 73.92,60.166 75.782,59.934 76.868,59.778  "
       id="polygon4068" /><polygon
       stroke="#000000"
       stroke-width="0.699"
       stroke-linejoin="round"
       points="176.891,59.39 245.719,67.228 247.038,67.228    248.436,67.771 249.289,68.546 250.375,69.4 250.918,70.797 250.918,72.271 250.918,90.118 173.089,79.41 173.089,63.58    173.398,62.493 173.709,61.02 174.563,60.089 175.649,59.39  "
       id="polygon4070" /><polygon
       fill="#13007C"
       stroke="#000000"
       stroke-width="0.699"
       stroke-linejoin="round"
       points="110.623,26.954 148.956,26.954    150.508,27.109 151.672,27.653 153.069,28.739 154.155,30.136 155.087,31.3 155.629,33.706 155.629,34.326 155.629,35.024    155.242,36.344 154.932,37.74 153.534,39.68 151.129,41.311 148.879,41.853 110.623,41.853 108.295,41.311 106.433,40.068    104.804,38.361 103.949,36.731 103.562,34.559 103.562,33.24 103.949,31.844 105.19,29.593 107.597,27.498 108.915,26.954    109.77,26.954  "
       id="polygon4072" /><polygon
       fill="#FFFFFF"
       stroke="#000000"
       stroke-width="1.2416"
       points="7.264,220.637 47.537,98.033 47.537,147.695    66.937,114.872 68.1,216.291 50.485,227.154 50.485,242.907 44.665,245.39 44.665,232.664 31.939,240.502 31.939,255.4    27.904,255.4 27.904,242.519 24.024,245.468 24.024,271.229 6.41,257.418 6.41,224.672  "
       id="polygon4074" /><polygon
       fill="#FFFFFF"
       stroke="#000000"
       stroke-width="1.2416"
       points="68.022,217.145 68.022,114.251 121.409,76.229    190.315,70.408 246.806,79.178 285.526,118.907 291.967,128.917 292.976,131.943 300.115,132.72 300.115,217.145 67.013,217.998     "
       id="polygon4076" /><polygon
       fill="#FFFFFF"
       stroke="#000000"
       stroke-width="1.2416"
       points="75.238,241.045 294.993,241.045 294.993,299.474    270.396,330.281 109.226,330.281 85.481,307.389 75.238,307.389  "
       id="polygon4078" /><line
       fill="none"
       stroke="#000000"
       stroke-width="0.699"
       stroke-linejoin="round"
       x1="7.419"
       y1="225.06"
       x2="20.067"
       y2="186.882"
       id="line4080" /><rect
       x="180.149"
       y="94.153"
       fill="none"
       stroke="#000000"
       stroke-width="1.2416"
       width="24.443"
       height="39.729"
       id="rect4082" /><line
       fill="none"
       stroke="#000000"
       stroke-width="0.699"
       stroke-linejoin="round"
       x1="47.692"
       y1="146.919"
       x2="20.455"
       y2="202.246"
       id="line4084" /><line
       fill="none"
       stroke="#000000"
       stroke-width="0.699"
       stroke-linejoin="round"
       x1="20.067"
       y1="240.502"
       x2="20.067"
       y2="187.813"
       id="line4086" /><line
       fill="none"
       stroke="#000000"
       stroke-width="1.2416"
       x1="166.647"
       y1="49.302"
       x2="166.647"
       y2="22.608"
       id="line4088" /><line
       fill="none"
       stroke="#000000"
       stroke-width="0.699"
       stroke-linejoin="round"
       x1="9.437"
       y1="257.729"
       x2="24.879"
       y2="269.678"
       id="line4090" /><line
       fill="none"
       stroke="#FFFFFF"
       stroke-width="0.699"
       stroke-linejoin="round"
       x1="74.152"
       y1="87.093"
       x2="94.716"
       y2="67.228"
       id="line4092" /><line
       fill="none"
       stroke="#FFFFFF"
       stroke-width="0.699"
       stroke-linejoin="round"
       x1="82.532"
       y1="85.152"
       x2="100.846"
       y2="67.228"
       id="line4094" /><line
       fill="none"
       stroke="#FFFFFF"
       stroke-width="0.699"
       stroke-linejoin="round"
       x1="93.706"
       y1="81.272"
       x2="100.846"
       y2="74.443"
       id="line4096" /><polygon
       fill="#FF0000"
       points="87.499,241.045 108.295,241.045 87.499,260.987  "
       id="polygon4098" /><polygon
       fill="#FF0000"
       points="75.472,294.354 124.203,241.045 142.903,241.045 81.524,307.389 75.472,307.389  "
       id="polygon4100" /><polygon
       fill="#FF0000"
       points="91.999,313.441 160.285,241.045 175.805,241.045 100.846,322.521  "
       id="polygon4102" /><polygon
       fill="#FF0000"
       points="111.166,330.281 195.358,241.045 208.705,241.82 127.617,330.281  "
       id="polygon4104" /><polygon
       fill="#FF0000"
       points="145.076,330.281 197.376,270.765 196.445,291.482 161.449,330.281  "
       id="polygon4106" /><polygon
       fill="#FF0000"
       points="177.822,330.281 193.264,311.348 205.68,330.281  "
       id="polygon4108" /><polygon
       fill="#FF0000"
       points="195.358,241.045 225.544,241.045 287.001,309.717 279.164,319.418 207.852,241.898 194.272,241.82     "
       id="polygon4110" /><polygon
       fill="#FF0000"
       points="212.896,267.971 270.396,330.281 252.858,330.281 206.766,277.748  "
       id="polygon4112" /><polygon
       fill="#FF0000"
       points="196.445,281.628 239.512,330.281 220.966,330.281 191.324,290.629  "
       id="polygon4114" /><polygon
       fill="#FF0000"
       points="239.977,241.045 293.597,301.182 294.993,299.474 294.993,281.396 255.885,241.045  "
       id="polygon4116" /><polygon
       fill="#FF0000"
       points="272.49,241.045 294.993,266.108 294.993,241.045  "
       id="polygon4118" /><polygon
       fill="#130044"
       stroke="#000000"
       stroke-width="0.699"
       stroke-linejoin="round"
       points="18.593,196.193 18.593,242.907    21.93,241.433 21.93,265.255 8.039,254.857 8.039,227.931  "
       id="polygon4120" /><polygon
       fill="#130044"
       stroke="#000000"
       stroke-width="0.699"
       stroke-linejoin="round"
       points="21.852,203.255 64.919,121.855    64.919,142.807 21.852,211.325  "
       id="polygon4122" /><polygon
       fill="#130044"
       stroke="#000000"
       stroke-width="0.699"
       stroke-linejoin="round"
       points="24.413,177.027 24.413,190.141    22.396,195.029 22.396,183.934  "
       id="polygon4124" /><polygon
       fill="#130044"
       stroke="#000000"
       stroke-width="0.699"
       stroke-linejoin="round"
       points="29.767,159.955 29.767,179.122    26.741,186.028 26.741,170.043  "
       id="polygon4126" /><polygon
       fill="#130044"
       stroke="#000000"
       stroke-width="0.699"
       stroke-linejoin="round"
       points="36.363,139.78 36.363,163.758    32.56,172.526 32.56,152.429  "
       id="polygon4128" /><polygon
       fill="#130044"
       stroke="#000000"
       stroke-width="0.699"
       stroke-linejoin="round"
       points="44.277,116.967 44.277,146.919    39.544,157.782 39.544,132.797  "
       id="polygon4130" /><polygon
       fill="#130044"
       stroke="#000000"
       stroke-width="0.699"
       stroke-linejoin="round"
       points="51.572,116.424 52.27,84.531    55.607,83.289 55.607,114.872  "
       id="polygon4132" /><polygon
       fill="#A89187"
       stroke="#000000"
       stroke-width="1.2416"
       points="21.93,237.785 21.93,215.748 68.022,144.746    68.022,211.325 24.879,241.045 21.93,240.347  "
       id="polygon4134" /><polygon
       fill="#A89187"
       stroke="#000000"
       stroke-width="1.2416"
       points="67.789,144.746 191.944,208.144 300.115,141.721    300.115,210.859 73.842,210.859 72.988,210.859 67.789,211.325  "
       id="polygon4136" /><polygon
       fill="#FFFFFF"
       stroke="#000000"
       stroke-width="0.699"
       stroke-linejoin="round"
       points="98.906,22.608 163.622,19.66    165.484,20.669 164.631,22.608 161.449,22.608  "
       id="polygon4138" /><polygon
       fill="#FFFFFF"
       points="145.93,37.042 136.463,37.042 136.463,36.11 142.36,33.162 143.214,32.696 143.758,31.998    143.989,31.223 143.369,30.523 142.36,30.446 141.352,30.446 140.42,30.446 139.567,30.523 139.023,31.223 136.695,31.61    137.006,30.757 138.092,29.981 138.791,29.826 139.567,29.671 140.498,29.671 141.352,29.671 142.36,29.671 143.369,29.671    143.989,29.826 145.154,30.213 145.93,31.067 145.93,32.153 145.31,33.162 144.61,33.627 139.023,36.421 145.93,36.421  "
       id="polygon4140" /><polygon
       fill="#FFFFFF"
       points="131.187,37.197 129.945,37.275 129.945,36.421 130.643,36.421 131.808,36.11 132.505,35.335    132.815,34.016 132.815,33.24 132.815,32.541 132.505,31.223 131.729,30.523 130.487,30.368 129.401,30.213 128.47,30.523    127.462,31.3 127.151,32.153 127.073,32.696 127.073,33.706 127.151,34.326 127.462,35.413 128.237,36.11 129.324,36.421    129.945,36.421 129.945,37.275 128.78,37.197 127.928,37.042 127.151,36.887 126.297,36.421 125.6,35.878 125.056,34.559    124.979,33.473 125.056,32.386 125.211,31.61 125.6,31.067 127.073,29.981 127.928,29.671 128.858,29.593 129.945,29.593    131.187,29.593 132.272,29.671 133.126,29.902 133.746,30.368 134.756,31.533 134.988,32.309 135.222,33.24 135.222,34.559    134.678,35.8 133.126,36.887 132.272,37.042  "
       id="polygon4142" /><polygon
       fill="#FFFFFF"
       points="120.323,33.162 118.382,32.696 119.779,32.541 121.176,32.153 120.865,30.757 119.003,30.368    117.529,30.368 116.21,30.757 115.899,32.153 117.529,32.541 120.323,33.162 121.797,33.396 123.271,34.248 123.271,35.878    121.642,36.965 119.624,37.275 118.382,37.275 116.443,37.197 114.891,36.654 113.727,35.878 113.261,34.559 114.657,33.396    116.52,33.162 118.382,33.706 116.985,33.938 115.667,34.481 115.667,35.645 117.374,36.421 119.003,36.421 120.323,36.11    121.409,34.559 120.013,33.782 118.382,33.706 116.52,33.162 115.123,32.852 113.727,31.998 113.805,30.523 115.667,29.826    117.374,29.593 119.469,29.593 121.254,29.826 122.728,30.368 123.349,31.998 121.254,33.162  "
       id="polygon4144" /><polygon
       fill="#FFFFFF"
       stroke="#000000"
       stroke-width="1.2416"
       points="66.937,227.154 66.937,215.98 77.179,211.325    77.179,222.81  "
       id="polygon4146" /><rect
       x="77.179"
       y="211.325"
       fill="#FFFFFF"
       stroke="#000000"
       stroke-width="1.2416"
       width="231.161"
       height="11.795"
       id="rect4148" /><polygon
       fill="#A89187"
       stroke="#000000"
       stroke-width="0.9312"
       stroke-linecap="round"
       stroke-linejoin="round"
       points="   33.88,291.716 35.121,291.405 36.208,290.086 37.294,288.146 38.147,285.508 38.923,282.637 39.467,279.067 39.777,275.109    40.01,270.997 39.777,266.729 39.467,262.927 38.923,259.513 38.147,256.331 37.294,253.849 36.208,251.908 35.121,250.667    33.88,250.278 28.759,250.278 28.759,291.716  "
       id="polygon4150" /><polygon
       fill="#A89187"
       stroke="#000000"
       stroke-width="1.2416"
       stroke-linecap="round"
       stroke-linejoin="round"
       points="   56.771,308.32 58.322,307.778 59.952,305.916 61.349,303.433 62.668,299.863 63.677,295.749 64.375,290.862 64.841,285.663    65.15,279.921 64.841,274.179 64.375,268.824 63.677,264.014 62.668,259.823 61.349,256.486 59.952,253.771 58.322,252.141    56.771,251.598 49.865,251.442 49.865,308.32  "
       id="polygon4152" /><polygon
       fill="#A89187"
       stroke="#000000"
       stroke-width="0.699"
       stroke-linejoin="round"
       points="75.238,241.045 87.499,241.045    87.499,279.766 75.238,292.802 75.238,242.131  "
       id="polygon4154" /><rect
       x="119.313"
       y="245.934"
       stroke="#000000"
       stroke-width="0.699"
       stroke-linejoin="round"
       width="24.676"
       height="7.915"
       id="rect4156" /><rect
       x="90.681"
       y="280.542"
       stroke="#000000"
       stroke-width="0.6208"
       stroke-linejoin="round"
       width="80.08"
       height="3.025"
       id="rect4158" /><rect
       x="112.175"
       y="307.544"
       stroke="#000000"
       stroke-width="0.699"
       stroke-linejoin="round"
       width="16.373"
       height="0.932"
       id="rect4160" /><rect
       x="257.126"
       y="302.502"
       stroke="#000000"
       stroke-width="0.699"
       stroke-linejoin="round"
       width="5.121"
       height="21.882"
       id="rect4162" /><rect
       x="227.251"
       y="280.619"
       stroke="#000000"
       stroke-width="0.6208"
       width="64.716"
       height="2.018"
       id="rect4164" /><rect
       x="242.538"
       y="245.934"
       stroke="#000000"
       stroke-width="0.699"
       stroke-linejoin="round"
       width="22.735"
       height="5.819"
       id="rect4166" /><rect
       x="171.691"
       y="241.82"
       stroke="#000000"
       stroke-width="0.9312"
       width="54.474"
       height="53.619"
       id="rect4168" /><polygon
       stroke="#000000"
       stroke-width="0.699"
       stroke-linejoin="round"
       points="49.865,308.244 51.339,307.699 52.969,305.916    54.442,303.433 55.528,299.863 56.615,295.749 57.47,290.862 57.856,285.663 58.245,279.921 57.856,274.179 57.47,268.824    56.615,264.014 55.528,259.823 54.442,256.486 52.969,253.771 51.339,251.986 49.865,251.442 48.079,251.986 46.45,253.771    44.976,256.486 43.813,259.823 42.726,264.014 42.026,268.824 41.484,274.179 41.406,279.921 41.484,285.663 42.026,290.862    42.726,295.749 43.813,299.863 44.976,303.433 46.45,305.916 48.079,307.699  "
       id="polygon4170" /><polygon
       stroke="#000000"
       stroke-width="0.699"
       stroke-linejoin="round"
       points="28.68,291.716 29.845,291.405 31.086,290.009    32.173,288.146 33.025,285.508 33.802,282.481 34.346,279.067 34.655,275.109 34.888,270.92 34.655,266.729 34.346,262.927    33.802,259.357 33.025,256.331 32.173,253.849 31.086,251.908 29.845,250.589 28.68,250.278 27.517,250.589 26.275,251.908    25.344,253.849 24.413,256.331 23.714,259.357 23.171,262.927 22.706,266.729 22.628,270.92 22.706,275.109 23.171,279.067    23.714,282.481 24.413,285.508 25.344,288.146 26.275,290.009 27.517,291.405  "
       id="polygon4172" /><polygon
       fill="#A89187"
       stroke="#000000"
       stroke-width="0.699"
       stroke-linejoin="round"
       points="28.68,288.068 29.456,287.681    30.232,286.749 30.853,285.197 31.396,283.024 31.862,280.542 32.173,277.748 32.405,274.566 32.405,271.229 32.405,267.971    32.173,264.712 31.862,261.841 31.396,259.357 30.853,257.34 30.232,255.788 29.456,254.702 28.68,254.313 28.06,254.702    27.283,255.788 26.586,257.34 26.042,259.357 25.654,261.841 25.344,264.712 25.11,267.971 25.11,271.229 25.11,274.566    25.344,277.748 25.654,280.542 26.042,283.024 26.586,285.197 27.283,286.749 28.06,287.681  "
       id="polygon4174" /><polygon
       fill="#A89187"
       stroke="#000000"
       stroke-width="0.9312"
       stroke-linecap="round"
       stroke-linejoin="round"
       points="   30,281.162 30.853,280.309 31.163,279.455 31.474,278.136 31.862,276.507 31.939,274.877 32.018,272.859 32.173,270.765    32.018,268.747 31.939,266.729 31.862,264.944 31.474,263.393 31.163,262.229 30.853,261.143 30,260.366 28.138,260.366    28.138,281.162  "
       id="polygon4176" /><polygon
       fill="#A89187"
       stroke="#000000"
       stroke-width="0.699"
       stroke-linejoin="round"
       points="49.865,303.198 50.718,302.812    51.572,301.415 52.58,299.318 53.356,296.604 53.899,293.035 54.442,289.232 54.598,284.81 54.753,280.309 54.598,275.653    54.442,271.308 53.899,267.428 53.356,264.014 52.58,261.143 51.572,259.047 50.718,257.65 49.865,257.185 48.778,257.65    47.692,259.047 46.838,261.143 46.062,264.014 45.52,267.428 44.976,271.308 44.665,275.653 44.665,280.309 44.665,284.81    44.976,289.232 45.52,293.035 46.062,296.604 46.838,299.318 47.692,301.415 48.778,302.812  "
       id="polygon4178" /><polygon
       fill="#A89187"
       stroke="#000000"
       stroke-width="0.9312"
       stroke-linecap="round"
       stroke-linejoin="round"
       points="   51.494,293.889 52.58,292.802 52.969,291.482 53.435,289.775 53.899,287.603 54.055,285.197 54.287,282.481 54.442,279.61    54.287,276.895 54.055,274.179 53.899,271.618 53.435,269.601 52.969,267.815 52.58,266.419 52.037,265.565 48.855,265.255    48.855,293.889  "
       id="polygon4180" /><polygon
       fill="#A89187"
       stroke="#000000"
       stroke-width="0.9312"
       stroke-linecap="round"
       stroke-linejoin="round"
       points="   28.138,281.162 28.913,280.309 29.301,279.455 29.689,278.136 29.845,276.507 30.311,274.8 30.311,272.859 30.311,270.765    30.311,268.747 30.311,266.729 29.845,264.944 29.689,263.393 29.301,262.229 28.913,261.143 28.138,260.366 27.283,261.143    26.973,262.229 26.586,263.393 26.275,264.944 26.197,266.729 26.042,268.747 26.042,270.765 26.042,272.859 26.197,274.8    26.275,276.507 26.586,278.136 26.973,279.455 27.283,280.309  "
       id="polygon4182" /><polygon
       fill="#A89187"
       stroke="#000000"
       stroke-width="0.9312"
       stroke-linecap="round"
       stroke-linejoin="round"
       points="   48.855,293.889 50.097,292.802 50.641,291.482 51.028,289.775 51.339,287.603 51.728,285.12 51.804,282.481 51.882,279.61    51.804,276.895 51.728,274.179 51.339,271.618 51.028,269.601 50.641,267.738 50.097,266.419 49.555,265.565 48.313,265.565    47.692,266.419 47.382,267.738 46.838,269.601 46.45,271.618 46.295,274.179 46.062,276.895 46.062,279.61 46.062,282.481    46.295,285.12 46.45,287.603 46.838,289.775 47.382,291.482 47.692,292.802 48.313,293.578  "
       id="polygon4184" /><rect
       x="220.966"
       y="248.96"
       fill="#FFFFFF"
       stroke="#000000"
       stroke-width="1.2416"
       width="26.771"
       height="20.718"
       id="rect4186" /><polygon
       fill="#FFFFFF"
       stroke="#000000"
       stroke-width="1.2416"
       points="244.633,248.96 229.424,249.813 226.94,252.219    226.397,268.824 223.139,268.747 223.139,252.84 228.338,248.96  "
       id="polygon4188" /><polygon
       fill="#FFFFFF"
       stroke="#000000"
       stroke-width="1.2416"
       points="246.806,268.747 235.477,266.729 235.477,250.899    246.806,249.735  "
       id="polygon4190" /><polygon
       fill="#FFFFFF"
       stroke="#000000"
       stroke-width="1.2416"
       points="226.165,250.899 218.25,252.451 218.25,266.031    226.165,268.281  "
       id="polygon4192" /><line
       fill="none"
       stroke="#000000"
       stroke-width="0.699"
       stroke-linejoin="round"
       x1="206.067"
       y1="252.994"
       x2="218.482"
       y2="252.994"
       id="line4194" /><polyline
       fill="none"
       stroke="#000000"
       stroke-width="0.699"
       stroke-linejoin="round"
       points="206.067,252.994 206.067,265.565    218.482,265.565  "
       id="polyline4196" /><line
       fill="none"
       stroke="#000000"
       stroke-width="1.2416"
       x1="222.052"
       y1="265.643"
       x2="220.966"
       y2="254.857"
       id="line4198" /><polyline
       fill="none"
       stroke="#000000"
       stroke-width="0.9312"
       stroke-linecap="round"
       stroke-linejoin="round"
       points="   85.481,243.761 85.481,277.593 78.188,286.594 78.188,267.66 79.352,263.703 79.352,243.761  "
       id="polyline4200" /><line
       fill="none"
       stroke="#000000"
       stroke-width="1.2416"
       x1="241.606"
       y1="265.643"
       x2="241.606"
       y2="250.899"
       id="line4202" /><polygon
       fill="#FFFFFF"
       stroke="#000000"
       stroke-width="1.2416"
       points="68.022,165.62 108.915,165.62 120.633,171.439    68.022,171.439  "
       id="polygon4204" /><polygon
       fill="#FFFFFF"
       stroke="#000000"
       stroke-width="1.2416"
       points="68.022,188.279 153.301,188.279 164.476,194.176    68.022,194.176  "
       id="polygon4206" /><polygon
       fill="#FFFFFF"
       stroke="#000000"
       stroke-width="1.2416"
       points="260.773,165.388 300.115,165.388 300.115,171.362    251.151,171.362  "
       id="polygon4208" /><polygon
       fill="#FFFFFF"
       stroke="#000000"
       stroke-width="1.2416"
       points="224.069,188.201 300.115,188.201 300.115,194.176    214.215,194.176  "
       id="polygon4210" /><polygon
       fill="#FFFFFF"
       stroke="#000000"
       stroke-width="1.2416"
       points="22.473,223.43 67.634,165.62 67.789,171.596    22.473,224.206  "
       id="polygon4212" /><polygon
       fill="#FFFFFF"
       stroke="#000000"
       stroke-width="1.2416"
       points="22.473,233.44 68.022,188.356 68.022,194.176    22.473,234.294  "
       id="polygon4214" /><polygon
       fill="#A89187"
       stroke="#000000"
       stroke-width="1.2416"
       stroke-linecap="round"
       stroke-linejoin="round"
       points="   191.324,91.049 191.324,73.202 242.538,82.203 257.979,98.033 291.967,139.78 197.376,201.315 197.376,138.693 211.81,138.693    211.81,92.136  "
       id="polygon4216" /><polygon
       fill="#A89187"
       stroke="#000000"
       stroke-width="1.2416"
       stroke-linecap="round"
       stroke-linejoin="round"
       points="   105.114,99.818 105.89,99.818 106.743,99.896 107.597,100.206 108.373,100.439 109.226,100.749 109.77,101.215 110.468,101.758    111.166,102.378 111.632,103.154 112.098,103.931 112.485,104.475 112.719,105.327 113.028,106.182 113.028,107.112    113.261,108.044 113.028,108.819 113.028,109.596 112.719,110.526 112.485,111.303 112.098,112.079 111.632,112.699    111.166,113.397 110.468,114.018 109.77,114.562 109.226,115.027 108.373,115.338 107.597,115.648 106.743,115.958 105.89,116.113    105.114,116.113 104.104,116.113 103.406,115.958 102.631,115.648 101.621,115.338 101.001,115.027 100.225,114.562    99.604,114.018 98.906,113.397 98.518,112.699 98.052,112.079 97.586,111.303 97.276,110.526 97.199,109.596 96.966,108.819    96.966,108.044 96.966,107.112 97.199,106.182 97.276,105.327 97.586,104.475 98.052,103.931 98.518,103.154 98.906,102.378    99.604,101.758 100.225,101.215 101.001,100.749 101.621,100.439 102.631,100.206 103.406,99.896 104.104,99.818  "
       id="polygon4218" /><polygon
       fill="#A89187"
       stroke="#000000"
       stroke-width="1.2416"
       stroke-linecap="round"
       stroke-linejoin="round"
       points="   265.041,103.62 266.05,103.62 266.98,103.698 267.834,103.931 268.766,104.396 269.619,104.784 270.551,105.25 271.326,105.871    271.947,106.413 272.49,107.423 273.033,108.199 273.499,109.052 273.965,110.138 274.12,110.992 274.275,111.846 274.508,112.932    274.275,113.941 274.12,114.794 273.965,115.648 273.499,116.734 273.033,117.588 272.49,118.286 271.947,119.14 271.326,119.76    270.551,120.459 269.619,121.002 268.766,121.313 267.834,121.7 266.98,122.088 266.05,122.166 265.041,122.243 264.032,122.166    263.101,122.088 262.325,121.7 261.238,121.313 260.385,121.002 259.609,120.459 258.833,119.76 258.058,119.14 257.437,118.286    256.971,117.588 256.66,116.734 256.117,115.648 255.885,114.794 255.729,113.941 255.729,112.932 255.729,111.846    255.885,110.992 256.117,110.138 256.66,109.052 256.971,108.199 257.437,107.423 258.058,106.413 258.833,105.871 259.609,105.25    260.385,104.784 261.238,104.396 262.325,103.931 263.101,103.698 264.032,103.62  "
       id="polygon4220" /><rect
       x="255.885"
       y="182.304"
       fill="#A89187"
       stroke="#000000"
       stroke-width="0.9312"
       width="23.667"
       height="26.849"
       id="rect4222" /><rect
       x="94.716"
       y="182.304"
       fill="#A89187"
       stroke="#000000"
       stroke-width="0.9312"
       width="23.512"
       height="26.849"
       id="rect4224" /><polygon
       fill="#A89187"
       stroke="#000000"
       stroke-width="1.2416"
       stroke-linecap="round"
       points="192.41,135.823 192.41,207.833    191.944,208.144 191.944,135.823  "
       id="polygon4226" /><polygon
       fill="#FFFF54"
       stroke="#000000"
       stroke-width="0.9312"
       points="233.304,41.931 234.08,41.931 234.934,42.086    235.709,42.241 236.485,42.629 237.261,43.173 238.115,43.56 238.735,44.025 239.977,45.345 240.287,46.043 240.753,46.974    241.063,47.595 241.296,48.449 241.374,49.302 241.451,50.312 241.374,51.164 241.296,52.019 241.063,52.949 240.753,53.647    240.287,54.424 239.977,55.277 239.278,55.82 238.115,56.906 237.261,57.45 236.485,57.916 235.709,58.148 234.934,58.304    234.08,58.537 233.304,58.691 232.373,58.537 231.519,58.304 230.743,58.148 229.89,57.916 229.113,57.45 228.338,56.906    227.562,56.364 226.631,55.277 226.087,54.424 225.622,53.647 225.389,52.949 225.001,52.019 225.001,51.164 225.001,50.312    225.001,49.302 225.001,48.449 225.389,47.595 225.622,46.974 226.087,46.043 226.631,45.345 227.174,44.569 228.338,43.56    229.113,43.173 229.89,42.629 230.743,42.241 231.519,42.086 232.373,41.931  "
       id="polygon4228" /><polygon
       fill="#FFFF54"
       stroke="#000000"
       stroke-width="0.9312"
       points="88.74,35.335 89.517,35.335 90.603,35.413 91.457,35.568    92.31,36.11 93.319,36.421 94.017,36.965 94.561,37.507 95.568,38.361 95.957,38.904 96.5,39.913 96.889,40.611 97.276,41.62    97.51,42.474 97.741,43.482 97.819,44.414 97.741,45.345 97.51,46.432 97.276,47.362 96.889,48.139 96.5,49.146 95.957,50.001    95.568,50.622 94.561,51.397 94.017,51.94 93.319,52.484 92.31,52.949 91.457,53.104 90.603,53.492 89.517,53.647 88.74,53.803    87.499,53.647 86.646,53.492 85.792,53.104 84.783,52.949 84.084,52.484 83.153,51.94 82.532,51.397 81.68,50.622 81.214,50.001    80.593,49.146 80.128,48.139 79.895,47.362 79.584,46.432 79.352,45.345 79.352,44.414 79.352,43.482 79.584,42.474 79.895,41.62    80.128,40.611 80.593,39.913 81.214,38.904 81.68,38.361 82.532,37.507 83.153,36.965 84.084,36.421 84.783,36.11 85.792,35.568    86.646,35.413 87.499,35.335  "
       id="polygon4230" /><polygon
       fill="#FFFF54"
       stroke="#000000"
       stroke-width="1.2416"
       stroke-linecap="round"
       stroke-linejoin="round"
       points="   105.035,101.758 106.2,101.836 106.821,101.991 107.363,102.302 108.45,102.844 109.459,103.854 110.08,104.784 110.777,106.026    110.856,106.646 111.088,107.423 111.166,108.044 110.856,109.285 110.777,109.906 110.468,110.526 109.925,111.535    108.915,112.544 107.907,113.397 106.821,113.941 106.2,113.941 105.579,114.018 104.338,114.018 103.717,113.941 103.019,113.941    102.397,113.631 101.311,113.087 100.458,112.079 99.604,111.069 99.062,109.906 98.906,109.285 98.828,108.509 98.828,107.423    98.906,106.646 99.062,106.026 99.372,105.327 99.759,104.396 100.769,103.31 101.854,102.611 103.019,101.991 103.717,101.836    104.338,101.758  "
       id="polygon4232" /><polygon
       fill="#FFFF54"
       stroke="#000000"
       stroke-width="1.2416"
       stroke-linecap="round"
       stroke-linejoin="round"
       points="   264.188,106.724 265.352,106.879 266.05,106.957 266.593,107.268 267.68,107.733 268.61,108.741 269.387,109.673 270.007,110.914    270.007,111.535 270.162,112.155 270.396,112.932 270.007,114.018 270.007,114.794 269.619,115.338 269.076,116.424 268.3,117.433    267.214,118.131 266.05,118.674 265.352,118.907 264.575,118.984 263.645,118.984 262.945,118.907 262.247,118.674    261.549,118.441 260.463,117.821 259.609,116.967 258.833,115.958 258.29,114.794 258.058,114.018 258.058,113.397    258.058,112.155 258.058,111.535 258.29,110.914 258.522,110.217 259.066,109.285 260.074,108.275 261.006,107.423    262.247,106.957 262.945,106.879 263.645,106.724  "
       id="polygon4234" /><polygon
       fill="#FFFF54"
       stroke="#000000"
       stroke-width="1.2416"
       stroke-linecap="round"
       stroke-linejoin="round"
       points="   192.41,97.878 193.264,97.878 194.117,97.956 195.126,98.188 196.058,98.732 196.988,99.042 197.842,99.585 198.385,100.129    199.238,100.749 199.704,101.525 200.247,102.533 200.636,103.31 201.101,104.009 201.179,105.095 201.411,106.026    201.411,107.112 201.411,108.044 201.179,108.896 201.101,109.906 200.636,110.759 200.247,111.769 199.704,112.544    199.238,113.242 198.385,113.941 197.842,114.562 196.988,115.027 196.058,115.338 195.126,115.804 194.117,116.113    193.264,116.113 192.41,116.346 191.324,116.113 190.315,116.113 189.616,115.804 188.607,115.338 187.754,115.027 186.9,114.562    186.357,113.941 185.427,113.242 184.883,112.544 184.263,111.769 183.952,110.759 183.719,109.906 183.254,108.896    183.176,108.044 183.176,107.112 183.176,106.026 183.254,105.095 183.719,104.009 183.952,103.31 184.263,102.533    184.883,101.525 185.427,100.749 186.357,100.129 186.9,99.585 187.754,99.042 188.607,98.732 189.616,98.188 190.315,97.956    191.324,97.878  "
       id="polygon4236" /><polygon
       fill="#FFFF54"
       stroke="#000000"
       stroke-width="1.2416"
       stroke-linecap="round"
       stroke-linejoin="round"
       points="   192.41,115.57 193.264,115.57 194.117,115.648 195.126,115.958 196.058,116.346 196.988,116.734 197.842,117.277 198.385,117.821    199.238,118.597 199.704,119.14 200.247,120.226 200.636,121.002 201.101,121.855 201.179,122.787 201.411,123.795    201.411,124.649 201.411,125.735 201.179,126.589 201.101,127.598 200.636,128.606 200.247,129.46 199.704,130.313    199.238,130.857 198.385,131.633 197.842,132.254 196.988,132.72 196.058,133.106 195.126,133.572 194.117,133.883    193.264,134.038 192.41,134.116 191.324,134.038 190.315,133.883 189.616,133.572 188.607,133.106 187.754,132.72 186.9,132.254    186.357,131.633 185.427,130.857 184.883,130.313 184.263,129.46 183.952,128.606 183.719,127.598 183.254,126.589    183.176,125.735 183.176,124.649 183.176,123.795 183.254,122.787 183.719,121.855 183.952,121.002 184.263,120.226    184.883,119.14 185.427,118.597 186.357,117.821 186.9,117.277 187.754,116.734 188.607,116.346 189.616,115.958 190.315,115.648    191.324,115.57  "
       id="polygon4238" /><polygon
       fill="#FFFF54"
       stroke="#000000"
       stroke-width="0.9312"
       stroke-linecap="round"
       stroke-linejoin="round"
       points="   268.378,183.855 269.464,183.855 270.783,184.011 272.18,184.398 273.422,184.941 274.585,185.252 275.594,186.105    276.525,186.959 277.379,187.813 278.388,188.899 279.009,189.986 279.552,191.228 280.018,192.313 280.25,193.633    280.561,195.029 280.638,196.193 280.561,197.513 280.25,198.832 280.018,200.073 279.552,201.315 279.009,202.479    278.388,203.565 277.379,204.419 276.525,205.428 275.594,206.281 274.585,206.979 273.422,207.522 272.18,208.066    270.783,208.221 269.464,208.609 268.378,208.609 267.214,208.609 265.816,208.221 264.498,208.066 263.179,207.522    262.325,206.979 261.006,206.281 260.074,205.428 259.144,204.419 258.29,203.565 257.669,202.479 257.126,201.315 256.66,200.073    256.35,198.832 256.04,197.513 256.04,196.193 256.04,195.029 256.35,193.633 256.66,192.313 257.126,191.228 257.669,189.986    258.29,188.899 259.144,187.813 260.074,186.959 261.006,186.105 262.325,185.252 263.179,184.941 264.498,184.398    265.816,184.011 267.214,183.855  "
       id="polygon4240" /><polygon
       fill="#FFFF54"
       stroke="#000000"
       stroke-width="0.9312"
       stroke-linecap="round"
       stroke-linejoin="round"
       points="   107.053,183.855 108.295,183.855 109.536,184.011 110.856,184.244 112.098,184.941 113.261,185.252 114.348,186.028    115.201,186.959 116.055,187.813 117.063,188.899 117.606,189.986 118.228,191.228 118.771,192.313 119.003,193.633    119.236,195.029 119.313,196.193 119.236,197.436 119.003,198.832 118.771,200.073 118.228,201.315 117.606,202.479    117.063,203.565 116.055,204.419 115.201,205.35 114.348,206.203 113.261,206.979 112.098,207.522 110.856,208.066    109.536,208.221 108.295,208.609 107.053,208.609 105.734,208.609 104.493,208.221 103.173,208.066 101.932,207.522    100.846,206.979 99.682,206.203 98.828,205.35 97.975,204.419 96.966,203.565 96.189,202.479 95.879,201.315 95.259,200.073    95.026,198.832 94.793,197.436 94.793,196.193 94.793,195.029 95.026,193.633 95.259,192.313 95.879,191.228 96.189,189.986    96.966,188.899 97.975,187.813 98.828,186.959 99.682,186.028 100.846,185.252 101.932,184.941 103.173,184.244 104.493,184.011    105.734,183.855  "
       id="polygon4242" /><polygon
       fill="#FFFFFF"
       stroke="#000000"
       stroke-width="0.9312"
       stroke-linecap="round"
       stroke-linejoin="round"
       points="   268.378,185.873 269.387,185.873 270.551,186.028 271.559,186.184 272.49,186.727 273.499,187.192 274.275,187.813    275.206,188.512 275.904,189.133 276.681,190.141 277.224,191.072 277.767,192.004 278.077,192.935 278.388,193.943    278.465,195.029 278.62,196.193 278.465,197.28 278.388,198.289 278.077,199.375 277.767,200.307 277.224,201.393 276.681,202.169    275.904,203.022 275.206,203.721 274.275,204.574 273.499,205.117 272.49,205.66 271.559,205.971 270.551,206.281 269.387,206.437    268.378,206.514 267.214,206.437 266.127,206.281 265.041,205.971 264.265,205.66 263.179,205.117 262.325,204.574    261.472,203.721 260.695,203.022 260.074,202.169 259.531,201.393 258.988,200.307 258.522,199.375 258.29,198.289 258.058,197.28    258.058,196.193 258.058,195.029 258.29,193.943 258.522,192.935 258.988,192.004 259.531,191.072 260.074,190.141    260.695,189.133 261.472,188.512 262.325,187.813 263.179,187.192 264.265,186.727 265.041,186.184 266.127,186.028    267.214,185.873  "
       id="polygon4244" /><polygon
       fill="#FFFFFF"
       stroke="#000000"
       stroke-width="0.9312"
       stroke-linecap="round"
       stroke-linejoin="round"
       points="   107.053,185.873 108.063,185.873 109.226,186.028 110.08,186.339 111.166,186.727 112.175,187.192 113.028,187.813    113.882,188.512 114.581,189.287 115.434,190.141 115.899,191.228 116.443,192.004 116.83,192.935 117.063,193.943    117.141,195.029 117.296,196.193 117.141,197.28 117.063,198.366 116.83,199.375 116.443,200.307 115.899,201.393 115.434,202.169    114.581,203.022 113.882,203.721 113.028,204.651 112.175,205.117 111.166,205.66 110.08,205.971 109.226,206.281 108.063,206.437    107.053,206.514 105.967,206.437 104.804,206.281 103.717,205.971 102.941,205.66 101.932,205.117 101.001,204.651    100.147,203.721 99.448,203.022 98.673,202.169 98.13,201.393 97.586,200.307 97.276,199.375 96.966,198.366 96.733,197.28    96.733,196.193 96.733,195.029 96.966,193.943 97.276,192.935 97.586,192.004 98.13,191.228 98.673,190.141 99.448,189.287    100.147,188.512 101.001,187.813 101.932,187.192 102.941,186.727 103.717,186.339 104.804,186.028 105.967,185.873  "
       id="polygon4246" /><polygon
       fill="#FFFFFF"
       stroke="#000000"
       stroke-width="1.2416"
       stroke-linecap="round"
       stroke-linejoin="round"
       points="   191.401,100.051 192.643,100.129 193.264,100.206 194.505,100.671 195.437,101.447 196.29,102.302 196.601,103.077    197.144,104.009 197.144,104.784 197.299,105.327 197.376,106.026 197.144,107.268 197.144,107.811 196.601,109.052    195.979,110.138 195.049,110.992 193.729,111.769 192.643,111.846 191.944,112 190.858,112 190.237,111.846 189.616,111.769    188.375,111.225 187.832,110.992 186.9,110.138 186.357,109.052 185.892,108.354 185.582,107.268 185.427,106.413 185.427,105.327    185.582,104.784 185.659,104.009 186.357,103.077 186.436,102.302 187.444,101.447 188.375,100.671 189.616,100.206    190.237,100.129 190.858,100.051  "
       id="polygon4248" /><polygon
       fill="#FFFFFF"
       stroke="#000000"
       stroke-width="1.2416"
       stroke-linecap="round"
       stroke-linejoin="round"
       points="   191.324,118.674 192.332,118.674 193.264,118.984 194.117,119.528 195.049,120.304 195.669,121.157 196.058,122.166    196.29,123.175 196.445,123.795 196.29,124.96 195.902,125.891 195.437,126.822 194.66,127.598 193.729,128.219 192.876,128.762    191.867,128.917 190.703,128.917 189.694,128.762 188.686,128.219 187.754,127.598 187.056,126.822 186.668,125.891    186.202,124.96 186.202,123.795 186.202,123.175 186.357,122.166 186.745,121.157 187.521,120.304 188.298,119.528    189.151,118.984 190.237,118.674  "
       id="polygon4250" /><polygon
       fill="#FFFFFF"
       stroke="#000000"
       stroke-width="1.2416"
       stroke-linecap="round"
       stroke-linejoin="round"
       points="   261.238,109.906 261.859,110.138 262.636,110.526 263.101,111.303 263.179,112 262.945,112.699 262.402,113.476 261.782,113.941    260.929,113.941 260.229,113.941 259.609,113.397 259.066,112.544 259.066,111.769 259.144,111.225 259.687,110.448    260.463,109.906  "
       id="polygon4252" /><polygon
       fill="#FFFFFF"
       stroke="#000000"
       stroke-width="0.699"
       stroke-linejoin="round"
       points="106.2,106.026 106.821,106.337    107.053,106.957 106.743,107.655 106.122,107.733 105.346,107.5 105.346,106.879 105.579,106.182  "
       id="polygon4254" /><polygon
       fill="#FFFFFF"
       stroke="#000000"
       stroke-width="0.9312"
       points="231.519,46.432 232.373,46.509 233.148,46.974    233.77,47.518 234.08,48.371 234.313,49.146 234.313,49.69 234.08,50.312 233.77,51.164 233.148,51.863 232.373,52.174    231.597,52.251 231.054,52.251 230.433,52.174 229.502,51.863 228.881,51.164 228.647,50.312 228.338,49.69 228.338,49.146    228.647,48.371 228.881,47.518 229.502,46.974 230.433,46.509 231.054,46.432  "
       id="polygon4256" /><polygon
       fill="#FFFFFF"
       stroke="#000000"
       stroke-width="0.9312"
       points="86.412,40.301 87.344,40.456 87.964,40.611 88.74,41.155    88.974,41.853 89.517,42.784 89.517,43.328 89.284,44.414 88.974,45.111 88.508,45.732 87.499,46.198 86.878,46.509 86.102,46.509    85.326,46.432 84.473,45.966 83.853,45.345 83.542,44.569 83.309,43.87 83.309,43.173 83.387,42.241 83.853,41.387 84.473,40.767    85.171,40.534 85.792,40.301  "
       id="polygon4258" /><polygon
       fill="#FFFFFF"
       stroke="#000000"
       stroke-width="0.9312"
       stroke-linecap="round"
       stroke-linejoin="round"
       points="   110.08,194.176 110.856,194.331 111.632,195.029 112.098,195.65 112.175,196.349 111.942,197.202 111.398,197.823 110.623,198.366    109.925,198.366 109.226,198.134 108.45,197.59 108.063,196.893 108.063,195.961 108.14,195.34 108.684,194.797 109.459,194.176     "
       id="polygon4260" /><polygon
       fill="#FFFFFF"
       stroke="#000000"
       stroke-width="0.9312"
       stroke-linecap="round"
       stroke-linejoin="round"
       points="   271.404,194.564 272.18,194.797 272.878,195.262 273.422,195.961 273.499,196.736 273.267,197.513 272.723,198.134    271.947,198.832 271.249,198.832 270.551,198.677 270.007,198.056 269.309,197.28 269.309,196.504 269.464,195.883    270.007,195.107 270.783,194.564  "
       id="polygon4262" /><rect
       x="94.871"
       y="118.907"
       fill="#FFFFFF"
       stroke="#000000"
       stroke-width="1.2416"
       width="20.33"
       height="1.086"
       id="rect4264" /><rect
       x="258.522"
       y="123.795"
       fill="#FFFFFF"
       stroke="#000000"
       stroke-width="1.2416"
       width="15.442"
       height="1.94"
       id="rect4266" /><polygon
       fill="#FFFFFF"
       stroke="#000000"
       stroke-width="1.2416"
       points="201.645,135.823 177.977,135.823 177.977,97.102    180.149,94.153 180.149,133.883 204.593,133.883  "
       id="polygon4268" /><line
       fill="none"
       stroke="#000000"
       stroke-width="0.699"
       stroke-linejoin="round"
       x1="188.143"
       y1="106.957"
       x2="191.324"
       y2="103.077"
       id="line4270" /><line
       fill="none"
       stroke="#000000"
       stroke-width="0.699"
       stroke-linejoin="round"
       x1="188.143"
       y1="124.805"
       x2="190.315"
       y2="121.002"
       id="line4272" /><line
       fill="none"
       stroke="#000000"
       stroke-width="0.9312"
       stroke-linecap="round"
       stroke-linejoin="round"
       x1="100.846"
       y1="196.193"
       x2="108.063"
       y2="189.365"
       id="line4274" /><line
       fill="none"
       stroke="#000000"
       stroke-width="0.9312"
       stroke-linecap="round"
       stroke-linejoin="round"
       x1="273.033"
       y1="202.091"
       x2="277.224"
       y2="195.961"
       id="line4276" /><polygon
       fill="#FFFFFF"
       stroke="#000000"
       stroke-width="1.2416"
       points="66.005,212.8 65.927,115.958 68.022,113.941    68.022,211.325 66.548,212.179  "
       id="polygon4278" /></g></svg>